0
SECTION
2
HEADER
9
$INSUNITS
70
4
9
$ACADVER
1
AC1014
9
$HANDSEED
5
FFFF
0
ENDSEC
0
SECTION
2
TABLES
0
TABLE
2
VPORT
5
8
100
AcDbSymbolTable
0
ENDTAB
0
TABLE
2
LTYPE
5
5
100
AcDbSymbolTable
0
LTYPE
5
14
100
AcDbSymbolTableRecord
100
AcDbLinetypeTableRecord
2
BYBLOCK
70
0
0
LTYPE
5
15
100
AcDbSymbolTableRecord
100
AcDbLinetypeTableRecord
2
BYLAYER
70
0
0
ENDTAB
0
TABLE
2
LAYER
5
2
100
AcDbSymbolTable
70
2
0
LAYER
5
50
100
AcDbSymbolTableRecord
100
AcDbLayerTableRecord
2
0
70
0
6
CONTINUOUS
0
ENDTAB
0
TABLE
2
STYLE
5
3
100
AcDbSymbolTable
70
1
0
STYLE
5
11
100
AcDbSymbolTableRecord
100
AcDbTextStyleTableRecord
2
STANDARD
70
0
0
ENDTAB
0
TABLE
2
VIEW
5
6
100
AcDbSymbolTable
70
0
0
ENDTAB
0
TABLE
2
UCS
5
7
100
AcDbSymbolTable
70
0
0
ENDTAB
0
TABLE
2
APPID
5
9
100
AcDbSymbolTable
70
2
0
APPID
5
12
100
AcDbSymbolTableRecord
100
AcDbRegAppTableRecord
2
ACAD
70
0
0
ENDTAB
0
TABLE
2
DIMSTYLE
5
A
100
AcDbSymbolTable
70
1
0
ENDTAB
0
TABLE
2
BLOCK_RECORD
5
1
100
AcDbSymbolTable
70
1
0
BLOCK_RECORD
5
1F
100
AcDbSymbolTableRecord
100
AcDbBlockTableRecord
2
*MODEL_SPACE
0
BLOCK_RECORD
5
1B
100
AcDbSymbolTableRecord
100
AcDbBlockTableRecord
2
*PAPER_SPACE
0
ENDTAB
0
ENDSEC
0
SECTION
2
BLOCKS
0
BLOCK
5
20
100
AcDbEntity
100
AcDbBlockBegin
2
*MODEL_SPACE
0
ENDBLK
5
21
100
AcDbEntity
100
AcDbBlockEnd
0
BLOCK
5
1C
100
AcDbEntity
100
AcDbBlockBegin
2
*PAPER_SPACE
0
ENDBLK
5
1D
100
AcDbEntity
100
AcDbBlockEnd
0
ENDSEC
0
SECTION
2
ENTITIES
0
LWPOLYLINE
5
100
100
AcDbEntity
8
0
100
AcDbPolyline
90
4
70
1
43
0.0
10
150
20
200
10
0
20
200
10
0
20
0
10
150
20
0
0
LINE
5
101
100
AcDbEntity
8
0
100
AcDbLine
10
95.46410758288097
20
158.25193175865832
30
0
11
95.890139418545857
21
157.31041907950839
31
0
0
LINE
5
102
100
AcDbEntity
8
0
100
AcDbLine
10
83.663150921018072
20
151.67839012225724
30
0
11
84.696089977481535
21
151.64483083692019
31
0
0
LWPOLYLINE
5
103
100
AcDbEntity
8
0
100
AcDbPolyline
90
4
70
1
43
0.0
10
12.512393803680233
20
145.31993722557502
42
-0.99999999999999989
10
12.512393803680224
20
143.31993722557502
10
8.6314938036802342
20
143.31993722557502
42
-0.99999999999999989
10
8.6314938036802431
20
145.31993722557502
0
LINE
5
104
100
AcDbEntity
8
0
100
AcDbLine
10
95.593677905826723
20
166.50595312342855
30
0
11
95.229177905826702
21
165.53895312342857
31
0
0
CIRCLE
5
105
100
AcDbEntity
8
0
100
AcDbCircle
10
140.56119859844668
20
189.5449017563372
30
0
40
1.5000047683743281
0
LINE
5
106
100
AcDbEntity
8
0
100
AcDbLine
10
91.521647609461183
20
154.2164924813332
30
0
11
92.27577581907255
21
154.92316069447736
31
0
0
LWPOLYLINE
5
107
100
AcDbEntity
8
0
100
AcDbPolyline
90
6
70
1
43
0.0
10
132.18727105206273
20
173.74744733999987
42
-0.12695473639412036
10
133.98436940136799
20
173.26462058715023
42
1.7162625617128096
10
133.97789676710039
20
183.70428517123699
42
-0.12731625783108505
10
132.20211855266325
20
183.22618018168797
10
56.900793803680259
20
182.49343722557501
42
0.99022188621685781
10
56.900093803680242
20
174.49383722557502
0
LWPOLYLINE
5
108
100
AcDbEntity
8
0
100
AcDbPolyline
90
4
70
1
43
0.0
10
32.612293803680238
20
143.41983722557501
42
-0.99999999999999989
10
32.612293803680238
20
145.21983722557502
10
37.612293803680224
20
145.21983722557502
42
-0.99999999999999989
10
37.612293803680245
20
143.41983722557501
0
ARC
5
109
100
AcDbEntity
8
0
100
AcDbCircle
10
84.528638696253466
20
162.43348594434696
30
0
40
7.3654999999999946
100
AcDbArc
50
17.903842714954184
51
28.903698474885523
0
SPLINE
5
110
100
AcDbEntity
8
0
100
AcDbSpline
70
1064
71
5
72
26
73
20
74
0
42
0.000000001
43
0.0000000001
44
0.0000000001
40
0
40
0
40
0
40
0
40
0
40
0
40
0.066666666666666666
40
0.13333333333333333
40
0.20000000000000001
40
0.26666666666666666
40
0.33333333333333331
40
0.39999999999999997
40
0.46666666666666662
40
0.53333333333333333
40
0.59999999999999998
40
0.66666666666666663
40
0.73333333333333328
40
0.79999999999999993
40
0.86666666666666659
40
0.93333333333333324
40
1
40
1
40
1
40
1
40
1
40
1
10
86.572253741423538
20
169.50920941672268
30
0
10
86.533591479258192
20
169.53562707570188
30
0
10
86.460417427622701
20
169.5895699534023
30
0
10
86.363108368070044
20
169.67380690772256
30
0
10
86.258442876731181
20
169.792816776851
30
0
10
86.169581421717396
20
169.95315464099428
30
0
10
86.121168259509219
20
170.12582287746363
30
0
10
86.108742119526553
20
170.31191907612424
30
0
10
86.12274338661534
20
170.51289077476213
30
0
10
86.149324475941796
20
170.73041923137066
30
0
10
86.172977397670181
20
170.96621484500727
30
0
10
86.17854022776207
20
171.22178122098012
30
0
10
86.153357925741858
20
171.49814386898606
30
0
10
86.089720205561548
20
171.79546587107586
30
0
10
85.983747024189938
20
172.11334936920321
30
0
10
85.834074982036427
20
172.45114518812591
30
0
10
85.679486093985247
20
172.73677324612817
30
0
10
85.544253744064775
20
172.959423315245
30
0
10
85.44558747249215
20
173.11157576587124
30
0
10
85.39412647148886
20
173.18858176643664
30
0
0
ARC
5
111
100
AcDbEntity
8
0
100
AcDbCircle
10
140.55954013127345
20
189.54491468156945
30
0
40
3.9999720287316372
100
AcDbArc
50
-89.625237029447391
51
89.625273229832231
0
SPLINE
5
112
100
AcDbEntity
8
0
100
AcDbSpline
70
1064
71
5
72
21
73
15
74
0
42
0.000000001
43
0.0000000001
44
0.0000000001
40
0
40
0
40
0
40
0
40
0
40
0
40
0.10000000000000001
40
0.20000000000000001
40
0.30000000000000004
40
0.40000000000000002
40
0.5
40
0.59999999999999998
40
0.69999999999999996
40
0.79999999999999993
40
0.89999999999999991
40
1
40
1
40
1
40
1
40
1
40
1
10
77.942257247173202
20
158.06691377659155
30
0
10
77.903985660544947
20
158.05220475199195
30
0
10
77.827959326867969
20
158.01933281925932
30
0
10
77.715470403588455
20
157.95966287863942
30
0
10
77.568636840135881
20
157.85904131080986
30
0
10
77.390682508899559
20
157.6959239457733
30
0
10
77.218733768678206
20
157.49267302142013
30
0
10
77.053149369817021
20
157.24689111704441
30
0
10
76.893892809094254
20
156.95882217269906
30
0
10
76.740508799383278
20
156.63150873537228
30
0
10
76.592456068508582
20
156.26856796427876
30
0
10
76.477884841100334
20
155.95234690350364
30
0
10
76.393987983532341
20
155.70160478318931
30
0
10
76.33894479805528
20
155.5285087790657
30
0
10
76.31164523323973
20
155.44047703113927
30
0
0
SPLINE
5
113
100
AcDbEntity
8
0
100
AcDbSpline
70
1064
71
5
72
26
73
20
74
0
42
0.000000001
43
0.0000000001
44
0.0000000001
40
0
40
0
40
0
40
0
40
0
40
0
40
0.066666666666666666
40
0.13333333333333333
40
0.20000000000000001
40
0.26666666666666666
40
0.33333333333333331
40
0.39999999999999997
40
0.46666666666666662
40
0.53333333333333333
40
0.59999999999999998
40
0.66666666666666663
40
0.73333333333333328
40
0.79999999999999993
40
0.86666666666666659
40
0.93333333333333324
40
1
40
1
40
1
40
1
40
1
40
1
10
80.970400703710368
20
168.88183205003929
30
0
10
80.924382250141008
20
168.87317380806485
30
0
10
80.834497007389032
20
168.85957531451695
30
0
10
80.706124589868807
20
168.85033194021773
30
0
10
80.547962225694448
20
168.8604749470139
30
0
10
80.371751697262411
20
168.9110164006467
30
0
10
80.215423541083425
20
168.99887800632098
30
0
10
80.07504704923592
20
169.12168128256315
30
0
10
79.942838989227681
20
169.27369012443637
30
0
10
79.807818810982994
20
169.44630163972317
30
0
10
79.657811274947306
20
169.62975945842282
30
0
10
79.481032072304643
20
169.81440569075039
30
0
10
79.267807593259846
20
169.99201701664305
30
0
10
79.012570525852112
20
170.15725675698849
30
0
10
78.71285859348265
20
170.30709997893811
30
0
10
78.368166763291583
20
170.44012357719197
30
0
10
78.056886375572944
20
170.53278226289504
30
0
10
77.803825290254892
20
170.59459592497734
30
0
10
77.626469670986694
20
170.6324163649237
30
0
10
77.535629783045721
20
170.65047940736071
30
0
0
ARC
5
114
100
AcDbEntity
8
0
100
AcDbCircle
10
140.55718903863919
20
190.18603722557501
30
0
40
3.3588849479560183
100
AcDbArc
50
89.513644187853984
51
89.513644187853984
0
CIRCLE
5
115
100
AcDbEntity
8
0
100
AcDbCircle
10
10.651205806880235
20
170.77509618237499
30
0
40
1.499774554139925
0
SPLINE
5
116
100
AcDbEntity
8
0
100
AcDbSpline
70
1064
71
5
72
26
73
20
74
0
42
0.000000001
43
0.0000000001
44
0.0000000001
40
0
40
0
40
0
40
0
40
0
40
0
40
0.066666666666666666
40
0.13333333333333333
40
0.20000000000000001
40
0.26666666666666666
40
0.33333333333333331
40
0.39999999999999997
40
0.46666666666666662
40
0.53333333333333333
40
0.59999999999999998
40
0.66666666666666663
40
0.73333333333333328
40
0.79999999999999993
40
0.86666666666666659
40
0.93333333333333324
40
1
40
1
40
1
40
1
40
1
40
1
10
110.26695631315164
20
167.83115551548022
30
0
10
110.24240391207451
20
167.87089857614279
30
0
10
110.1975510967377
20
167.94970836131847
30
0
10
110.1430283642098
20
168.06589374867798
30
0
10
110.09602527664728
20
168.21672192788157
30
0
10
110.08042354297814
20
168.39876238950416
30
0
10
110.10689436271802
20
168.57562071317656
30
0
10
110.17181253411464
20
168.75012207549079
30
0
10
110.26703687957144
20
168.92749071058475
30
0
10
110.38061461328043
20
169.11490735249225
30
0
10
110.49909273690714
20
169.32025333907004
30
0
10
110.60925213611091
20
169.55107763620003
30
0
10
110.69996820022732
20
169.81346814750123
30
0
10
110.76427433363749
20
170.11070907648912
30
0
10
110.79846539773619
20
170.44401365240708
30
0
10
110.80102882231259
20
170.81334108193511
30
0
10
110.77765289104761
20
171.13708388981792
30
0
10
110.74600951780207
20
171.39546204546144
30
0
10
110.71868775550004
20
171.57458439867384
30
0
10
110.70347031218401
20
171.66586315344287
30
0
0
SPLINE
5
117
100
AcDbEntity
8
0
100
AcDbSpline
70
1064
71
5
72
26
73
20
74
0
42
0.000000001
43
0.0000000001
44
0.0000000001
40
0
40
0
40
0
40
0
40
0
40
0
40
0.066666666666666666
40
0.13333333333333333
40
0.20000000000000001
40
0.26666666666666666
40
0.33333333333333331
40
0.39999999999999997
40
0.46666666666666662
40
0.53333333333333333
40
0.59999999999999998
40
0.66666666666666663
40
0.73333333333333328
40
0.79999999999999993
40
0.86666666666666659
40
0.93333333333333324
40
1
40
1
40
1
40
1
40
1
40
1
10
100.89619506959421
20
167.97825624455729
30
0
10
100.92198282625264
20
168.0172090733513
30
0
10
100.96928721901691
20
168.09457218919113
30
0
10
101.02742990789332
20
168.20898897252692
30
0
10
101.07914402316554
20
168.35826750467106
30
0
10
101.10045194635079
20
168.5397285643744
30
0
10
101.07954538960516
20
168.71733061068102
30
0
10
101.02013644490651
20
168.89378364047755
30
0
10
100.9305262564658
20
169.07405377891291
30
0
10
100.82288710917933
20
169.2649430484654
30
0
10
100.71091275181253
20
169.47390664164473
30
0
10
100.60805273191551
20
169.70807488389951
30
0
10
100.52561726563142
20
169.97318350049423
30
0
10
100.47067260041906
20
170.27229640960851
30
0
10
100.44696013008289
20
170.60650994601497
30
0
10
100.4559903991655
20
170.97573586003369
30
0
10
100.4895164354525
20
171.29858542985994
30
0
10
100.52925417780591
20
171.55584305608784
30
0
10
100.56218476146022
20
171.73401957754567
30
0
10
100.58025975976005
20
171.82477571285591
30
0
0
CIRCLE
5
118
100
AcDbEntity
8
0
100
AcDbCircle
10
25.559687740402353
20
189.429837225575
30
0
40
1.324906063277862
0
CIRCLE
5
119
100
AcDbEntity
8
0
100
AcDbCircle
10
136.93973697870268
20
178.48628722557498
30
0
40
1.500016683506042
0
SPLINE
5
120
100
AcDbEntity
8
0
100
AcDbSpline
70
1064
71
5
72
26
73
20
74
0
42
0.000000001
43
0.0000000001
44
0.0000000001
40
0
40
0
40
0
40
0
40
0
40
0
40
0.066666666666666666
40
0.13333333333333333
40
0.20000000000000001
40
0.26666666666666666
40
0.33333333333333331
40
0.39999999999999997
40
0.46666666666666662
40
0.53333333333333333
40
0.59999999999999998
40
0.66666666666666663
40
0.73333333333333328
40
0.79999999999999993
40
0.86666666666666659
40
0.93333333333333324
40
1
40
1
40
1
40
1
40
1
40
1
10
106.31229380368023
20
169.54243722557499
30
0
10
106.35807231069194
20
169.55174633731747
30
0
10
106.44622555145374
20
169.57300106417182
30
0
10
106.56824352444487
20
169.61279285790886
30
0
10
106.71036678841018
20
169.68178131866947
30
0
10
106.85374611119704
20
169.79502668758886
30
0
10
106.96454655439913
20
169.93539346702076
30
0
10
107.0473092206194
20
170.1021730686906
30
0
10
107.11141548600614
20
170.29300727797943
30
0
10
107.17028221198336
20
170.50409874590753
30
0
10
107.23886395834769
20
170.73103614704507
30
0
10
107.33171289285147
20
170.96935111660463
30
0
10
107.46088231624798
20
171.21510189429995
30
0
10
107.63353533733637
20
171.46545840597494
30
0
10
107.85309274677684
20
171.71855031246722
30
0
10
108.12056025888708
20
171.9732470955542
30
0
10
108.37255586657801
20
172.17782972811406
30
0
10
108.58256330561558
20
172.33163951309729
30
0
10
108.73183857113534
20
172.43434390070445
30
0
10
108.80879380368023
20
172.48573722557501
30
0
0
LINE
5
121
100
AcDbEntity
8
0
100
AcDbLine
10
95.46410758288097
20
158.25193175865832
30
0
11
95.130139327351657
21
159.22989620294996
31
0
0
ARC
5
122
100
AcDbEntity
8
0
100
AcDbCircle
10
129.47491538264248
20
162.86739554629116
30
0
40
3.047315663861399
100
AcDbArc
50
44.285548462143623
51
88.627724931603154
0
CIRCLE
5
123
100
AcDbEntity
8
0
100
AcDbCircle
10
9.3057320628802369
20
190.72932400957501
30
0
40
1.3247613233323303
0
LINE
5
124
100
AcDbEntity
8
0
100
AcDbLine
10
92.95869954834248
20
155.69885683343898
30
0
11
92.27577581907255
21
154.92316069447736
31
0
0
LWPOLYLINE
5
125
100
AcDbEntity
8
0
100
AcDbPolyline
90
6
70
1
43
0.0
10
5.5242011044596442
20
189.4253953924366
42
-0.1769041102405744
10
5.2238976556725447
20
172.86967984402705
42
0.72705925885243461
10
13.8174284743027
20
165.8947285216218
42
-0.28585172495076144
10
48.59302439721322
20
166.54353129263282
42
1.230983618725777
10
51.144172563827937
20
173.94653051683679
42
-0.17150865851439359
10
12.188950277285663
20
193.50191466746264
42
0.8036293601632678
0
SPLINE
5
126
100
AcDbEntity
8
0
100
AcDbSpline
70
1064
71
5
72
41
73
35
74
0
42
0.000000001
43
0.0000000001
44
0.0000000001
40
0
40
0
40
0
40
0
40
0
40
0
40
0.033333333333333333
40
0.066666666666666666
40
0.10000000000000001
40
0.13333333333333333
40
0.16666666666666666
40
0.19999999999999998
40
0.23333333333333331
40
0.26666666666666666
40
0.29999999999999999
40
0.33333333333333331
40
0.36666666666666664
40
0.39999999999999997
40
0.43333333333333329
40
0.46666666666666662
40
0.49999999999999994
40
0.53333333333333333
40
0.56666666666666665
40
0.59999999999999998
40
0.6333333333333333
40
0.66666666666666663
40
0.69999999999999996
40
0.73333333333333328
40
0.76666666666666661
40
0.79999999999999993
40
0.83333333333333326
40
0.86666666666666659
40
0.89999999999999991
40
0.93333333333333324
40
0.96666666666666656
40
1
40
1
40
1
40
1
40
1
40
1
10
21.053193803680223
20
153.03713722557498
30
0
10
20.795639300411118
20
153.03713722557498
30
0
10
20.301851234234963
20
153.05739580373128
30
0
10
19.625132170722924
20
153.14855977246873
30
0
10
18.852173446183617
20
153.39817334812733
30
0
10
18.10513685839814
20
153.95371273006691
30
0
10
17.573924141265465
20
154.77792391321984
30
0
10
17.241247558041469
20
155.87231388314885
30
0
10
17.068518952299094
20
157.1956022102753
30
0
10
17.008616579850944
20
158.67677433994692
30
0
10
17.018214429364058
20
160.227942741052
30
0
10
17.071239094610984
20
161.75752395196889
30
0
10
17.169685435833017
20
163.18221839492656
30
0
10
17.361282936787028
20
164.4419631602604
30
0
10
17.732697747418268
20
165.50419623917526
30
0
10
18.378439338113747
20
166.35744415513551
30
0
10
19.376008568741533
20
167.00796844441828
30
0
10
20.75926091301217
20
167.47540168178818
30
0
10
22.489828146888176
20
167.78888083517896
30
0
10
24.473538751954948
20
167.97982336254304
30
0
10
26.578085884127734
20
168.07270730818635
30
0
10
28.652961217205352
20
168.08021551531868
30
0
10
30.5412183640045
20
167.98825647367207
30
0
10
32.11087007615572
20
167.76423627979173
30
0
10
33.239779820131552
20
167.31026095711715
30
0
10
33.923219121896679
20
166.5600564036329
30
0
10
34.318751234208953
20
165.57747742985123
30
0
10
34.632522901393664
20
164.47094792707563
30
0
10
35.069340695166687
20
163.37683080435539
30
0
10
35.740665423167684
20
162.40819682999646
30
0
10
36.668199124700095
20
161.64798755174715
30
0
10
37.594601426871876
20
161.25230516584108
30
0
10
38.373745782569543
20
161.08975122851265
30
0
10
38.92730358006402
20
161.04241488517704
30
0
10
39.212612665647924
20
161.03400452628475
30
0
0
ARC
5
127
100
AcDbEntity
8
0
100
AcDbCircle
10
28.358932985521463
20
152.31983722557507
30
0
40
2.0000000000000937
100
AcDbArc
50
234.30924411223319
51
269.9999999999996
0
ARC
5
128
100
AcDbEntity
8
0
100
AcDbCircle
10
9.2389938036802306
20
144.31993722557502
30
0
40
3.9999999999999423
100
AcDbArc
50
90.000019873325115
51
270.00003740734576
0
ARC
5
129
100
AcDbEntity
8
0
100
AcDbCircle
10
105.49237790582671
20
162.22253722557502
30
0
40
7.3656770285936624
100
AcDbArc
50
83.608831382491147
51
94.592476169823797
0
ARC
5
130
100
AcDbEntity
8
0
100
AcDbCircle
10
13.130805835525827
20
153.92115106535456
30
0
40
5.6438433549708673
100
AcDbArc
50
269.36736323163535
51
314.64052651822516
0
CIRCLE
5
131
100
AcDbEntity
8
0
100
AcDbCircle
10
20.953285211918349
20
157.03708722557502
30
0
40
1.32500380371973
0
CIRCLE
5
132
100
AcDbEntity
8
0
100
AcDbCircle
10
22.612342692356254
20
144.319887225575
30
0
40
3.5499488890281357
0
LINE
5
133
100
AcDbEntity
8
0
100
AcDbLine
10
5.0494938036802406
20
172.99173722557501
30
0
11
5.0312938036802191
21
172.946937225575
31
0
0
SPLINE
5
134
100
AcDbEntity
8
0
100
AcDbSpline
70
1064
71
5
72
26
73
20
74
0
42
0.000000001
43
0.0000000001
44
0.0000000001
40
0
40
0
40
0
40
0
40
0
40
0
40
0.066666666666666666
40
0.13333333333333333
40
0.20000000000000001
40
0.26666666666666666
40
0.33333333333333331
40
0.39999999999999997
40
0.46666666666666662
40
0.53333333333333333
40
0.59999999999999998
40
0.66666666666666663
40
0.73333333333333328
40
0.79999999999999993
40
0.86666666666666659
40
0.93333333333333324
40
1
40
1
40
1
40
1
40
1
40
1
10
104.90262264907417
20
169.56456602058023
30
0
10
104.85715889204089
20
169.57530743898931
30
0
10
104.76971622857654
20
169.5993186426401
30
0
10
104.64900735934462
20
169.64292072402606
30
0
10
104.50911952907464
20
169.71633615038473
30
0
10
104.36936539259239
20
169.83402610356416
30
0
10
104.26302536883888
20
169.9778015196714
30
0
10
104.18553835150811
20
170.14709669549524
30
0
10
104.12745356730861
20
170.33984904053887
30
0
10
104.07524157460715
20
170.55268420463511
30
0
10
104.01381671961664
20
170.7816624288773
30
0
10
103.92849375199233
20
171.02277431283855
30
0
10
103.80710158617822
20
171.27245836681041
30
0
10
103.64239181260685
20
171.5281107463623
30
0
10
103.43088662002998
20
171.78796940548369
30
0
10
103.17154530503555
20
172.05093595028427
30
0
10
102.92609529073505
20
172.26332740557805
30
0
10
102.72101910100459
20
172.4236531077313
30
0
10
102.57504106702027
20
172.53099233494171
30
0
10
102.49973688320159
20
172.58477580405011
30
0
0
ARC
5
135
100
AcDbEntity
8
0
100
AcDbCircle
10
25.559290484020817
20
189.54490175633714
30
0
40
4.0001237662315763
100
AcDbArc
50
90.920746624116333
51
269.71284333592979
0
ARC
5
136
100
AcDbEntity
8
0
100
AcDbCircle
10
39.094772184897273
20
157.03643911460267
30
0
40
3.9993018890276844
100
AcDbArc
50
-90
51
88.311520421817448
0
CIRCLE
5
137
100
AcDbEntity
8
0
100
AcDbCircle
10
39.053077513573164
20
157.03718722557505
30
0
40
1.5000998982179214
0
LINE
5
138
100
AcDbEntity
8
0
100
AcDbLine
10
14.508793803680247
20
166.14893722557503
30
0
11
14.533593803680231
21
166.17053722557498
31
0
0
LINE
5
139
100
AcDbEntity
8
0
100
AcDbLine
10
85.727489977481525
20
151.71043083692018
30
0
11
84.696089977481535
21
151.64483083692019
31
0
0
SPLINE
5
140
100
AcDbEntity
8
0
100
AcDbSpline
70
1064
71
5
72
21
73
15
74
0
42
0.000000001
43
0.0000000001
44
0.0000000001
40
0
40
0
40
0
40
0
40
0
40
0
40
0.10000000000000001
40
0.20000000000000001
40
0.30000000000000004
40
0.40000000000000002
40
0.5
40
0.59999999999999998
40
0.69999999999999996
40
0.79999999999999993
40
0.89999999999999991
40
1
40
1
40
1
40
1
40
1
40
1
10
77.809930089674125
20
166.59257003394646
30
0
10
77.771224505939728
20
166.60614002400985
30
0
10
77.694222326838457
20
166.63674483754806
30
0
10
77.579946069550971
20
166.69304695000648
30
0
10
77.430071721794448
20
166.78924485381748
30
0
10
77.247150431492116
20
166.94695115041372
30
0
10
77.06898158511008
20
167.14491880363681
30
0
10
76.895849166369857
20
167.38555364304375
30
0
10
76.727724474972149
20
167.66861252787828
30
0
10
76.564247304092305
20
167.99104388813365
30
0
10
76.404989351281259
20
168.34921926698937
30
0
10
76.280646519847821
20
168.66171293412197
30
0
10
76.188997208892019
20
168.90970411690904
30
0
10
76.128600488023622
20
169.08098566181991
30
0
10
76.09857784416441
20
169.16811505525493
30
0
0
LINE
5
141
100
AcDbEntity
8
0
100
AcDbLine
10
21.053193803680223
20
153.03713722557498
30
0
11
39.094772184897273
21
153.03713722557498
31
0
0
LINE
5
142
100
AcDbEntity
8
0
100
AcDbLine
10
13.068490071584565
20
148.27765174657964
30
0
11
9.2389924162604036
21
148.31993722557471
31
0
0
LINE
5
143
100
AcDbEntity
8
0
100
AcDbLine
10
58.039750150171244
20
154.76736084282854
30
0
11
47.839600954642229
21
153.51784349878221
31
0
0
LWPOLYLINE
5
144
100
AcDbEntity
8
0
100
AcDbPolyline
90
8
70
1
43
0.0
10
92.612293803680231
20
142.769837225575
10
84.612293803680231
20
142.769837225575
10
84.612293803680231
20
142.81983722557501
10
84.612293803680231
20
145.81983722557504
10
84.612293803680231
20
145.869837225575
10
92.612293803680231
20
145.869837225575
10
92.612293803680231
20
145.81983722557504
10
92.612293803680231
20
142.81983722557501
0
LINE
5
145
100
AcDbEntity
8
0
100
AcDbLine
10
60.466793853250124
20
166.1393690569405
30
0
11
77.809930089674125
21
166.59257003394646
31
0
0
LWPOLYLINE
5
146
100
AcDbEntity
8
0
100
AcDbPolyline
90
4
70
1
43
0.0
10
123.85049380368024
20
142.38683722557499
10
131.85049380368019
20
142.38683722557499
10
131.85049380368019
20
145.38683722557499
10
123.85049380368024
20
145.38683722557499
0
LINE
5
147
100
AcDbEntity
8
0
100
AcDbLine
10
54.728157952274771
20
185.07492853327341
30
0
11
25.495018831969688
21
185.54553460066839
31
0
0
LINE
5
148
100
AcDbEntity
8
0
100
AcDbLine
10
115.20049380368022
20
148.65533722557501
30
0
11
140.50049380368026
21
148.65533722557501
31
0
0
ARC
5
149
100
AcDbEntity
8
0
100
AcDbCircle
10
105.49237790582671
20
162.22253722557502
30
0
40
7.3656770285936615
100
AcDbArc
50
263.60883138249125
51
274.59256921541566
0
LINE
5
150
100
AcDbEntity
8
0
100
AcDbLine
10
28.358932985521449
20
150.31983722557499
30
0
11
102.61238929316431
21
150.31983722557499
31
0
0
LINE
5
151
100
AcDbEntity
8
0
100
AcDbLine
10
51.086293803680249
20
174.00013722557503
30
0
11
51.210893803680221
21
173.93763722557503
31
0
0
LINE
5
152
100
AcDbEntity
8
0
100
AcDbLine
10
140.58570315276543
20
185.54502821731302
30
0
11
66.566444297337242
21
185.05836234750572
31
0
0
LINE
5
153
100
AcDbEntity
8
0
100
AcDbLine
10
115.20049380368022
20
139.118237225575
30
0
11
115.20049380368022
21
142.32403722557501
31
0
0
ARC
5
154
100
AcDbEntity
8
0
100
AcDbCircle
10
112.10658536158574
20
146.7723913409711
30
0
40
1.8770557690133098
100
AcDbArc
50
90.18594075735308
51
269.92394696168543
0
LWPOLYLINE
5
155
100
AcDbEntity
8
0
100
AcDbPolyline
90
4
70
1
43
0.0
10
50.985493803680235
20
145.86963722557502
10
50.985493803680235
20
142.77003722557498
10
45.612293803680252
20
142.77003722557498
10
45.612293803680252
20
145.86963722557502
0
LINE
5
156
100
AcDbEntity
8
0
100
AcDbLine
10
66.631242105854284
20
194.03105268975543
30
0
11
140.58570062557354
21
193.54480116235533
31
0
0
LINE
5
157
100
AcDbEntity
8
0
100
AcDbLine
10
115.20049380368022
20
142.32403722557501
30
0
11
113.20289380368023
21
142.32403722557501
31
0
0
LINE
5
158
100
AcDbEntity
8
0
100
AcDbLine
10
47.595850150176453
20
154.18676084282913
30
0
11
58.357950150176372
21
165.22066084282903
31
0
0
LINE
5
159
100
AcDbEntity
8
0
100
AcDbLine
10
112.10189380368023
20
143.29863722557502
30
0
11
112.10409380368023
21
144.89533722557499
31
0
0
LINE
5
160
100
AcDbEntity
8
0
100
AcDbLine
10
115.20049380368022
20
147.52913722557503
30
0
11
115.20049380368022
21
148.65533722557501
31
0
0
LINE
5
161
100
AcDbEntity
8
0
100
AcDbLine
10
62.568938221260886
20
158.15123054798261
30
0
11
77.942257247173202
21
158.06691377659155
31
0
0
LWPOLYLINE
5
162
100
AcDbEntity
8
0
100
AcDbPolyline
90
4
70
1
43
0.0
10
90.521893803680214
20
176.937537225575
10
85.148593803680242
20
176.937537225575
10
85.148593803680242
20
180.03713722557504
10
90.521893803680214
20
180.03713722557504
0
CIRCLE
5
163
100
AcDbEntity
8
0
100
AcDbCircle
10
58.615528012638251
20
144.319887225575
30
0
40
1.4998342097914186
0
ARC
5
164
100
AcDbEntity
8
0
100
AcDbCircle
10
105.49237790582671
20
162.22253722557502
30
0
40
7.3656770285936286
100
AcDbArc
50
308.60883138249136
51
319.55151770059894
0
LINE
5
165
100
AcDbEntity
8
0
100
AcDbLine
10
140.50049380368026
20
139.118237225575
30
0
11
115.20049380368022
21
139.118237225575
31
0
0
ARC
5
166
100
AcDbEntity
8
0
100
AcDbCircle
10
60.55937021009926
20
189.54497749806049
30
0
40
5.9999931656824543
100
AcDbArc
50
241.06074266005069
51
298.08115945739127
0
ARC
5
167
100
AcDbEntity
8
0
100
AcDbCircle
10
105.49237790582671
20
162.22253722557502
30
0
40
7.3656770285936481
100
AcDbArc
50
218.60883138249082
51
229.59247616982375
0
LINE
5
168
100
AcDbEntity
8
0
100
AcDbLine
10
140.50049380368023
20
139.118237225575
30
0
11
140.50049380368023
21
142.32403722557501
31
0
0
LINE
5
169
100
AcDbEntity
8
0
100
AcDbLine
10
112.10409380368023
20
147.54013722557502
30
0
11
115.20049380368022
21
147.52913722557503
31
0
0
ARC
5
170
100
AcDbEntity
8
0
100
AcDbCircle
10
105.49237790582671
20
162.22253722557502
30
0
40
7.3656770285936286
100
AcDbArc
50
38.608831382491431
51
49.592476169823826
0
LINE
5
171
100
AcDbEntity
8
0
100
AcDbLine
10
28.358793770848113
20
138.31983722557504
30
0
11
102.61229380368022
21
138.31983722557504
31
0
0
LINE
5
172
100
AcDbEntity
8
0
100
AcDbLine
10
25.495011021164871
20
193.54450902403553
30
0
11
54.942062901899547
21
194.01845948223507
31
0
0
ARC
5
173
100
AcDbEntity
8
0
100
AcDbCircle
10
113.20289380368023
20
143.4332339011342
30
0
40
1.1091966755591922
100
AcDbArc
50
186.96979540691527
51
270
0
CIRCLE
5
174
100
AcDbEntity
8
0
100
AcDbCircle
10
102.6123434552957
20
144.319887225575
30
0
40
1.3249496525589066
0
LINE
5
175
100
AcDbEntity
8
0
100
AcDbLine
10
112.10049380368022
20
148.64943722557499
30
0
11
112.10409380368023
21
147.54013722557502
31
0
0
ARC
5
176
100
AcDbEntity
8
0
100
AcDbCircle
10
102.61229380368022
20
144.31983722595493
30
0
40
6.0000000003798881
100
AcDbArc
50
-90
51
89.999088142595596
0
LINE
5
177
100
AcDbEntity
8
0
100
AcDbLine
10
143.5990938036802
20
143.29863722557488
30
0
11
143.59689380368022
21
144.89533722557499
31
0
0
LINE
5
178
100
AcDbEntity
8
0
100
AcDbLine
10
92.745632159267203
20
169.4264948575547
30
0
11
92.038963946123076
21
170.18062306716604
31
0
0
ARC
5
179
100
AcDbEntity
8
0
100
AcDbCircle
10
142.49809380368023
20
143.4332339011342
30
0
40
1.1091966755592075
100
AcDbArc
50
270
51
353.03020459307726
0
LINE
5
180
100
AcDbEntity
8
0
100
AcDbLine
10
91.263267807161427
20
170.86354679643603
30
0
11
92.038963946123076
21
170.18062306716604
31
0
0
SPLINE
5
181
100
AcDbEntity
8
0
100
AcDbSpline
70
1064
71
5
72
26
73
20
74
0
42
0.000000001
43
0.0000000001
44
0.0000000001
40
0
40
0
40
0
40
0
40
0
40
0
40
0.066666666666666666
40
0.13333333333333333
40
0.20000000000000001
40
0.26666666666666666
40
0.33333333333333331
40
0.39999999999999997
40
0.46666666666666662
40
0.53333333333333333
40
0.59999999999999998
40
0.66666666666666663
40
0.73333333333333328
40
0.79999999999999993
40
0.86666666666666659
40
0.93333333333333324
40
1
40
1
40
1
40
1
40
1
40
1
10
82.485023651083395
20
155.35776247197123
30
0
10
82.523685913243256
20
155.33134481297799
30
0
10
82.596859964869665
20
155.27740193525437
30
0
10
82.694169024414833
20
155.19316498091482
30
0
10
82.798834515751878
20
155.07415511178311
30
0
10
82.88769597077183
20
154.91381724765782
30
0
10
82.936109132991461
20
154.74114901121732
30
0
10
82.948535272989133
20
154.55505281258922
30
0
10
82.934534005915523
20
154.35408111398002
30
0
10
82.907952916597822
20
154.13655265738538
30
0
10
82.884299994865117
20
153.90075704373811
30
0
10
82.878737164751769
20
153.64519066772544
30
0
10
82.90391946673374
20
153.36882801965251
30
0
10
82.967557186868788
20
153.07150601748577
30
0
10
83.073530368202668
20
152.75362251929585
30
0
10
83.223202410343319
20
152.41582670035328
30
0
10
83.377791298417705
20
152.13019864239106
30
0
10
83.513023648380027
20
151.90754857334491
30
0
10
83.611689919992088
20
151.75539612278476
30
0
10
83.663150921018072
20
151.67839012225724
30
0
0
LINE
5
182
100
AcDbEntity
8
0
100
AcDbLine
10
83.329787415025407
20
173.15654105177373
30
0
11
84.361187415025398
21
173.22214105177375
31
0
0
LINE
5
183
100
AcDbEntity
8
0
100
AcDbLine
10
131.97459380368025
20
154.54183722557502
30
0
11
142.1747429992146
21
153.2923198815281
31
0
0
ARC
5
184
100
AcDbEntity
8
0
100
AcDbCircle
10
54.627409500485058
20
178.81662947873593
30
0
40
6.2591099452368617
100
AcDbArc
50
61.060742562786814
51
89.077710660998534
0
ARC
5
185
100
AcDbEntity
8
0
100
AcDbCircle
10
28.358793770848088
20
136.31983722557504
30
0
40
1.9999999999999929
100
AcDbArc
50
89.999999999999304
51
125.68975883611454
0
LINE
5
186
100
AcDbEntity
8
0
100
AcDbLine
10
140.50049380368023
20
147.52913722557503
30
0
11
140.50049380368023
21
148.65533722557501
31
0
0
LINE
5
187
100
AcDbEntity
8
0
100
AcDbLine
10
109.77579380368022
20
172.12123722557499
30
0
11
108.80879380368023
21
172.48573722557501
31
0
0
LINE
5
188
100
AcDbEntity
8
0
100
AcDbLine
10
143.60049380368022
20
148.64943722557501
30
0
11
143.59689380368022
21
147.54013722557502
31
0
0
LINE
5
189
100
AcDbEntity
8
0
100
AcDbLine
10
140.50049380368023
20
142.32403722557501
30
0
11
142.49809380368023
21
142.32403722557501
31
0
0
ARC
5
190
100
AcDbEntity
8
0
100
AcDbCircle
10
143.59440224577472
20
146.7723913409711
30
0
40
1.8770557690133205
100
AcDbArc
50
-89.923946961685886
51
89.814059242647375
0
ARC
5
191
100
AcDbEntity
8
0
100
AcDbCircle
10
66.611528380593853
20
178.2013164696879
30
0
40
6.857194086874121
100
AcDbArc
50
90.37670602166655
51
118.08115963360866
0
SPLINE
5
192
100
AcDbEntity
8
0
100
AcDbSpline
70
1064
71
5
72
26
73
20
74
0
42
0.000000001
43
0.0000000001
44
0.0000000001
40
0
40
0
40
0
40
0
40
0
40
0
40
0.066666666666666666
40
0.13333333333333333
40
0.20000000000000001
40
0.26666666666666666
40
0.33333333333333331
40
0.39999999999999997
40
0.46666666666666662
40
0.53333333333333333
40
0.59999999999999998
40
0.66666666666666663
40
0.73333333333333328
40
0.79999999999999993
40
0.86666666666666659
40
0.93333333333333324
40
1
40
1
40
1
40
1
40
1
40
1
10
104.67246200797321
20
154.90263722557506
30
0
10
104.62668350089379
20
154.89332811372117
30
0
10
104.53853026001838
20
154.87207338667992
30
0
10
104.41651228692477
20
154.83228159277354
30
0
10
104.27438902294013
20
154.76329313198119
30
0
10
104.13100970025459
20
154.65004776322991
30
0
10
104.02020925720498
20
154.5096809840494
30
0
10
103.93744659112116
20
154.34290138260178
30
0
10
103.87334032581356
20
154.15206717343804
30
0
10
103.81447359984477
20
153.94097570551955
30
0
10
103.74589185342323
20
153.71403830428815
30
0
10
103.65304291881669
20
153.47572333456699
30
0
10
103.52387349529866
20
153.22997255668628
30
0
10
103.3512204741005
20
152.97961604484865
30
0
10
103.13166306459027
20
152.72652413825696
30
0
10
102.86419555247589
20
152.47182735516867
30
0
10
102.61219994485063
20
152.26724472270791
30
0
10
102.40219250590729
20
152.11343493786308
30
0
10
102.25291724047104
20
152.01073055037736
30
0
10
102.1759620079732
20
151.95933722557504
30
0
0
SPLINE
5
193
100
AcDbEntity
8
0
100
AcDbSpline
70
1064
71
5
72
26
73
20
74
0
42
0.000000001
43
0.0000000001
44
0.0000000001
40
0
40
0
40
0
40
0
40
0
40
0
40
0.066666666666666666
40
0.13333333333333333
40
0.20000000000000001
40
0.26666666666666666
40
0.33333333333333331
40
0.39999999999999997
40
0.46666666666666662
40
0.53333333333333333
40
0.59999999999999998
40
0.66666666666666663
40
0.73333333333333328
40
0.79999999999999993
40
0.86666666666666659
40
0.93333333333333324
40
1
40
1
40
1
40
1
40
1
40
1
10
81.173762445403938
20
155.87639851230171
30
0
10
81.127399530056081
20
155.88373758959199
30
0
10
81.036947767163795
20
155.89475681221867
30
0
10
80.908092792693395
20
155.90030846867953
30
0
10
80.750026692764322
20
155.88560001147118
30
0
10
80.575183630367007
20
155.82993968584088
30
0
10
80.421454095120595
20
155.7374968811823
30
0
10
80.284832874099294
20
155.61053013348547
30
0
10
80.157354393740235
20
155.45454097036091
30
0
10
80.027760073730576
20
155.27780584657759
30
0
10
79.883557653108227
20
155.0897209064689
30
0
10
79.712647575804155
20
154.89959686884185
30
0
10
79.505086020813422
20
154.71537384040781
30
0
10
79.255128706277148
20
154.54222781179897
30
0
10
78.960212689661489
20
154.38311441814565
30
0
10
78.619784880509997
20
154.23944491849318
30
0
10
78.31147942456775
20
154.13718426920192
30
0
10
78.060405809348467
20
154.06757064733267
30
0
10
77.884267635003752
20
154.02428617002181
30
0
10
77.794009585345506
20
154.00342509225794
30
0
0
CIRCLE
5
194
100
AcDbEntity
8
0
100
AcDbCircle
10
60.561198598446673
20
189.5449017563372
30
0
40
1.5000023540524443
0
ARC
5
195
100
AcDbEntity
8
0
100
AcDbCircle
10
60.53942857121406
20
163.09291916354522
30
0
40
3.0473156638625221
100
AcDbArc
50
91.365810901003911
51
135.71445153785629
0
LWPOLYLINE
5
196
100
AcDbEntity
8
0
100
AcDbPolyline
90
4
70
1
43
0.0
10
112.3374488013294
20
191.55017051593853
10
112.35783113567179
20
188.45057051593855
10
106.98494729906744
20
188.41523953299225
10
106.96456496472506
20
191.51483953299217
0
SPLINE
5
197
100
AcDbEntity
8
0
100
AcDbSpline
70
1064
71
5
72
26
73
20
74
0
42
0.000000001
43
0.0000000001
44
0.0000000001
40
0
40
0
40
0
40
0
40
0
40
0
40
0.066666666666666666
40
0.13333333333333333
40
0.20000000000000001
40
0.26666666666666666
40
0.33333333333333331
40
0.39999999999999997
40
0.46666666666666662
40
0.53333333333333333
40
0.59999999999999998
40
0.66666666666666663
40
0.73333333333333328
40
0.79999999999999993
40
0.86666666666666659
40
0.93333333333333324
40
1
40
1
40
1
40
1
40
1
40
1
10
99.88375961592152
20
166.99711563289995
30
0
10
99.844016555205542
20
166.97256323181051
30
0
10
99.765206769940406
20
166.92771041645312
30
0
10
99.649021382500251
20
166.87318768390693
30
0
10
99.498193203281573
20
166.82618459634119
30
0
10
99.31615274173852
20
166.81058286269038
30
0
10
99.139294418185727
20
166.83705368245765
30
0
10
98.964793055979982
20
166.90197185387842
30
0
10
98.787424420951282
20
166.99719619934962
30
0
10
98.60000777905293
20
167.11077393306039
30
0
10
98.394661792430298
20
167.22925205667693
30
0
10
98.163837495215205
20
167.33941145586189
30
0
10
97.901446983808995
20
167.43012751995599
30
0
10
97.604206054722354
20
167.49443365334611
30
0
10
97.270901478737954
20
167.52862471743239
30
0
10
96.901574049201372
20
167.53118814200826
30
0
10
96.577831241375819
20
167.50781221075542
30
0
10
96.319453085818651
20
167.47616883752693
30
0
10
96.140330732683935
20
167.44884707523994
30
0
10
96.049051977958868
20
167.43362963193235
30
0
0
LINE
5
198
100
AcDbEntity
8
0
100
AcDbLine
10
76.31164523323973
20
155.44047703113927
30
0
11
77.018313446383857
21
154.68634882152787
31
0
0
LINE
5
199
100
AcDbEntity
8
0
100
AcDbLine
10
109.77579380368022
20
172.12123722557499
30
0
11
110.70347031218401
21
171.66586315344287
31
0
0
SPLINE
5
200
100
AcDbEntity
8
0
100
AcDbSpline
70
1064
71
5
72
26
73
20
74
0
42
0.000000001
43
0.0000000001
44
0.0000000001
40
0
40
0
40
0
40
0
40
0
40
0
40
0.066666666666666666
40
0.13333333333333333
40
0.20000000000000001
40
0.26666666666666666
40
0.33333333333333331
40
0.39999999999999997
40
0.46666666666666662
40
0.53333333333333333
40
0.59999999999999998
40
0.66666666666666663
40
0.73333333333333328
40
0.79999999999999993
40
0.86666666666666659
40
0.93333333333333324
40
1
40
1
40
1
40
1
40
1
40
1
10
91.537455431303144
20
164.69779118536184
30
0
10
91.565049451610392
20
164.65981814201956
30
0
10
91.621216739124364
20
164.58806731975517
30
0
10
91.708405351107288
20
164.49302747930321
30
0
10
91.830575412013161
20
164.39165831794571
30
0
10
91.993565921098934
20
164.30738339686175
30
0
10
92.167636052466463
20
164.26404713448653
30
0
10
92.354020892997568
20
164.25722039128968
30
0
10
92.554462786169083
20
164.27738048859868
30
0
10
92.771070413152927
20
164.31071407061773
30
0
10
93.006033059052442
20
164.34174369756795
30
0
10
93.26132272968411
20
164.35533001896545
30
0
10
93.53835626509769
20
164.3388271883228
30
0
10
93.837535507943116
20
164.28451340696978
30
0
10
94.158582782673932
20
164.18848645126104
30
0
10
94.500891272499501
20
164.04935731637499
30
0
10
94.791205349784903
20
163.90366163649281
30
0
10
95.017965469966242
20
163.77535004484909
30
0
10
95.173120715066531
20
163.68140829491506
30
0
10
95.25169380368024
20
163.63233722557504
30
0
0
CIRCLE
5
201
100
AcDbEntity
8
0
100
AcDbCircle
10
50.643368846880222
20
169.97803722557501
30
0
40
1.3248515986795435
0
CIRCLE
5
202
100
AcDbEntity
8
0
100
AcDbCircle
10
105.49237790582671
20
162.22253722557502
30
0
40
1.4998908978535219
0
LINE
5
203
100
AcDbEntity
8
0
100
AcDbLine
10
101.52177243890995
20
172.25080754852075
30
0
11
102.49973688320159
21
172.58477580405011
31
0
0
ARC
5
204
100
AcDbEntity
8
0
100
AcDbCircle
10
66.678058574029151
20
201.15140584876755
30
0
40
7.1205070669682735
100
AcDbArc
50
242.20265407774579
51
269.62328450215233
0
CIRCLE
5
205
100
AcDbEntity
8
0
100
AcDbCircle
10
56.939785718708187
20
178.493587225575
30
0
40
1.4998664243469126
0
SPLINE
5
206
100
AcDbEntity
8
0
100
AcDbSpline
70
1064
71
5
72
26
73
20
74
0
42
0.000000001
43
0.0000000001
44
0.0000000001
40
0
40
0
40
0
40
0
40
0
40
0
40
0.066666666666666666
40
0.13333333333333333
40
0.20000000000000001
40
0.26666666666666666
40
0.33333333333333331
40
0.39999999999999997
40
0.46666666666666662
40
0.53333333333333333
40
0.59999999999999998
40
0.66666666666666663
40
0.73333333333333328
40
0.79999999999999993
40
0.86666666666666659
40
0.93333333333333324
40
1
40
1
40
1
40
1
40
1
40
1
10
87.883514947102981
20
168.99057337639221
30
0
10
87.929877862307464
20
168.9832342988328
30
0
10
88.020329624958848
20
168.97221507575406
30
0
10
88.149184599208596
20
168.96666341887925
30
0
10
88.307250699094453
20
168.98137187600736
30
0
10
88.482093761711781
20
169.03703220205173
30
0
10
88.635823297285015
20
169.12947500732281
30
0
10
88.772444518587875
20
169.25644175554513
30
0
10
88.899922999097441
20
169.41243091894862
30
0
10
89.029517319109587
20
169.58916604273398
30
0
10
89.173719739611869
20
169.77725098261789
30
0
10
89.344629816724449
20
169.96737501989088
30
0
10
89.552191371510247
20
170.15159804795033
30
0
10
89.802148685877484
20
170.3247440762544
30
0
10
90.097064702398114
20
170.48385746973958
30
0
10
90.43749251155802
20
170.62752696941118
30
0
10
90.745797967606649
20
170.7297876188955
30
0
10
90.996871582967614
20
170.79940124101961
30
0
10
91.173009757434841
20
170.84268571854989
30
0
10
91.263267807161427
20
170.86354679643603
30
0
0
SPLINE
5
207
100
AcDbEntity
8
0
100
AcDbSpline
70
1064
71
5
72
26
73
20
74
0
42
0.000000001
43
0.0000000001
44
0.0000000001
40
0
40
0
40
0
40
0
40
0
40
0
40
0.066666666666666666
40
0.13333333333333333
40
0.20000000000000001
40
0.26666666666666666
40
0.33333333333333331
40
0.39999999999999997
40
0.46666666666666662
40
0.53333333333333333
40
0.59999999999999998
40
0.66666666666666663
40
0.73333333333333328
40
0.79999999999999993
40
0.86666666666666659
40
0.93333333333333324
40
1
40
1
40
1
40
1
40
1
40
1
10
91.085726128298717
20
159.07860969349741
30
0
10
91.078387050808388
20
159.03224677809169
30
0
10
91.067367827845516
20
158.94179501510229
30
0
10
91.061816171076728
20
158.81294004054328
30
0
10
91.076524628224746
20
158.65487394059772
30
0
10
91.132184954162284
20
158.48003087828963
30
0
10
91.224627759276729
20
158.32630134317429
30
0
10
91.351594507366286
20
158.18968012226424
30
0
10
91.50758367070091
20
158.06220164196259
30
0
10
91.684318794487922
20
157.93260732195205
30
0
10
91.872403734429312
20
157.78840490128195
30
0
10
92.062527771788979
20
157.61749482390496
30
0
10
92.246750799936436
20
157.40993326883932
30
0
10
92.419896828308055
20
157.15997595424406
30
0
10
92.579010221826877
20
156.86505993759775
30
0
10
92.722679721489513
20
156.52463212845225
30
0
10
92.824940370929298
20
156.21632667254826
30
0
10
92.894553992998055
20
155.96525305737765
30
0
10
92.937838470481964
20
155.78911488307432
30
0
10
92.95869954834248
20
155.69885683343898
30
0
0
ARC
5
208
100
AcDbEntity
8
0
100
AcDbCircle
10
105.49237790582671
20
162.22253722557502
30
0
40
7.3656770285936579
100
AcDbArc
50
128.60883138249113
51
139.59247616982384
0
LINE
5
209
100
AcDbEntity
8
0
100
AcDbLine
10
85.39412647148886
20
173.18858176643664
30
0
11
84.361187415025398
21
173.22214105177375
31
0
0
CIRCLE
5
210
100
AcDbEntity
8
0
100
AcDbCircle
10
114.30185537993668
20
162.22258722557498
30
0
40
1.3249060078993136
0
ARC
5
211
100
AcDbEntity
8
0
100
AcDbCircle
10
47.878638696253468
20
153.91093827676136
30
0
40
0.39502841637605279
100
AcDbArc
50
135.71445153785845
51
264.32862447204104
0
SPLINE
5
212
100
AcDbEntity
8
0
100
AcDbSpline
70
1064
71
5
72
26
73
20
74
0
42
0.000000001
43
0.0000000001
44
0.0000000001
40
0
40
0
40
0
40
0
40
0
40
0
40
0.066666666666666666
40
0.13333333333333333
40
0.20000000000000001
40
0.26666666666666666
40
0.33333333333333331
40
0.39999999999999997
40
0.46666666666666662
40
0.53333333333333333
40
0.59999999999999998
40
0.66666666666666663
40
0.73333333333333328
40
0.79999999999999993
40
0.86666666666666659
40
0.93333333333333324
40
1
40
1
40
1
40
1
40
1
40
1
10
100.7177994985018
20
156.61391893566986
30
0
10
100.74235189951699
20
156.57417587491989
30
0
10
100.78720471474986
20
156.49536608959755
30
0
10
100.84172744718373
20
156.37918070210438
30
0
10
100.88873053472868
20
156.22835252287371
30
0
10
100.90433226849146
20
156.04631206138126
30
0
10
100.87786144889105
20
155.86945373790718
30
0
10
100.81294327761776
20
155.69495237577473
30
0
10
100.71771893223118
20
155.51758374079131
30
0
10
100.60414119852814
20
155.33016709890032
30
0
10
100.48566307484964
20
155.12482111224762
30
0
10
100.37550367555517
20
154.89399681497341
30
0
10
100.28478761133283
20
154.63160630349262
30
0
10
100.22048147782783
20
154.33436537433434
30
0
10
100.18629041366877
20
154.00106079830036
30
0
10
100.18372698908854
20
153.63173336875644
30
0
10
100.20710292041008
20
153.30799056097226
30
0
10
100.23874629373751
20
153.04961240547814
30
0
10
100.26606805611235
20
152.87049005240024
30
0
10
100.28128549946943
20
152.77921129770721
30
0
0
ARC
5
213
100
AcDbEntity
8
0
100
AcDbCircle
10
62.435056140592913
20
153.60741426679812
30
0
40
4.5457882494327766
100
AcDbArc
50
88.312286635846405
51
165.21637014986717
0
SPLINE
5
214
100
AcDbEntity
8
0
100
AcDbSpline
70
1064
71
5
72
26
73
20
74
0
42
0.000000001
43
0.0000000001
44
0.0000000001
40
0
40
0
40
0
40
0
40
0
40
0
40
0.066666666666666666
40
0.13333333333333333
40
0.20000000000000001
40
0.26666666666666666
40
0.33333333333333331
40
0.39999999999999997
40
0.46666666666666662
40
0.53333333333333333
40
0.59999999999999998
40
0.66666666666666663
40
0.73333333333333328
40
0.79999999999999993
40
0.86666666666666659
40
0.93333333333333324
40
1
40
1
40
1
40
1
40
1
40
1
10
88.086876688796536
20
155.98513983865465
30
0
10
88.132895142347934
20
155.99379808058498
30
0
10
88.222780385069825
20
156.00739657405893
30
0
10
88.351152802563021
20
156.01663994829136
30
0
10
88.509315166730786
20
156.00649694147967
30
0
10
88.685525695186769
20
155.95595548790803
30
0
10
88.84185385140637
20
155.86809388233374
30
0
10
88.9822303432978
20
155.74529060619395
30
0
10
89.114438403339989
20
155.59328176439502
30
0
10
89.249458581597438
20
155.42067024913206
30
0
10
89.399466117616953
20
155.23721243039353
30
0
10
89.57624532021353
20
155.05256619796609
30
0
10
89.78946979918851
20
154.87495487192811
30
0
10
90.044706866520627
20
154.70971513142885
30
0
10
90.344418798831668
20
154.55987190936236
30
0
10
90.689110629007175
20
154.42684831107931
30
0
10
91.000391016766514
20
154.33418962546008
30
0
10
91.253452102152878
20
154.27237596351631
30
0
10
91.4308077214842
20
154.23455552369751
30
0
10
91.521647609461183
20
154.2164924813332
30
0
0
LINE
5
215
100
AcDbEntity
8
0
100
AcDbLine
10
95.283734518343181
20
161.56799816911158
30
0
11
95.317293803680229
21
162.60093722557502
31
0
0
LINE
5
216
100
AcDbEntity
8
0
100
AcDbLine
10
101.52177243890995
20
172.25080754852075
30
0
11
100.58025975976005
21
171.82477571285591
31
0
0
ARC
5
217
100
AcDbEntity
8
0
100
AcDbCircle
10
13.721817035229192
20
135.92713397946488
30
0
40
4.3761912920633765
100
AcDbArc
50
43.350291245811754
51
89.788063090695715
0
ARC
5
218
100
AcDbEntity
8
0
100
AcDbCircle
10
142.14237790582669
20
153.6829831731838
30
0
40
0.39200166672765024
100
AcDbArc
50
-85.264059530598885
51
45.220983520922552
0
LINE
5
219
100
AcDbEntity
8
0
100
AcDbLine
10
143.59689380368022
20
147.54013722557502
30
0
11
140.50049380368023
21
147.52913722557503
31
0
0
SPLINE
5
220
100
AcDbEntity
8
0
100
AcDbSpline
70
1064
71
5
72
26
73
20
74
0
42
0.000000001
43
0.0000000001
44
0.0000000001
40
0
40
0
40
0
40
0
40
0
40
0
40
0.066666666666666666
40
0.13333333333333333
40
0.20000000000000001
40
0.26666666666666666
40
0.33333333333333331
40
0.39999999999999997
40
0.46666666666666662
40
0.53333333333333333
40
0.59999999999999998
40
0.66666666666666663
40
0.73333333333333328
40
0.79999999999999993
40
0.86666666666666659
40
0.93333333333333324
40
1
40
1
40
1
40
1
40
1
40
1
10
90.97698480194579
20
165.99172393689005
30
0
10
90.968326559990373
20
166.03774239045305
30
0
10
90.954728066474516
20
166.12762763319461
30
0
10
90.945484692204914
20
166.25600005070666
30
0
10
90.95562769900836
20
166.41416241487912
30
0
10
91.006169152614049
20
166.59037294331716
30
0
10
91.094030758243946
20
166.74670109950893
30
0
10
91.216834034442485
20
166.88707759137546
30
0
10
91.368842876286095
20
167.01928565140392
30
0
10
91.54145439156558
20
167.15430582966093
30
0
10
91.724912210282511
20
167.30431336569143
30
0
10
91.9095584426492
20
167.48109256830543
30
0
10
92.087169768594919
20
167.69431704729783
30
0
10
92.252409508994546
20
167.94955411464341
30
0
10
92.402252730983804
20
168.24926604696046
30
0
10
92.535276329246187
20
168.59395787713328
30
0
10
92.627935014919302
20
168.90523826488362
30
0
10
92.689748676953286
20
169.15829935025957
30
0
10
92.727569116855392
20
169.33565496958238
30
0
10
92.745632159267203
20
169.4264948575547
30
0
0
ARC
5
221
100
AcDbEntity
8
0
100
AcDbCircle
10
54.854881358459693
20
199.43515368386528
30
0
40
5.4173957484653954
100
AcDbArc
50
270.92209437064156
51
299.97562971346389
0
LINE
5
222
100
AcDbEntity
8
0
100
AcDbLine
10
77.794009585345506
20
154.00342509225794
30
0
11
77.018313446383857
21
154.68634882152787
31
0
0
ARC
5
223
100
AcDbEntity
8
0
100
AcDbCircle
10
105.49237790582671
20
162.22253722557502
30
0
40
7.3656770285936819
100
AcDbArc
50
173.60883138249099
51
184.5924761698233
0
SPLINE
5
224
100
AcDbEntity
8
0
100
AcDbSpline
70
1064
71
5
72
26
73
20
74
0
42
0.000000001
43
0.0000000001
44
0.0000000001
40
0
40
0
40
0
40
0
40
0
40
0
40
0.066666666666666666
40
0.13333333333333333
40
0.20000000000000001
40
0.26666666666666666
40
0.33333333333333331
40
0.39999999999999997
40
0.46666666666666662
40
0.53333333333333333
40
0.59999999999999998
40
0.66666666666666663
40
0.73333333333333328
40
0.79999999999999993
40
0.86666666666666659
40
0.93333333333333324
40
1
40
1
40
1
40
1
40
1
40
1
10
110.08856074205922
20
156.46681820659282
30
0
10
110.06277298534179
20
156.42786537770471
30
0
10
110.01546859247861
20
156.35050226170694
30
0
10
109.95732590351282
20
156.23608547822766
30
0
10
109.9056117882234
20
156.08680694605448
30
0
10
109.88430386512603
20
155.90534588649032
30
0
10
109.90521042200454
20
155.72774384039701
30
0
10
109.9646193668236
20
155.55129081079744
30
0
10
110.05422955533511
20
155.37102067248256
30
0
10
110.16186870263033
20
155.18013140294957
30
0
10
110.27384305994694
20
154.9711678096894
30
0
10
110.37670307975176
20
154.73699956727671
30
0
10
110.4591385459249
20
154.47189095048375
30
0
10
110.51408321103587
20
154.17277804118081
30
0
10
110.53779568130619
20
153.83856450464611
30
0
10
110.52876541221805
20
153.46933859061014
30
0
10
110.49523937599128
20
153.14648902089343
30
0
10
110.45550163372552
20
152.88923139483055
30
0
10
110.42257105014924
20
152.71105487352082
30
0
10
110.40449605189337
20
152.6202987382942
30
0
0
SPLINE
5
225
100
AcDbEntity
8
0
100
AcDbSpline
70
1064
71
5
72
26
73
20
74
0
42
0.000000001
43
0.0000000001
44
0.0000000001
40
0
40
0
40
0
40
0
40
0
40
0
40
0.066666666666666666
40
0.13333333333333333
40
0.20000000000000001
40
0.26666666666666666
40
0.33333333333333331
40
0.39999999999999997
40
0.46666666666666662
40
0.53333333333333333
40
0.59999999999999998
40
0.66666666666666663
40
0.73333333333333328
40
0.79999999999999993
40
0.86666666666666659
40
0.93333333333333324
40
1
40
1
40
1
40
1
40
1
40
1
10
99.736658886844438
20
157.62635438934257
30
0
10
99.69770605795317
20
157.65214214597256
30
0
10
99.620342941950099
20
157.6994465386891
30
0
10
99.505926158466337
20
157.75758922752169
30
0
10
99.356647626293423
20
157.809303342785
30
0
10
99.175186566735562
20
157.83061126601299
30
0
10
98.997584520649013
20
157.80970470933272
30
0
10
98.821131491050537
20
157.75029576469186
30
0
10
98.640861352730923
20
157.66068557628404
30
0
10
98.449972083191781
20
157.55304642900069
30
0
10
98.241008489930095
20
157.44107207161019
30
0
10
98.006840247524707
20
157.33821205167018
30
0
10
97.741731630749129
20
157.2557765853347
30
0
10
97.442618721468506
20
157.20083192007394
30
0
10
97.108405184953597
20
157.1771194497058
30
0
10
96.739179270925092
20
157.18614971878463
30
0
10
96.416329701197213
20
157.21967575509967
30
0
10
96.159072075113428
20
157.25941349749522
30
0
10
95.98089555378381
20
157.29234408118725
30
0
10
95.890139418545857
20
157.31041907950839
30
0
0
ARC
5
226
100
AcDbEntity
8
0
100
AcDbCircle
10
60.559369826379168
20
189.54497758442184
30
0
40
5.9999932682331938
100
AcDbArc
50
62.202650755713115
51
119.97563134689976
0
SPLINE
5
227
100
AcDbEntity
8
0
100
AcDbSpline
70
1064
71
5
72
26
73
20
74
0
42
0.000000001
43
0.0000000001
44
0.0000000001
40
0
40
0
40
0
40
0
40
0
40
0
40
0.066666666666666666
40
0.13333333333333333
40
0.20000000000000001
40
0.26666666666666666
40
0.33333333333333331
40
0.39999999999999997
40
0.46666666666666662
40
0.53333333333333333
40
0.59999999999999998
40
0.66666666666666663
40
0.73333333333333328
40
0.79999999999999993
40
0.86666666666666659
40
0.93333333333333324
40
1
40
1
40
1
40
1
40
1
40
1
10
86.792943937268348
20
155.42466920929729
30
0
10
86.754970893998774
20
155.39707518879104
30
0
10
86.683220071856738
20
155.34090790094265
30
0
10
86.588180231517413
20
155.25371928865334
30
0
10
86.486811070182682
20
155.13154922768777
30
0
10
86.402536148987096
20
154.96855871890767
30
0
10
86.359199886445168
20
154.79448858799378
30
0
10
86.352373143103804
20
154.60810374785271
30
0
10
86.37253324033496
20
154.4076618548884
30
0
10
86.40586682235184
20
154.19105422790707
30
0
10
86.436896449363601
20
153.95609158184104
30
0
10
86.450482770860447
20
153.70080191094556
30
0
10
86.433979940325116
20
153.42376837525154
30
0
10
86.379666159061358
20
153.12458913217648
30
0
10
86.283639203403553
20
152.80354185731866
30
0
10
86.144510068513966
20
152.46123336750711
30
0
10
85.998814388575937
20
152.17091929036701
30
0
10
85.870502796857153
20
151.94415917037722
30
0
10
85.77656104685795
20
151.78900392544196
30
0
10
85.727489977481525
20
151.71043083692018
30
0
0
LINE
5
228
100
AcDbEntity
8
0
100
AcDbLine
10
9.2389964152056194
20
140.3199372255759
30
0
11
13.73800451622348
21
140.30329533277336
31
0
0
SPLINE
5
229
100
AcDbEntity
8
0
100
AcDbSpline
70
1064
71
5
72
26
73
20
74
0
42
0.000000001
43
0.0000000001
44
0.0000000001
40
0
40
0
40
0
40
0
40
0
40
0
40
0.066666666666666666
40
0.13333333333333333
40
0.20000000000000001
40
0.26666666666666666
40
0.33333333333333331
40
0.39999999999999997
40
0.46666666666666662
40
0.53333333333333333
40
0.59999999999999998
40
0.66666666666666663
40
0.73333333333333328
40
0.79999999999999993
40
0.86666666666666659
40
0.93333333333333324
40
1
40
1
40
1
40
1
40
1
40
1
10
106.08213316257924
20
154.88050843056988
30
0
10
106.12759691955495
20
154.86976701207104
30
0
10
106.21503958292286
20
154.84575580826964
30
0
10
106.33574845206803
20
154.80215372674766
30
0
10
106.47563628232211
20
154.7287383003638
30
0
10
106.61539041889048
20
154.61104834731972
30
0
10
106.72173044277288
20
154.4672729314145
30
0
10
106.7992174602189
20
154.29797775576918
30
0
10
106.85730224448585
20
154.10522541082659
30
0
10
106.90951423719522
20
153.89239024673881
30
0
10
106.97093909213785
20
153.66341202242177
30
0
10
107.05626205967431
20
153.42230013832958
30
0
10
107.17765422538258
20
153.17261608420574
30
0
10
107.3423639988566
20
152.91696370451845
30
0
10
107.55386919136993
20
152.65710504531214
30
0
10
107.81321050635846
20
152.39413850050752
30
0
10
108.05866052071656
20
152.1817470452952
30
0
10
108.26373671053135
20
152.02142134325814
30
0
10
108.4097147445908
20
151.91408211615058
30
0
10
108.48501892845184
20
151.86029864710005
30
0
0
SPLINE
5
230
100
AcDbEntity
8
0
100
AcDbSpline
70
1064
71
5
72
26
73
20
74
0
42
0.000000001
43
0.0000000001
44
0.0000000001
40
0
40
0
40
0
40
0
40
0
40
0
40
0.066666666666666666
40
0.13333333333333333
40
0.20000000000000001
40
0.26666666666666666
40
0.33333333333333331
40
0.39999999999999997
40
0.46666666666666662
40
0.53333333333333333
40
0.59999999999999998
40
0.66666666666666663
40
0.73333333333333328
40
0.79999999999999993
40
0.86666666666666659
40
0.93333333333333324
40
1
40
1
40
1
40
1
40
1
40
1
10
91.604362168629194
20
160.38987089917691
30
0
10
91.630779827597024
20
160.4285331613163
30
0
10
91.684722705278148
20
160.50170721290837
30
0
10
91.768959659580048
20
160.59901627242257
30
0
10
91.887969528704247
20
160.70368176375325
30
0
10
92.048307392865709
20
160.79254321880325
30
0
10
92.2209756293624
20
160.84095638106913
30
0
10
92.40707182804519
20
160.85338252110967
30
0
10
92.60804352669183
20
160.83938125406266
30
0
10
92.825571983297039
20
160.81280016474992
30
0
10
93.061367596923375
20
160.78914724299995
30
0
10
93.316933972885835
20
160.78358441285158
30
0
10
93.593296620887244
20
160.80876671478802
30
0
10
93.890618622978934
20
160.87240443487849
30
0
10
94.208502121112474
20
160.97837761618115
30
0
10
94.54629794004147
20
161.12804965831646
30
0
10
94.831925998044952
20
161.28263854641619
30
0
10
95.05457606715845
20
161.41787089641778
30
0
10
95.206728517780434
20
161.51653716806544
30
0
10
95.283734518343181
20
161.56799816911158
30
0
0
SPLINE
5
231
100
AcDbEntity
8
0
100
AcDbSpline
70
1064
71
5
72
26
73
20
74
0
42
0.000000001
43
0.0000000001
44
0.0000000001
40
0
40
0
40
0
40
0
40
0
40
0
40
0.066666666666666666
40
0.13333333333333333
40
0.20000000000000001
40
0.26666666666666666
40
0.33333333333333331
40
0.39999999999999997
40
0.46666666666666662
40
0.53333333333333333
40
0.59999999999999998
40
0.66666666666666663
40
0.73333333333333328
40
0.79999999999999993
40
0.86666666666666659
40
0.93333333333333324
40
1
40
1
40
1
40
1
40
1
40
1
10
98.150349110821537
20
161.63278196882254
30
0
10
98.139607692344001
20
161.58731821176912
30
0
10
98.115596488578106
20
161.49987554827078
30
0
10
98.071994407087459
20
161.37916667900743
30
0
10
97.998578980707464
20
161.23927884873029
30
0
10
97.880889027629564
20
161.09952471227803
30
0
10
97.737113611678268
20
160.99318468857118
30
0
10
97.567818435997239
20
160.91569767128419
30
0
10
97.375066091039145
20
160.85761288711115
30
0
10
97.162230926955289
20
160.80540089441368
30
0
10
96.933252702654386
20
160.74397603940525
30
0
10
96.692140818581038
20
160.65865307174633
30
0
10
96.442456764470791
20
160.53726090588918
30
0
10
96.186804384788317
20
160.37255113227675
30
0
10
95.926945725579031
20
160.16104593967151
30
0
10
95.663979180767257
20
159.90170462467279
30
0
10
95.451587725549473
20
159.65625461039582
30
0
10
95.2912620235102
20
159.45117842070161
30
0
10
95.183922796402172
20
159.3052003867501
30
0
10
95.130139327351657
20
159.22989620294996
30
0
0
ARC
5
232
100
AcDbEntity
8
0
100
AcDbCircle
10
22.612342692356254
20
144.319887225575
30
0
40
7.8500000000000005
100
AcDbArc
50
223.35029124581152
51
305.68975883611478
0
SPLINE
5
233
100
AcDbEntity
8
0
100
AcDbSpline
70
1064
71
5
72
26
73
20
74
0
42
0.000000001
43
0.0000000001
44
0.0000000001
40
0
40
0
40
0
40
0
40
0
40
0
40
0.066666666666666666
40
0.13333333333333333
40
0.20000000000000001
40
0.26666666666666666
40
0.33333333333333331
40
0.39999999999999997
40
0.46666666666666662
40
0.53333333333333333
40
0.59999999999999998
40
0.66666666666666663
40
0.73333333333333328
40
0.79999999999999993
40
0.86666666666666659
40
0.93333333333333324
40
1
40
1
40
1
40
1
40
1
40
1
10
98.172477905826725
20
163.04245312342857
30
0
10
98.163168793985719
20
163.08823163044437
30
0
10
98.141914066965953
20
163.176384871213
30
0
10
98.102122273078564
20
163.29840284420982
30
0
10
98.03313381228881
20
163.44052610817556
30
0
10
97.919888443517763
20
163.58390543095535
30
0
10
97.7795216643092
20
163.69470587414884
30
0
10
97.612742062838294
20
163.77746854036423
30
0
10
97.421907853663683
20
163.84157480575138
30
0
10
97.210816385746625
20
163.90044153173227
30
0
10
96.983878984525802
20
163.96902327809983
30
0
10
96.745564014818143
20
164.06187221260208
30
0
10
96.499813236948611
20
164.1910416359899
30
0
10
96.249456725116829
20
164.36369465706485
30
0
10
95.996364818525308
20
164.58325206649249
30
0
10
95.741668035432866
20
164.85071957859662
30
0
10
95.53708540296698
20
165.10271518629338
30
0
10
95.383275618118375
20
165.31272262534375
30
0
10
95.280571230630287
20
165.46199789087626
30
0
10
95.229177905826702
20
165.53895312342857
30
0
0
LINE
5
234
100
AcDbEntity
8
0
100
AcDbLine
10
76.09857784416441
20
169.16811505525493
30
0
11
76.781501573434383
21
169.94381119421661
31
0
0
ARC
5
235
100
AcDbEntity
8
0
100
AcDbCircle
10
84.528638696253466
20
162.43348594434696
30
0
40
7.3654999999999928
100
AcDbArc
50
242.90384271495412
51
253.90364220125653
0
LINE
5
236
100
AcDbEntity
8
0
100
AcDbLine
10
95.593677905826723
20
166.50595312342855
30
0
11
96.049051977958868
21
167.43362963193235
31
0
0
ARC
5
237
100
AcDbEntity
8
0
100
AcDbCircle
10
22.612342692356254
20
144.319887225575
30
0
40
7.8499999999999872
100
AcDbArc
50
54.309244112231674
51
134.64052651822504
0
ARC
5
238
100
AcDbEntity
8
0
100
AcDbCircle
10
84.528638696253466
20
162.43348594434696
30
0
40
7.3655000000000124
100
AcDbArc
50
107.9038427149541
51
118.90361356260259
0
LINE
5
239
100
AcDbEntity
8
0
100
AcDbLine
10
101.20896200797321
20
152.32383722557506
30
0
11
102.1759620079732
21
151.95933722557504
31
0
0
LINE
5
240
100
AcDbEntity
8
0
100
AcDbLine
10
127.44643788993119
20
157.92573722557501
30
0
11
111.09758160713992
21
157.44395066087475
31
0
0
ARC
5
241
100
AcDbEntity
8
0
100
AcDbCircle
10
84.528638696253466
20
162.43348594434696
30
0
40
7.3654999999999848
100
AcDbArc
50
62.903842714954266
51
73.903570111232554
0
LINE
5
242
100
AcDbEntity
8
0
100
AcDbLine
10
109.46298337274348
20
152.19426690262935
30
0
11
108.48501892845184
21
151.86029864710005
31
0
0
ARC
5
243
100
AcDbEntity
8
0
100
AcDbCircle
10
127.57928781326363
20
153.38189064954398
30
0
40
4.5457882494280604
100
AcDbArc
50
14.783629850156702
51
91.674698299711565
0
ARC
5
244
100
AcDbEntity
8
0
100
AcDbCircle
10
84.528638696253466
20
162.43348594434696
30
0
40
7.3655000000000008
100
AcDbArc
50
332.90384271495407
51
343.90357321962381
0
LINE
5
245
100
AcDbEntity
8
0
100
AcDbLine
10
142.41849380368021
20
153.96123722557499
30
0
11
131.65639380368023
21
164.99513722557504
31
0
0
SPLINE
5
246
100
AcDbEntity
8
0
100
AcDbSpline
70
1064
71
5
72
26
73
20
74
0
42
0.000000001
43
0.0000000001
44
0.0000000001
40
0
40
0
40
0
40
0
40
0
40
0
40
0.066666666666666666
40
0.13333333333333333
40
0.20000000000000001
40
0.26666666666666666
40
0.33333333333333331
40
0.39999999999999997
40
0.46666666666666662
40
0.53333333333333333
40
0.59999999999999998
40
0.66666666666666663
40
0.73333333333333328
40
0.79999999999999993
40
0.86666666666666659
40
0.93333333333333324
40
1
40
1
40
1
40
1
40
1
40
1
10
82.264333455238585
20
169.44230267939668
30
0
10
82.302306498370854
20
169.46989669964711
30
0
10
82.374057320282304
20
169.52606398706558
30
0
10
82.469097160411053
20
169.61325259896063
30
0
10
82.570466321705979
20
169.73542265984918
30
0
10
82.654741243113037
20
169.89841316902221
30
0
10
82.698077505966467
20
170.07248330051951
30
0
10
82.704904249573673
20
170.25886814116288
30
0
10
82.684744152481841
20
170.459310034395
30
0
10
82.651410570464378
20
170.67591766138048
30
0
10
82.620380943338532
20
170.91088030723211
30
0
10
82.606794621664875
20
171.16616997778652
30
0
10
82.623297452016345
20
171.44320351311683
30
0
10
82.677611233133277
20
171.74238275589289
30
0
10
82.773638188713079
20
172.06343003058404
30
0
10
82.912767323615753
20
172.40573852041248
30
0
10
83.058463003648114
20
172.69605259774136
30
0
10
83.186774595488373
20
172.92281271798103
30
0
10
83.280716345591344
20
173.07796796313187
30
0
10
83.329787415025407
20
173.15654105177373
30
0
0
ARC
5
247
100
AcDbEntity
8
0
100
AcDbCircle
10
84.528638696253466
20
162.43348594434696
30
0
40
7.3654999999999946
100
AcDbArc
50
287.90384271495424
51
298.90357138219025
0
LINE
5
248
100
AcDbEntity
8
0
100
AcDbLine
10
101.20896200797321
20
152.32383722557506
30
0
11
100.28128549946943
21
152.77921129770721
31
0
0
LINE
5
249
100
AcDbEntity
8
0
100
AcDbLine
10
109.46298337274348
20
152.19426690262935
30
0
11
110.40449605189337
21
152.6202987382942
31
0
0
LINE
5
250
100
AcDbEntity
8
0
100
AcDbLine
10
95.25169380368024
20
163.63233722557504
30
0
11
95.317293803680229
21
162.60093722557502
31
0
0
CIRCLE
5
251
100
AcDbEntity
8
0
100
AcDbCircle
10
84.528638696253466
20
162.43348594434696
30
0
40
1.5000500008332895
0
LINE
5
252
100
AcDbEntity
8
0
100
AcDbLine
10
77.535629783045721
20
170.65047940736071
30
0
11
76.781501573434383
21
169.94381119421661
31
0
0
LINE
5
253
100
AcDbEntity
8
0
100
AcDbLine
10
129.54789380368024
20
165.91383722557504
30
0
11
111.24809692480893
21
166.81872006180754
31
0
0
LINE
5
254
100
AcDbEntity
8
0
100
AcDbLine
10
125.55370140075684
20
123.725237225575
30
0
11
125.53336058446436
21
126.537737225575
31
0
0
LWPOLYLINE
5
255
100
AcDbEntity
8
0
100
AcDbPolyline
90
12
70
1
43
0.0
10
128.31046058446438
20
63.308737225575022
42
-0.41362793037965123
10
125.30984295914644
20
60.308737288440128
10
96.049163598666894
20
60.282490280273521
42
-0.30783659958910525
10
92.944980198743053
20
60.251461233541917
10
80.453399118733671
20
60.841135237827558
42
-0.37386907827232491
10
77.624560584464376
20
63.544537225575006
10
77.610460584464377
20
80.780437225575014
42
-0.40196731995272234
10
80.453399118733671
20
83.776239213322498
10
92.944980198743082
20
84.365913217608124
42
-0.30783659958910525
10
96.049163598666865
20
84.334884170876521
10
125.30984295914644
20
84.308637162709914
42
-0.41362793037965301
10
128.31046058446435
20
81.308637225575012
0
LINE
5
256
100
AcDbEntity
8
0
100
AcDbLine
10
118.96096058446437
20
88.374737225575032
30
0
11
125.00006058446438
21
88.374737225575032
31
0
0
ARC
5
257
100
AcDbEntity
8
0
100
AcDbCircle
10
-15.34376909177535
20
98.096382214973573
30
0
40
150.30483281624333
100
AcDbArc
50
0.011711600047083225
51
5.6936102106248248
0
LWPOLYLINE
5
258
100
AcDbEntity
8
0
100
AcDbPolyline
90
4
70
1
43
0.0
10
57.223760584464387
20
101.15213722557502
10
57.223760584464387
20
96.152137225575018
42
0.99999999999999989
10
59.023760584464384
20
96.152137225575018
10
59.023760584464384
20
101.15213722557502
42
0.99999999999999989
0
LINE
5
259
100
AcDbEntity
8
0
100
AcDbLine
10
118.96096058446437
20
92.074737225575007
30
0
11
118.96096058446437
21
88.374737225575032
31
0
0
LINE
5
260
100
AcDbEntity
8
0
100
AcDbLine
10
73.125779334464355
20
107.34819347557502
30
0
11
72.800449256339377
21
107.34822511620003
31
0
0
LINE
5
261
100
AcDbEntity
8
0
100
AcDbLine
10
128.71406058699259
20
129.16903722560093
30
0
11
125.41426058446439
21
129.125137225575
31
0
0
ARC
5
262
100
AcDbEntity
8
0
100
AcDbCircle
10
106.54207810288446
20
116.5660134729729
30
0
40
2.2859296765857664
100
AcDbArc
50
272.90233876183265
51
330.37222758263567
0
LINE
5
263
100
AcDbEntity
8
0
100
AcDbLine
10
125.53295095122108
20
126.72524716765216
30
0
11
125.54469379817056
21
126.72540793418739
31
0
0
LINE
5
264
100
AcDbEntity
8
0
100
AcDbLine
10
125.53336058446436
20
126.537737225575
30
0
11
125.5321980844644
21
126.71351847557501
31
0
0
ARC
5
265
100
AcDbEntity
8
0
100
AcDbCircle
10
125.8609961262776
20
112.17458722557502
30
0
40
8.3999999999999968
100
AcDbArc
50
5.6936102106248248
51
173.21753500267144
0
LWPOLYLINE
5
266
100
AcDbEntity
8
0
100
AcDbPolyline
90
4
70
1
43
0.0
10
59.037060584464378
20
120.88943722557502
10
59.037060584464378
20
125.88943722557502
42
0.99999999999999989
10
57.237160584464363
20
125.88943722557502
10
57.237160584464363
20
120.88943722557502
42
0.99999999999999989
0
LINE
5
267
100
AcDbEntity
8
0
100
AcDbLine
10
125.39226058446438
20
132.125037225575
30
0
11
107.98946058446435
21
132.03713722557504
31
0
0
CIRCLE
5
268
100
AcDbEntity
8
0
100
AcDbCircle
10
58.123740062864385
20
110.95210348797501
30
0
40
3.5500143011432344
0
LINE
5
269
100
AcDbEntity
8
0
100
AcDbLine
10
125.53215982457671
20
126.72523436455207
30
0
11
125.53216019917994
21
126.72523651031925
31
0
0
LINE
5
270
100
AcDbEntity
8
0
100
AcDbLine
10
103.96096058446435
20
92.074737225575007
30
0
11
118.96096058446437
21
92.074737225575007
31
0
0
LINE
5
271
100
AcDbEntity
8
0
100
AcDbLine
10
67.678860584464388
20
133.848437225575
30
0
11
48.678860584464367
21
133.848437225575
31
0
0
LINE
5
272
100
AcDbEntity
8
0
100
AcDbLine
10
67.678860584464388
20
136.84843722557503
30
0
11
67.678860584464388
21
133.848437225575
31
0
0
LINE
5
273
100
AcDbEntity
8
0
100
AcDbLine
10
72.800449256339377
20
107.34822511620003
30
0
11
72.780116126456548
21
107.34823412498909
31
0
0
LINE
5
274
100
AcDbEntity
8
0
100
AcDbLine
10
72.778760584464365
20
110.34823722557499
30
0
11
78.331060584464382
21
110.34823722557499
31
0
0
LINE
5
275
100
AcDbEntity
8
0
100
AcDbLine
10
79.509460584464364
20
110.34823722557499
30
0
11
82.004460584464368
21
110.34823722557499
31
0
0
LINE
5
276
100
AcDbEntity
8
0
100
AcDbLine
10
125.41426058446439
20
129.125137225575
30
0
11
125.39226058446438
21
132.125037225575
31
0
0
LINE
5
277
100
AcDbEntity
8
0
100
AcDbLine
10
125.53222451929257
20
126.72523733102696
30
0
11
125.53232451056083
21
126.72523865249161
31
0
0
ARC
5
278
100
AcDbEntity
8
0
100
AcDbCircle
10
110.8275042881034
20
122.26692517577382
30
0
40
1.3792198861873337
100
AcDbArc
50
-28.942222190628826
51
93.054227174603326
0
LINE
5
279
100
AcDbEntity
8
0
100
AcDbLine
10
79.509460584464364
20
110.34823722557499
30
0
11
79.509460584464364
21
107.34823722557501
31
0
0
CIRCLE
5
280
100
AcDbEntity
8
0
100
AcDbCircle
10
125.31037266741528
20
63.258687225575017
30
0
40
1.4999879178824105
0
CIRCLE
5
281
100
AcDbEntity
8
0
100
AcDbCircle
10
125.8609961262776
20
112.17458722557502
30
0
40
1.4998644590201724
0
LINE
5
282
100
AcDbEntity
8
0
100
AcDbLine
10
125.53216039048699
20
126.72523704676109
30
0
11
125.53216058446436
21
126.725237225575
31
0
0
LINE
5
283
100
AcDbEntity
8
0
100
AcDbLine
10
72.778765879550278
20
107.34823703035788
30
0
11
72.778760584464365
21
107.34823722557501
31
0
0
LINE
5
284
100
AcDbEntity
8
0
100
AcDbLine
10
138.16096058446436
20
88.374537225575011
30
0
11
138.16096058446436
21
97.174537225575023
31
0
0
LINE
5
285
100
AcDbEntity
8
0
100
AcDbLine
10
134.96106058446435
20
97.174537225575023
30
0
11
134.96106058446435
21
98.127105421715896
31
0
0
LINE
5
286
100
AcDbEntity
8
0
100
AcDbLine
10
137.96106058446438
20
97.174537225575023
30
0
11
134.96106058446435
21
97.174537225575023
31
0
0
LINE
5
287
100
AcDbEntity
8
0
100
AcDbLine
10
78.331027507781982
20
107.34813722557503
30
0
11
73.125779334464355
21
107.34819347557502
31
0
0
LINE
5
288
100
AcDbEntity
8
0
100
AcDbLine
10
80.67886058446436
20
133.848437225575
30
0
11
80.67886058446436
21
136.84843722557503
31
0
0
LINE
5
289
100
AcDbEntity
8
0
100
AcDbLine
10
125.54469379817056
20
126.72540793418739
30
0
11
125.73224184511439
21
126.72798019869754
31
0
0
LINE
5
290
100
AcDbEntity
8
0
100
AcDbLine
10
125.53216019917994
20
126.72523651031925
30
0
11
125.53216039048699
21
126.72523704676109
31
0
0
LINE
5
291
100
AcDbEntity
8
0
100
AcDbLine
10
81.978860584464371
20
107.34823722557501
30
0
11
79.509460584464364
21
107.34823722557501
31
0
0
LINE
5
292
100
AcDbEntity
8
0
100
AcDbLine
10
121.48148673486435
20
123.30378016317503
30
0
11
125.55376058446438
21
123.725237225575
31
0
0
LINE
5
293
100
AcDbEntity
8
0
100
AcDbLine
10
125.00006058446438
20
88.374737225575032
30
0
11
125.00006058446438
21
85.97453722557502
31
0
0
CIRCLE
5
294
100
AcDbEntity
8
0
100
AcDbCircle
10
116.72313093006437
20
127.88122548477502
30
0
40
1.3250045258581291
0
LINE
5
295
100
AcDbEntity
8
0
100
AcDbLine
10
134.00036058446435
20
88.374537225575011
30
0
11
138.16096058446436
21
88.374537225575011
31
0
0
LINE
5
296
100
AcDbEntity
8
0
100
AcDbLine
10
128.73166059277236
20
126.76913643119178
30
0
11
128.71406058699259
21
129.16903722560093
31
0
0
LINE
5
297
100
AcDbEntity
8
0
100
AcDbLine
10
72.780116126456548
20
107.34823412498909
30
0
11
72.778845305838885
21
107.34823644585089
31
0
0
LINE
5
298
100
AcDbEntity
8
0
100
AcDbLine
10
125.00006058446438
20
85.97453722557502
30
0
11
134.00036058446435
21
85.97453722557502
31
0
0
CIRCLE
5
299
100
AcDbEntity
8
0
100
AcDbCircle
10
125.31038315783277
20
81.358587225575008
30
0
40
1.5000225742017252
0
LINE
5
300
100
AcDbEntity
8
0
100
AcDbLine
10
125.73224184511439
20
126.72798019869754
30
0
11
128.73166059277236
21
126.76913643119178
31
0
0
LINE
5
301
100
AcDbEntity
8
0
100
AcDbLine
10
72.778845305838885
20
107.34823644585089
30
0
11
72.778765879550278
21
107.34823703035788
31
0
0
CIRCLE
5
302
100
AcDbEntity
8
0
100
AcDbCircle
10
110.01025619631545
20
80.808487225575021
30
0
40
1.3249956127944733
0
LINE
5
303
100
AcDbEntity
8
0
100
AcDbLine
10
134.00036058446435
20
85.97453722557502
30
0
11
134.00036058446435
21
88.374537225575011
31
0
0
LINE
5
304
100
AcDbEntity
8
0
100
AcDbLine
10
80.67886058446436
20
136.84843722557503
30
0
11
67.678860584464388
21
136.84843722557503
31
0
0
LINE
5
305
100
AcDbEntity
8
0
100
AcDbLine
10
138.16096058446436
20
97.174537225575023
30
0
11
137.96106058446438
21
97.174537225575023
31
0
0
ARC
5
306
100
AcDbEntity
8
0
100
AcDbCircle
10
122.14133848872662
20
117.26671723709279
30
0
40
6.0730168047315525
100
AcDbArc
50
96.237675206775194
51
150.419499430543
0
CIRCLE
5
307
100
AcDbEntity
8
0
100
AcDbCircle
10
110.01024055480957
20
63.808587225575017
30
0
40
1.3250112543003216
0
LWPOLYLINE
5
308
100
AcDbEntity
8
0
100
AcDbPolyline
90
12
70
1
43
0.0
10
93.400863046045771
20
126.60574318939589
10
93.387360584464375
20
132.60683722557502
10
95.787360584464366
20
132.61223722557503
10
95.800760584464371
20
126.61223722557502
10
98.800375295339251
20
126.61893636509596
10
98.827375745346757
20
114.61893636509598
10
95.827560585479119
20
114.61223677790562
10
95.841160584464376
20
108.61223722557503
10
93.44116058446437
20
108.60683722557502
10
93.427763028312967
20
114.60574296501795
10
90.427763271594173
20
114.5990429655613
10
90.400762821586667
20
126.59904296556128
0
CIRCLE
5
309
100
AcDbEntity
8
0
100
AcDbCircle
10
94.614199998981761
20
120.60843801194279
30
0
40
1.3250019766202188
0
LINE
5
310
100
AcDbEntity
8
0
100
AcDbLine
10
125.53215355321439
20
126.72450480370003
30
0
11
125.53215780126122
21
126.72519144920784
31
0
0
SPLINE
5
311
100
AcDbEntity
8
0
100
AcDbSpline
70
1064
71
5
72
21
73
15
74
0
42
0.000000001
43
0.0000000001
44
0.0000000001
40
0
40
0
40
0
40
0
40
0
40
0
40
0.10000000000000001
40
0.20000000000000001
40
0.30000000000000004
40
0.40000000000000002
40
0.5
40
0.59999999999999998
40
0.69999999999999996
40
0.79999999999999993
40
0.89999999999999991
40
1
40
1
40
1
40
1
40
1
40
1
10
97.355205360799772
20
102.32072624403571
30
0
10
98.015783856857979
20
102.30058736926398
30
0
10
99.315381792570605
20
102.28017352226573
30
0
10
101.20010582488241
20
102.30914049939157
30
0
10
103.58156035390058
20
102.46893349697608
30
0
10
106.32351004544901
20
102.88507588440582
30
0
10
108.80683208350686
20
103.53951044968537
30
0
10
111.00557066670567
20
104.45615213131217
30
0
10
112.89816235643653
20
105.65486886943263
30
0
10
114.48371196328692
20
107.13648546613396
30
0
10
115.77992242123265
20
108.88469094059738
30
0
10
116.60170031903587
20
110.4815257088442
30
0
10
117.10427208035462
20
111.78396855083744
30
0
10
117.38956996350825
20
112.69810197752464
30
0
10
117.51978185994753
20
113.16662783118147
30
0
0
LINE
5
312
100
AcDbEntity
8
0
100
AcDbLine
10
125.53215780126122
20
126.72519144920784
30
0
11
125.53215982457671
21
126.72523436455207
31
0
0
LINE
5
313
100
AcDbEntity
8
0
100
AcDbLine
10
125.5321980844644
20
126.71351847557501
30
0
11
125.53215355321439
21
126.72450480370003
31
0
0
LINE
5
314
100
AcDbEntity
8
0
100
AcDbLine
10
110.14391456793177
20
108.59272526269538
30
0
11
116.85986058446434
21
120.26463722557502
31
0
0
LWPOLYLINE
5
315
100
AcDbEntity
8
0
100
AcDbPolyline
90
8
70
1
43
0.0
10
68.356860584464371
20
77.953037225575031
10
68.356860584464371
20
74.25293722557501
10
70.357060584464378
20
74.25293722557501
10
70.357060584464378
20
69.25293722557501
10
68.356860584464371
20
69.25293722557501
10
68.356860584464371
20
65.553037225575011
10
45.356860584464364
20
65.553037225575011
10
45.356860584464364
20
77.953037225575031
0
LINE
5
316
100
AcDbEntity
8
0
100
AcDbLine
10
81.978860584464371
20
133.848437225575
30
0
11
80.67886058446436
21
133.848437225575
31
0
0
LWPOLYLINE
5
317
100
AcDbEntity
8
0
100
AcDbPolyline
90
44
70
1
43
0.0
10
23.337660584464388
20
103.17183722557502
10
23.337660584464388
20
101.92183722557502
10
20.837660584464388
20
101.92183722557502
10
20.837660584464388
20
98.921837225575018
10
23.337660584464388
20
98.921837225575018
10
23.337660584464388
20
97.671837225575018
10
25.837660584464381
20
97.671837225575018
10
25.837660584464381
20
98.921837225575018
10
29.837660584464373
20
98.921837225575018
10
29.837660584464373
20
92.791837225575023
10
29.793760584464366
20
92.791637225575016
10
32.793760584464366
20
92.791637225575016
10
32.837660584464381
20
92.791837225575023
10
32.837660584464381
20
87.418737225575015
10
29.814157962799079
20
87.418737225575015
10
29.814157962799072
20
83.590756850766738
42
-0.3613595401763538
10
28.833433214328071
20
82.410960951440572
10
25.883085332935405
20
81.862613331178608
42
0.36135954017635219
10
24.902360584464368
20
80.682817431852413
10
24.902360584464368
20
74.418737225575015
10
7.5375605844643703
20
74.418737225575015
10
7.5375605844643703
20
81.918737225575015
10
10.537560584464378
20
81.918737225575015
10
10.537560584464378
20
110.91873722557501
10
14.537560584464364
20
110.91873722557501
10
14.537560584464364
20
109.668737225575
10
17.037560584464366
20
109.668737225575
10
17.037560584464366
20
110.91873722557501
10
19.537560584464366
20
110.91873722557501
10
19.537560584464366
20
113.91873722557504
10
17.037560584464366
20
113.91873722557504
10
17.037560584464366
20
115.16873722557503
10
14.537560584464364
20
115.16873722557503
10
14.537560584464364
20
113.91873722557504
10
10.537560584464378
20
113.91873722557504
10
10.537560584464378
20
129.41873722557503
10
7.5375605844643703
20
129.41873722557503
10
7.5375605844643712
20
134.418737225575
10
32.837660584464381
20
134.418737225575
10
32.837660584464381
20
126.418737225575
10
29.837660584464373
20
126.418737225575
10
29.837660584464373
20
101.92183722557502
10
25.837660584464381
20
101.92183722557502
10
25.837660584464381
20
103.17183722557502
0
LINE
5
318
100
AcDbEntity
8
0
100
AcDbLine
10
108.01456058446436
20
129.03493722557502
30
0
11
104.71476058446439
21
128.99323722557497
31
0
0
LINE
5
319
100
AcDbEntity
8
0
100
AcDbLine
10
82.004460584464368
20
117.36133722557503
30
0
11
82.004460584464368
21
133.84833722557502
31
0
0
LINE
5
320
100
AcDbEntity
8
0
100
AcDbLine
10
70.678860584464388
20
85.148437225575009
30
0
11
80.67886058446436
21
85.148437225575009
31
0
0
LINE
5
321
100
AcDbEntity
8
0
100
AcDbLine
10
125.53212451934814
20
126.725237225575
30
0
11
125.53222451929257
21
126.72523733102696
31
0
0
LINE
5
322
100
AcDbEntity
8
0
100
AcDbLine
10
70.678860584464388
20
88.148437225575009
30
0
11
70.678860584464388
21
85.148437225575009
31
0
0
LINE
5
323
100
AcDbEntity
8
0
100
AcDbLine
10
125.53232451056083
20
126.72523865249161
30
0
11
125.53295095122108
21
126.72524716765216
31
0
0
CIRCLE
5
324
100
AcDbEntity
8
0
100
AcDbCircle
10
62.625019197329337
20
71.68418075600303
30
0
40
1.4999955892562866
0
LINE
5
325
100
AcDbEntity
8
0
100
AcDbLine
10
104.73236058446531
20
126.59333722544913
30
0
11
110.73216813476716
21
126.63733728081256
31
0
0
LINE
5
326
100
AcDbEntity
8
0
100
AcDbLine
10
104.71476058446439
20
128.99323722557497
30
0
11
104.73236058446531
21
126.59333722544913
31
0
0
LWPOLYLINE
5
327
100
AcDbEntity
8
0
100
AcDbPolyline
90
8
70
1
43
0.0
10
72.556860584464374
20
63.353037225575015
10
72.556860584464374
20
80.153037225575048
42
0.41421356237309176
10
68.55686058446436
20
84.153037225575034
10
45.156860584464368
20
84.153037225575034
42
0.4142135623730937
10
41.156860584464368
20
80.153037225575048
10
41.156860584464361
20
63.353037225575015
42
0.41421356237309503
10
45.156860584464368
20
59.353037225575008
10
68.55686058446436
20
59.353037225575022
42
0.41421356237309503
0
LINE
5
328
100
AcDbEntity
8
0
100
AcDbLine
10
80.67886058446436
20
85.148437225575009
30
0
11
80.67886058446436
21
88.148437225575009
31
0
0
LINE
5
329
100
AcDbEntity
8
0
100
AcDbLine
10
82.004460584464368
20
133.84833722557502
30
0
11
81.978860584464371
21
133.848437225575
31
0
0
CIRCLE
5
330
100
AcDbEntity
8
0
100
AcDbCircle
10
80.410335540771484
20
63.808687225575014
30
0
40
1.3250112543003216
0
CIRCLE
5
331
100
AcDbEntity
8
0
100
AcDbCircle
10
56.856860584464364
20
81.653037225575019
30
0
40
1.4999088304343484
0
CIRCLE
5
332
100
AcDbEntity
8
0
100
AcDbCircle
10
80.410342435939484
20
80.808587225575025
30
0
40
1.3250181494683
0
LINE
5
333
100
AcDbEntity
8
0
100
AcDbLine
10
107.98946058446435
20
132.03713722557504
30
0
11
107.99256058446437
21
132.03713722557504
31
0
0
LINE
5
334
100
AcDbEntity
8
0
100
AcDbLine
10
85.330860584464361
20
117.35723722557502
30
0
11
82.030860584464364
21
117.35723722557502
31
0
0
LINE
5
335
100
AcDbEntity
8
0
100
AcDbLine
10
108.01456058446436
20
129.03723722557501
30
0
11
108.01456058446436
21
129.03493722557502
31
0
0
LINE
5
336
100
AcDbEntity
8
0
100
AcDbLine
10
112.03447085209291
20
121.59948288773242
30
0
11
108.52913482697753
21
115.43593380253724
31
0
0
CIRCLE
5
337
100
AcDbEntity
8
0
100
AcDbCircle
10
62.625019197329337
20
71.684180756002988
30
0
40
4.9999933641360723
0
LINE
5
338
100
AcDbEntity
8
0
100
AcDbLine
10
82.004460584464368
20
114.06133722557502
30
0
11
82.030860584464364
21
114.05723722557502
31
0
0
LINE
5
339
100
AcDbEntity
8
0
100
AcDbLine
10
107.99256058446437
20
132.03713722557504
30
0
11
108.01456058446436
21
129.03723722557501
31
0
0
CIRCLE
5
340
100
AcDbEntity
8
0
100
AcDbCircle
10
56.856951806171097
20
61.853037225575008
30
0
40
1.4999087816268133
0
LINE
5
341
100
AcDbEntity
8
0
100
AcDbLine
10
82.030860584464364
20
117.35723722557502
30
0
11
82.004460584464368
21
117.36133722557503
31
0
0
LINE
5
342
100
AcDbEntity
8
0
100
AcDbLine
10
85.330860584464361
20
114.05723722557502
30
0
11
85.330860584464361
21
117.35723722557502
31
0
0
LINE
5
343
100
AcDbEntity
8
0
100
AcDbLine
10
110.73216813476716
20
126.63733728081256
30
0
11
110.7540179653052
21
123.64418595529821
31
0
0
LINE
5
344
100
AcDbEntity
8
0
100
AcDbLine
10
82.030860584464364
20
114.05723722557502
30
0
11
85.330860584464361
21
114.05723722557502
31
0
0
LINE
5
345
100
AcDbEntity
8
0
100
AcDbLine
10
86.460922241210938
20
94.874437225575022
30
0
11
83.960960584464374
21
94.874437225575022
31
0
0
LINE
5
346
100
AcDbEntity
8
0
100
AcDbLine
10
96.482460584464391
20
85.97453722557502
30
0
11
96.482460584464391
21
88.374537225575011
31
0
0
LINE
5
347
100
AcDbEntity
8
0
100
AcDbLine
10
90.860860584464376
20
88.374537225575011
30
0
11
90.860860584464376
21
85.97453722557502
31
0
0
LINE
5
348
100
AcDbEntity
8
0
100
AcDbLine
10
82.004460584464368
20
110.34823722557499
30
0
11
82.004460584464368
21
114.06133722557502
31
0
0
LWPOLYLINE
5
349
100
AcDbEntity
8
0
100
AcDbPolyline
90
13
70
1
43
0.0
10
82.610460584464377
20
66.108737225575013
10
85.310460584464366
20
66.108737225575013
10
85.310460584464366
20
63.108737225575027
10
102.81046058446437
20
63.108737225575027
10
102.81046058446437
20
66.108737225575013
10
102.86046058446433
20
66.108737225575013
10
105.61046058446438
20
66.108737225575013
10
105.61046058446438
20
78.508637225575029
10
100.11056058446437
20
78.508637225575029
10
100.11056058446437
20
81.508637225575015
10
88.110460584464363
20
81.508637225575015
10
88.110460584464363
20
78.508637225575029
10
82.610460584464377
20
78.508637225575029
0
LINE
5
350
100
AcDbEntity
8
0
100
AcDbLine
10
35.678860584464388
20
136.84843722557503
30
0
11
35.678860584464388
21
133.848437225575
31
0
0
CIRCLE
5
351
100
AcDbEntity
8
0
100
AcDbCircle
10
88.614198794865445
20
72.347476309866565
30
0
40
1.4999955892562866
0
LINE
5
352
100
AcDbEntity
8
0
100
AcDbLine
10
81.978860584464371
20
88.148437225575009
30
0
11
81.978860584464371
21
107.34823722557501
31
0
0
LINE
5
353
100
AcDbEntity
8
0
100
AcDbLine
10
83.960960584464374
20
94.874437225575022
30
0
11
83.960924625396729
21
88.374537225575011
31
0
0
LINE
5
354
100
AcDbEntity
8
0
100
AcDbLine
10
89.682460584464394
20
85.974637225575009
30
0
11
89.682434082036693
21
88.374637225574943
31
0
0
ARC
5
355
100
AcDbEntity
8
0
100
AcDbCircle
10
106.85023128206439
20
110.48789027197502
30
0
40
3.8000000000000029
100
AcDbArc
50
92.902338761832098
51
330.08414341386566
0
LINE
5
356
100
AcDbEntity
8
0
100
AcDbLine
10
103.96096058446435
20
88.374537225575011
30
0
11
103.96096058446435
21
92.074737225575007
31
0
0
LINE
5
357
100
AcDbEntity
8
0
100
AcDbLine
10
40.678860584464395
20
136.84843722557503
30
0
11
35.678860584464388
21
136.84843722557503
31
0
0
CIRCLE
5
358
100
AcDbEntity
8
0
100
AcDbCircle
10
99.455611618012767
20
72.242220035104367
30
0
40
1.4999955892562866
0
LINE
5
359
100
AcDbEntity
8
0
100
AcDbLine
10
86.460960584464374
20
101.94223722557501
30
0
11
97.355205360799772
21
102.32072624403571
31
0
0
LINE
5
360
100
AcDbEntity
8
0
100
AcDbLine
10
103.94816058446436
20
88.374537225575011
30
0
11
103.96096058446435
21
88.374537225575011
31
0
0
LINE
5
361
100
AcDbEntity
8
0
100
AcDbLine
10
44.279340982437141
20
107.34833722557502
30
0
11
34.37886058446437
21
107.34833722557502
31
0
0
LINE
5
362
100
AcDbEntity
8
0
100
AcDbLine
10
44.279360584464371
20
110.34833722557502
30
0
11
44.279340982437141
21
107.34833722557502
31
0
0
LINE
5
363
100
AcDbEntity
8
0
100
AcDbLine
10
86.982460584464377
20
85.974645990604927
30
0
11
86.982460584464377
21
85.974639319176234
31
0
0
LINE
5
364
100
AcDbEntity
8
0
100
AcDbLine
10
34.378860584464171
20
110.34837722557499
30
0
11
44.279360584464371
21
110.34833722557502
31
0
0
LINE
5
365
100
AcDbEntity
8
0
100
AcDbLine
10
86.460960584464374
20
101.94223722557501
30
0
11
86.460922241210938
21
94.874437225575022
31
0
0
LINE
5
366
100
AcDbEntity
8
0
100
AcDbLine
10
80.67886058446436
20
88.148437225575009
30
0
11
81.978860584464371
21
88.148437225575009
31
0
0
CIRCLE
5
367
100
AcDbEntity
8
0
100
AcDbCircle
10
106.85023128206439
20
110.48789027197502
30
0
40
1.3249951424249182
0
CIRCLE
5
368
100
AcDbEntity
8
0
100
AcDbCircle
10
88.614198794865445
20
72.347476309866522
30
0
40
4.9999933641360723
0
LINE
5
369
100
AcDbEntity
8
0
100
AcDbLine
10
86.982460584464377
20
88.374537225575011
30
0
11
86.982460584464377
21
85.974639319176234
31
0
0
CIRCLE
5
370
100
AcDbEntity
8
0
100
AcDbCircle
10
99.455611618012767
20
72.242220035104324
30
0
40
4.9999933641360723
0
LINE
5
371
100
AcDbEntity
8
0
100
AcDbLine
10
83.960924625396729
20
88.374537225575011
30
0
11
86.982460584464377
21
88.374537225575011
31
0
0
LINE
5
372
100
AcDbEntity
8
0
100
AcDbLine
10
34.37886058446437
20
107.34833722557502
30
0
11
34.378860584464363
21
88.148437225575009
31
0
0
ARC
5
373
100
AcDbEntity
8
0
100
AcDbCircle
10
90.305382835405013
20
485.9226853614669
30
0
40
397.54853620885945
100
AcDbArc
50
269.91021888957789
51
270.08005699453463
0
LINE
5
374
100
AcDbEntity
8
0
100
AcDbLine
10
96.482460584464391
20
88.374537225575011
30
0
11
103.94816058446436
21
88.374537225575011
31
0
0
LINE
5
375
100
AcDbEntity
8
0
100
AcDbLine
10
86.982460584464377
20
86.124593475575026
30
0
11
86.982460584464377
21
85.984000116199994
31
0
0
LWPOLYLINE
5
376
100
AcDbEntity
8
0
100
AcDbPolyline
90
4
70
1
43
0.0
10
15.537660584464374
20
122.720937225575
10
23.537660584464383
20
122.720937225575
10
23.537660584464383
20
125.72093722557503
10
15.537660584464374
20
125.72093722557503
0
LINE
5
377
100
AcDbEntity
8
0
100
AcDbLine
10
40.678860584464395
20
133.848437225575
30
0
11
40.678860584464395
21
136.84843722557503
31
0
0
LINE
5
378
100
AcDbEntity
8
0
100
AcDbLine
10
35.678860584464388
20
88.148437225575009
30
0
11
35.678860584464388
21
85.148437225575009
31
0
0
LWPOLYLINE
5
379
100
AcDbEntity
8
0
100
AcDbPolyline
90
4
70
1
43
0.0
10
23.537660584464383
20
92.401537225575012
10
15.537660584464374
20
92.401537225575012
10
15.537660584464374
20
89.401537225575026
10
23.537660584464383
20
89.401537225575026
0
LINE
5
380
100
AcDbEntity
8
0
100
AcDbLine
10
86.982460584464377
20
85.974639319176234
30
0
11
86.982460584464377
21
85.974637225575009
31
0
0
CIRCLE
5
381
100
AcDbEntity
8
0
100
AcDbCircle
10
51.722614271839397
20
71.908624554339255
30
0
40
4.9999933641360723
0
LINE
5
382
100
AcDbEntity
8
0
100
AcDbLine
10
86.982460584464377
20
85.974637225575009
30
0
11
89.682460584464394
21
85.974637225575009
31
0
0
LINE
5
383
100
AcDbEntity
8
0
100
AcDbLine
10
86.982460584464349
20
85.974673066944632
30
0
11
86.982460584464377
21
85.974645990604927
31
0
0
LINE
5
384
100
AcDbEntity
8
0
100
AcDbLine
10
86.982460584464377
20
85.975220062489072
30
0
11
86.982460584464349
21
85.974673066944632
31
0
0
LINE
5
385
100
AcDbEntity
8
0
100
AcDbLine
10
50.678860584464402
20
88.148437225575009
30
0
11
70.678860584464388
21
88.148437225575009
31
0
0
LINE
5
386
100
AcDbEntity
8
0
100
AcDbLine
10
90.860860584464376
20
85.97453722557502
30
0
11
96.482460584464391
21
85.97453722557502
31
0
0
LINE
5
387
100
AcDbEntity
8
0
100
AcDbLine
10
34.378860584464363
20
88.148437225575009
30
0
11
35.678860584464388
21
88.148437225575009
31
0
0
LINE
5
388
100
AcDbEntity
8
0
100
AcDbLine
10
48.678860584464367
20
133.848437225575
30
0
11
48.678860584464367
21
136.84843722557503
31
0
0
LINE
5
389
100
AcDbEntity
8
0
100
AcDbLine
10
43.678860584464367
20
133.848437225575
30
0
11
40.678860584464395
21
133.848437225575
31
0
0
LINE
5
390
100
AcDbEntity
8
0
100
AcDbLine
10
48.678860584464367
20
136.84843722557503
30
0
11
43.678860584464367
21
136.84843722557503
31
0
0
LINE
5
391
100
AcDbEntity
8
0
100
AcDbLine
10
50.678860584464402
20
85.148437225575009
30
0
11
50.678860584464402
21
88.148437225575009
31
0
0
LINE
5
392
100
AcDbEntity
8
0
100
AcDbLine
10
86.982460584464377
20
85.984000116199994
30
0
11
86.982460584464377
21
85.975220062489072
31
0
0
CIRCLE
5
393
100
AcDbEntity
8
0
100
AcDbCircle
10
51.722614271839404
20
71.908624554339283
30
0
40
1.4999955892562866
0
LINE
5
394
100
AcDbEntity
8
0
100
AcDbLine
10
34.37886047363282
20
133.848437225575
30
0
11
34.378860584464171
21
110.34837722557499
31
0
0
LINE
5
395
100
AcDbEntity
8
0
100
AcDbLine
10
43.678860584464367
20
136.84843722557503
30
0
11
43.678860584464367
21
133.848437225575
31
0
0
LINE
5
396
100
AcDbEntity
8
0
100
AcDbLine
10
35.678860584464388
20
133.848437225575
30
0
11
34.378860584464363
21
133.848437225575
31
0
0
LINE
5
397
100
AcDbEntity
8
0
100
AcDbLine
10
35.678860584464388
20
85.148437225575009
30
0
11
50.678860584464402
21
85.148437225575009
31
0
0
LINE
5
398
100
AcDbEntity
8
0
100
AcDbLine
10
11.48506058446439
20
33.358350583103665
30
0
11
11.48506058446439
21
60.85353722557501
31
0
0
LINE
5
399
100
AcDbEntity
8
0
100
AcDbLine
10
19.485060584464367
20
60.85353722557501
30
0
11
19.485060584464367
21
33.521227245771669
31
0
0
LWPOLYLINE
5
400
100
AcDbEntity
8
0
100
AcDbPolyline
90
51
70
1
43
0.0
10
67.521307945251465
20
52.851064741168521
10
67.521307945251465
20
57.23133722557003
10
69.7682605844725
20
57.23133722557003
10
69.7682605844725
20
54.231337225570016
10
71.268260584472515
20
54.231337225570016
10
71.268260584472515
20
57.23133722557003
10
73.52136058447249
20
57.23133722557003
10
73.52136058447249
20
54.231337225570016
10
75.52136058447249
20
54.231337225570016
10
75.52136058447249
20
51.131337225570022
10
74.271360584472518
20
51.131337225570022
10
74.271360584472518
20
48.631337225570022
10
75.52136058447249
20
48.631337225570022
10
75.52136058447249
20
44.831337225570003
10
78.521360584472518
20
44.831337225570003
10
78.521360584472518
20
48.631337225570022
10
79.771360584472504
20
48.631337225570022
10
79.771360584472504
20
51.131337225570022
10
78.521360584472518
20
51.131337225570022
10
78.521360584472518
20
54.231337225570016
10
80.52136058447249
20
54.231337225570016
10
80.52136058447249
20
57.23133722557003
10
83.521260584472515
20
57.23133722557003
10
83.521260584472515
20
54.231337225570016
10
86.521360584464375
20
54.231337225570016
10
86.521360584464375
20
5.5313372255750171
10
82.221360584464364
20
5.5313372255750153
10
82.221360584464364
20
8.5313372255750206
10
78.521360584464361
20
8.5313372255750206
10
78.521360584464361
20
12.531337225575005
10
79.771360584464347
20
12.531337225575005
10
79.771360584464347
20
15.13133722557502
10
78.521360584464361
20
15.13133722557502
10
78.521360584464361
20
18.631337225575034
10
75.521360584464375
20
18.631337225575034
10
75.521360584464375
20
15.13133722557502
10
74.271360584464389
20
15.13133722557502
10
74.271360584464389
20
15.05660561652765
10
74.271360584464389
20
12.531337225575005
10
75.521360584464375
20
12.531337225575005
10
75.521360584464375
20
8.5313372255750206
10
73.521360584464361
20
8.5313372255750206
10
73.521360584464361
20
5.5313372255750153
10
71.268260584464386
20
5.5313372255750153
10
71.268260584464386
20
8.5313372255750206
10
69.768260584464372
20
8.5313372255750206
10
69.768260584464372
20
5.5313372255750153
10
67.521360584464389
20
5.5313372255750153
10
67.521360584464389
20
10.011237225584013
42
0.70684033639183452
10
67.589783922029881
20
22.647160341467028
10
67.589783922029881
20
41.17611052327635
42
0.76516813912197001
0
LINE
5
401
100
AcDbEntity
8
0
100
AcDbLine
10
145.89616343969033
20
50.905293025461944
30
0
11
145.7835704536578
21
52.30858618870198
31
0
0
CIRCLE
5
402
100
AcDbEntity
8
0
100
AcDbCircle
10
119.69186266677372
20
53.20797146225938
30
0
40
1.5299052025715802
0
ARC
5
403
100
AcDbEntity
8
0
100
AcDbCircle
10
128.37751788544986
20
50.912242174735525
30
0
40
12.94999999999998
100
AcDbArc
50
17.290291209350126
51
27.882800056025832
0
LWPOLYLINE
5
404
100
AcDbEntity
8
0
100
AcDbPolyline
90
8
70
1
43
0.0
10
29.305360584464381
20
51.236337225575006
10
29.305360584464381
20
47.536237225575007
10
27.305260584464385
20
47.536237225575007
10
27.305260584464385
20
42.536237225575029
10
29.305360584464381
20
42.536237225575029
10
29.305360584464381
20
38.836337225575015
10
52.305360584464388
20
38.836337225575015
10
52.305360584464388
20
51.236337225575006
0
LWPOLYLINE
5
405
100
AcDbEntity
8
0
100
AcDbPolyline
90
16
70
1
43
0.0
10
122.40996058446439
20
27.830337225575022
10
134.40996058446433
20
27.830337225575022
10
134.40996058446433
20
24.830337225575011
10
139.90996058446433
20
24.830337225575011
10
139.90996058446433
20
12.430337225575027
10
137.2099605844644
20
12.430337225575027
10
137.2099605844644
20
9.4305372255750122
10
122.40996058446439
20
9.4305372255750122
10
122.40996058446439
20
12.430337225575027
10
116.90996058446437
20
12.430337225575027
10
116.90996058446437
20
16.13033722557504
10
115.41006058446436
20
16.13033722557504
10
115.41006058446436
20
21.13033722557504
10
116.90996058446437
20
21.13033722557504
10
116.90996058446437
20
24.830337225575011
10
122.40996058446439
20
24.830337225575011
0
LWPOLYLINE
5
406
100
AcDbEntity
8
0
100
AcDbPolyline
90
8
70
1
43
0.0
10
29.046560584464387
20
5.7421150303159774
10
60.686560584464374
20
5.7421150303159774
42
0.41421356237309537
10
64.686560584464374
20
9.7421150303159756
10
64.686560584464374
20
27.540415030315959
42
0.4142135623730957
10
60.686560584464374
20
31.540415030315962
10
29.046560584464384
20
31.540415030315962
42
0.41421356237309598
10
25.046560584464387
20
27.540415030315959
10
25.046560584464387
20
9.7421150303159756
42
0.41421356237309537
0
CIRCLE
5
407
100
AcDbEntity
8
0
100
AcDbCircle
10
40.805326846864375
20
55.336196006375019
30
0
40
1.5000340708882862
0
ARC
5
408
100
AcDbEntity
8
0
100
AcDbCircle
10
128.37751788544986
20
50.912242174735525
30
0
40
12.949999999999967
100
AcDbArc
50
53.290291209350187
51
68.650738092614716
0
CIRCLE
5
409
100
AcDbEntity
8
0
100
AcDbCircle
10
134.81577272362279
20
51.937945005487826
30
0
40
3.0000000000000075
0
ARC
5
410
100
AcDbEntity
8
0
100
AcDbCircle
10
128.37751788544986
20
50.912242174735525
30
0
40
12.94999999999999
100
AcDbArc
50
305.29029120935007
51
315.88280005602576
0
ARC
5
411
100
AcDbEntity
8
0
100
AcDbCircle
10
122.3885877521616
20
66.821632670096719
30
0
40
9.9957850995123962
100
AcDbArc
50
241.23465405497967
51
335.32421400933924
0
LINE
5
412
100
AcDbEntity
8
0
100
AcDbLine
10
103.20006058446437
20
54.591480975575024
30
0
11
103.20006058446437
21
57.404037225575024
31
0
0
LINE
5
413
100
AcDbEntity
8
0
100
AcDbLine
10
96.40006058446437
20
54.403937225575021
30
0
11
96.40006058446437
21
50.403937225575028
31
0
0
LINE
5
414
100
AcDbEntity
8
0
100
AcDbLine
10
99.400160584464373
20
50.403937225575028
30
0
11
99.400160584464373
21
54.403937225575021
31
0
0
LWPOLYLINE
5
415
100
AcDbEntity
8
0
100
AcDbPolyline
90
8
70
1
43
0.0
10
60.686560584464374
20
58.151737225575005
10
29.046560584464384
20
58.151737225575005
42
0.41421356237309598
10
25.046560584464387
20
54.151737225575005
10
25.046560584464387
20
36.353437225575021
42
0.41421356237309537
10
29.046560584464387
20
32.353437225575021
10
60.686560584464374
20
32.353437225575021
42
0.41421356237309537
10
64.686560584464374
20
36.353437225575021
10
64.686560584464374
20
54.151737225575005
42
0.4142135623730957
0
SPLINE
5
416
100
AcDbEntity
8
0
100
AcDbSpline
70
1064
71
5
72
26
73
20
74
0
42
0.000000001
43
0.0000000001
44
0.0000000001
40
0
40
0
40
0
40
0
40
0
40
0
40
0.066666666666666666
40
0.13333333333333333
40
0.20000000000000001
40
0.26666666666666666
40
0.33333333333333331
40
0.39999999999999997
40
0.46666666666666662
40
0.53333333333333333
40
0.59999999999999998
40
0.66666666666666663
40
0.73333333333333328
40
0.79999999999999993
40
0.86666666666666659
40
0.93333333333333324
40
1
40
1
40
1
40
1
40
1
40
1
10
141.19777591690911
20
49.083722553072981
30
0
10
141.23285736073234
20
49.122558238993193
30
0
10
141.30384449188932
20
49.196399065365092
30
0
10
141.4127977841994
20
49.295668176678561
30
0
10
141.56305112334525
20
49.404879856245785
30
0
10
141.75974812578903
20
49.502885883419097
30
0
10
141.96670389816003
20
49.564465151927067
30
0
10
142.18635536366097
20
49.595119912306131
30
0
10
142.42258953497836
20
49.605988970082045
30
0
10
142.68025342599412
20
49.612188050472746
30
0
10
142.96436497419703
20
49.630073071687725
30
0
10
143.27942943542669
20
49.675095988408884
30
0
10
143.6284739349004
20
49.759042629429864
30
0
10
144.01250387023205
20
49.888429983101204
30
0
10
144.4313680795822
20
50.066366849074974
30
0
10
144.88424420994548
20
50.293590853580184
30
0
10
145.27295253109881
20
50.51438751636924
30
0
10
145.57896649468768
20
50.701524294532312
30
0
10
145.78936607748145
20
50.835786121382085
30
0
10
145.89616343969033
20
50.905293025461944
30
0
0
LWPOLYLINE
5
417
100
AcDbEntity
8
0
100
AcDbPolyline
90
4
70
1
43
0.0
10
62.240960584464354
20
41.036237225575007
10
62.240960584464354
20
49.036237225575015
10
59.240860584464372
20
49.036237225575015
10
59.240860584464372
20
41.036237225575007
0
ARC
5
418
100
AcDbEntity
8
0
100
AcDbCircle
10
128.37751788544986
20
50.912242174735525
30
0
40
12.949999999999962
100
AcDbArc
50
341.29029120935002
51
351.88280005602576
0
LINE
5
419
100
AcDbEntity
8
0
100
AcDbLine
10
140.72266291816112
20
63.342060534917223
30
0
11
141.63855979957742
21
62.272929212248265
31
0
0
ARC
5
420
100
AcDbEntity
8
0
100
AcDbCircle
10
15.485080930064383
20
60.753600265575017
30
0
40
4.0012278904841008
100
AcDbArc
50
1.4312010429682203
51
178.59232126315305
0
ARC
5
421
100
AcDbEntity
8
0
100
AcDbCircle
10
128.37751788544986
20
50.912242174735525
30
0
40
12.949999999999999
100
AcDbArc
50
233.29029120935007
51
243.88280005602587
0
CIRCLE
5
422
100
AcDbEntity
8
0
100
AcDbCircle
10
128.37751788544986
20
50.912242174735525
30
0
40
1.3157908495400996
0
CIRCLE
5
423
100
AcDbEntity
8
0
100
AcDbCircle
10
15.485080930064383
20
60.753600265575017
30
0
40
1.4997762535176049
0
SPLINE
5
424
100
AcDbEntity
8
0
100
AcDbSpline
70
1064
71
5
72
26
73
20
74
0
42
0.000000001
43
0.0000000001
44
0.0000000001
40
0
40
0
40
0
40
0
40
0
40
0
40
0.066666666666666666
40
0.13333333333333333
40
0.20000000000000001
40
0.26666666666666666
40
0.33333333333333331
40
0.39999999999999997
40
0.46666666666666662
40
0.53333333333333333
40
0.59999999999999998
40
0.66666666666666663
40
0.73333333333333328
40
0.79999999999999993
40
0.86666666666666659
40
0.93333333333333324
40
1
40
1
40
1
40
1
40
1
40
1
10
139.82410137231292
20
56.968497327738355
30
0
10
139.82965581307406
20
57.020536412973037
30
0
10
139.84368305974917
20
57.122000085230951
30
0
10
139.87347920513497
20
57.266351621751504
30
0
10
139.93084369533253
20
57.443022423369136
30
0
10
140.03236841569833
20
57.637926562062532
30
0
10
140.16360376682951
20
57.809390787595937
30
0
10
140.32328711925524
20
57.963298901711724
30
0
10
140.50801590666242
20
58.110947116126511
30
0
10
140.71282664529164
20
58.267413312704463
30
0
10
140.93216516434538
20
58.448879176883167
30
0
10
141.1605938612943
20
58.670493725525638
30
0
10
141.3936341955463
20
58.94357119396637
30
0
10
141.62826896122436
20
59.273974894411808
30
0
10
141.8625485592504
20
59.664131047902771
30
0
10
142.09537412625301
20
60.11415303961671
30
0
10
142.28006474180364
20
60.521258310702073
30
0
10
142.41763900052825
20
60.852525639262382
30
0
10
142.50893871687546
20
61.084815510700267
30
0
10
142.55448446472053
20
61.203821691798396
30
0
0
LWPOLYLINE
5
425
100
AcDbEntity
8
0
100
AcDbPolyline
90
4
70
1
43
0.0
10
16.485060584464392
20
40.754337225575028
10
16.485060584464392
20
35.754337225575014
42
-0.99999999999999989
10
14.485060584464362
20
35.754337225575021
10
14.485060584464362
20
40.75433722557505
42
-0.99999999999999989
0
LWPOLYLINE
5
426
100
AcDbEntity
8
0
100
AcDbPolyline
90
8
70
1
43
0.0
10
29.305360584464381
20
12.225015030315971
10
52.305360584464388
20
12.225015030315971
10
52.305360584464388
20
24.625015030315964
10
29.305360584464381
20
24.625015030315964
10
29.305360584464381
20
20.924915030315965
10
27.305260584464385
20
20.924915030315965
10
27.305260584464385
20
15.924915030315985
10
29.305360584464381
20
15.924915030315985
0
LINE
5
427
100
AcDbEntity
8
0
100
AcDbLine
10
88.400060584464356
20
5.7039372255750163
30
0
11
88.400060584464356
21
57.403937225575021
31
0
0
LINE
5
428
100
AcDbEntity
8
0
100
AcDbLine
10
142.55448446472053
20
61.203821691798396
30
0
11
141.63855979957742
21
62.272929212248265
31
0
0
ARC
5
429
100
AcDbEntity
8
0
100
AcDbCircle
10
128.37751788544986
20
50.912242174735525
30
0
40
12.949999999999982
100
AcDbArc
50
269.29029120935007
51
279.8828000560257
0
SPLINE
5
430
100
AcDbEntity
8
0
100
AcDbSpline
70
1064
71
5
72
26
73
20
74
0
42
0.000000001
43
0.0000000001
44
0.0000000001
40
0
40
0
40
0
40
0
40
0
40
0
40
0.066666666666666666
40
0.13333333333333333
40
0.20000000000000001
40
0.26666666666666666
40
0.33333333333333331
40
0.39999999999999997
40
0.46666666666666662
40
0.53333333333333333
40
0.59999999999999998
40
0.66666666666666663
40
0.73333333333333328
40
0.79999999999999993
40
0.86666666666666659
40
0.93333333333333324
40
1
40
1
40
1
40
1
40
1
40
1
10
136.11852282986945
20
61.293925200645667
30
0
10
136.17079791476354
20
61.291428462655013
30
0
10
136.27321237430783
20
61.289719982517418
30
0
10
136.42042648892141
20
61.297012500855743
30
0
10
136.6038074537432
20
61.326587466956184
30
0
10
136.81198219229623
20
61.397001743652176
30
0
10
137.00155372453139
20
61.500371624147895
30
0
10
137.17814241649299
20
61.634546564060777
30
0
10
137.35238856874761
20
61.794430892679735
30
0
10
137.53842984083815
20
61.97280621162686
30
0
10
137.75140398201717
20
62.161701052732504
30
0
10
138.00544619085045
20
62.353417598430951
30
0
10
138.31104946989731
20
62.5417941813539
30
0
10
138.67354469873254
20
62.722949605233779
30
0
10
139.09503019741143
20
62.894585057744301
30
0
10
139.57544938771383
20
63.055597291032235
30
0
10
140.0060738396117
20
63.175630230907814
30
0
10
140.35452853949693
20
63.260742167633239
30
0
10
140.59807720375457
20
63.315315702632347
30
0
10
140.72266291816112
20
63.342060534917223
30
0
0
LINE
5
431
100
AcDbEntity
8
0
100
AcDbLine
10
19.485060584464367
20
17.756011182739261
30
0
11
19.485060584464367
21
11.854435139339836
31
0
0
LINE
5
432
100
AcDbEntity
8
0
100
AcDbLine
10
133.0919932008311
20
62.973594607222552
30
0
11
131.47160466605177
21
62.648561439262167
31
0
0
SPLINE
5
433
100
AcDbEntity
8
0
100
AcDbSpline
70
1064
71
5
72
26
73
20
74
0
42
0.000000001
43
0.0000000001
44
0.0000000001
40
0
40
0
40
0
40
0
40
0
40
0
40
0.066666666666666666
40
0.13333333333333333
40
0.20000000000000001
40
0.26666666666666666
40
0.33333333333333331
40
0.39999999999999997
40
0.46666666666666662
40
0.53333333333333333
40
0.59999999999999998
40
0.66666666666666663
40
0.73333333333333328
40
0.79999999999999993
40
0.86666666666666659
40
0.93333333333333324
40
1
40
1
40
1
40
1
40
1
40
1
10
140.74232261563088
20
54.7611516286578
30
0
10
140.78314650191243
20
54.728405201186298
30
0
10
140.86499732070723
20
54.666825302706428
30
0
10
140.98838247595666
20
54.586194788411113
30
0
10
141.15412452185041
20
54.502332811915018
30
0
10
141.36392989654891
20
54.436937117261273
30
0
10
141.57805577908928
20
54.409137756485279
30
0
10
141.79978508283102
20
54.413891334312524
30
0
10
142.03473083165608
20
54.440821154765445
30
0
10
142.29008776428148
20
54.475777503104752
30
0
10
142.57341706568135
20
54.503413580362057
30
0
10
142.89162968807713
20
54.509193260072372
30
0
10
143.24959291165703
20
54.48196401648115
30
0
10
143.64933819867008
20
54.415452483461841
30
0
10
144.09121191772437
20
54.306565521195374
30
0
10
144.57451982326734
20
54.154443839262228
30
0
10
144.99345591491004
20
53.998437825427445
30
0
10
145.32538923011114
20
53.862478295001601
30
0
10
145.55450175751108
20
53.763474899211275
30
0
10
145.67101393572574
20
53.711882277476903
30
0
0
LINE
5
434
100
AcDbEntity
8
0
100
AcDbLine
10
107.40006058446437
20
57.403937225575021
30
0
11
107.40006058446437
21
5.7039372255750163
31
0
0
LINE
5
435
100
AcDbEntity
8
0
100
AcDbLine
10
145.67101393572574
20
53.711882277476903
30
0
11
145.7835704536578
21
52.30858618870198
31
0
0
LINE
5
436
100
AcDbEntity
8
0
100
AcDbLine
10
100.65016058446437
20
47.903937225575021
30
0
11
100.65016058446437
21
50.403937225575028
31
0
0
CIRCLE
5
437
100
AcDbEntity
8
0
100
AcDbCircle
10
40.805326846864375
20
28.724873811115977
30
0
40
1.5000340708882862
0
CIRCLE
5
438
100
AcDbEntity
8
0
100
AcDbCircle
10
112.50999975204468
20
27.130287225575017
30
0
40
1.4999508866060656
0
LINE
5
439
100
AcDbEntity
8
0
100
AcDbLine
10
11.485057479103304
20
11.854439311810941
30
0
11
11.485060581146778
21
17.802076269347754
31
0
0
SPLINE
5
440
100
AcDbEntity
8
0
100
AcDbSpline
70
1064
71
5
72
26
73
20
74
0
42
0.000000001
43
0.0000000001
44
0.0000000001
40
0
40
0
40
0
40
0
40
0
40
0
40
0.066666666666666666
40
0.13333333333333333
40
0.20000000000000001
40
0.26666666666666666
40
0.33333333333333331
40
0.39999999999999997
40
0.46666666666666662
40
0.53333333333333333
40
0.59999999999999998
40
0.66666666666666663
40
0.73333333333333328
40
0.79999999999999993
40
0.86666666666666659
40
0.93333333333333324
40
1
40
1
40
1
40
1
40
1
40
1
10
130.60016998808695
20
38.154408595689162
30
0
10
130.64794568256099
20
38.133045046800298
30
0
10
130.74010871153686
20
38.088350343238766
30
0
10
130.86818766561447
20
38.015405446911622
30
0
10
131.01848498037646
20
37.906254294575575
30
0
10
131.17247696767538
20
37.749469856741264
30
0
10
131.2949951830384
20
37.571672261495785
30
0
10
131.39202562836209
20
37.372244145985491
30
0
10
131.47536309019375
20
37.150930821624179
30
0
10
131.56088128715655
20
36.907793520238535
30
0
10
131.66568624980289
20
36.643114156378978
30
0
10
131.80586586094219
20
36.357382893743221
30
0
10
131.99356454299146
20
36.051362786591007
30
0
10
132.23529100514784
20
35.72611150515668
30
0
10
132.53395518001452
20
35.382733484848899
30
0
10
132.89000447078277
20
35.022238768920872
30
0
10
133.22011205282453
20
34.720785108341317
30
0
10
133.49265322044337
20
34.487576979038217
30
0
10
133.68536085249025
20
34.328964271094016
30
0
10
133.78446804644193
20
34.248872758487998
30
0
0
SPLINE
5
441
100
AcDbEntity
8
0
100
AcDbSpline
70
1064
71
5
72
26
73
20
74
0
42
0.000000001
43
0.0000000001
44
0.0000000001
40
0
40
0
40
0
40
0
40
0
40
0
40
0.066666666666666666
40
0.13333333333333333
40
0.20000000000000001
40
0.26666666666666666
40
0.33333333333333331
40
0.39999999999999997
40
0.46666666666666662
40
0.53333333333333333
40
0.59999999999999998
40
0.66666666666666663
40
0.73333333333333328
40
0.79999999999999993
40
0.86666666666666659
40
0.93333333333333324
40
1
40
1
40
1
40
1
40
1
40
1
10
135.85898309598633
20
40.341992494452079
30
0
10
135.84045466737061
20
40.293047468701964
30
0
10
135.80718199762481
20
40.196173478834126
30
0
10
135.7686259313877
20
40.053911023606076
30
0
10
135.74008556103328
20
39.870366194897393
30
0
10
135.74272398582394
20
39.650621045274931
30
0
10
135.78245375929595
20
39.43838475467156
30
0
10
135.85549280350597
20
39.228976591998958
30
0
10
135.95370681388732
20
39.01385167886356
30
0
10
136.06586190856825
20
38.781794909793888
30
0
10
136.17969894904644
20
38.520872748873316
30
0
10
136.28352885921777
20
38.220020579879332
30
0
10
136.36824902909217
20
37.871163024321262
30
0
10
136.42852088929899
20
37.470429470082095
30
0
10
136.46150972284607
20
37.016534668305908
30
0
10
136.46618376230774
20
36.509873350439264
30
0
10
136.44727159815605
20
36.06323294117108
30
0
10
136.42053943620203
20
35.705531793460302
30
0
10
136.39718127610192
20
35.45703909962986
30
0
10
136.38411802013457
20
35.330286436476818
30
0
0
SPLINE
5
442
100
AcDbEntity
8
0
100
AcDbSpline
70
1064
71
5
72
26
73
20
74
0
42
0.000000001
43
0.0000000001
44
0.0000000001
40
0
40
0
40
0
40
0
40
0
40
0
40
0.066666666666666666
40
0.13333333333333333
40
0.20000000000000001
40
0.26666666666666666
40
0.33333333333333331
40
0.39999999999999997
40
0.46666666666666662
40
0.53333333333333333
40
0.59999999999999998
40
0.66666666666666663
40
0.73333333333333328
40
0.79999999999999993
40
0.86666666666666659
40
0.93333333333333324
40
1
40
1
40
1
40
1
40
1
40
1
10
122.67681478010135
20
39.284495870972698
30
0
10
122.70290894986422
20
39.2391305481964
30
0
10
122.75119951893133
20
39.148799704159146
30
0
10
122.81194163509491
20
39.014503122989247
30
0
10
122.86937727933191
20
38.837855440710392
30
0
10
122.90180383372601
20
38.620499947001377
30
0
10
122.89641634772096
20
38.404644270843733
30
0
10
122.857694721786
20
38.18627047152404
30
0
10
122.79503143648361
20
37.95823970004075
30
0
10
122.72130459111196
20
37.71127115627133
30
0
10
122.65051896031596
20
37.435538241399058
30
0
10
122.59597802569238
20
37.121981285941189
30
0
10
122.56795534340748
20
36.764079301382324
30
0
10
122.57233825277721
20
36.358862237654982
30
0
10
122.61213010957002
20
35.905513186320171
30
0
10
122.68828655909257
20
35.404586312551331
30
0
10
122.77815918699388
20
34.966672809773712
30
0
10
122.86157332413366
20
34.61780779102974
30
0
10
122.92424686283783
20
34.376216710708086
30
0
10
122.95734965705907
20
34.253167568931957
30
0
0
LINE
5
443
100
AcDbEntity
8
0
100
AcDbLine
10
100.65016058446437
20
50.403937225575028
30
0
11
99.400160584464373
21
50.403937225575028
31
0
0
ARC
5
444
100
AcDbEntity
8
0
100
AcDbCircle
10
146.68456058446441
20
22.207005907230105
30
0
40
2.0000000000000071
100
AcDbArc
50
153.58900220590749
51
180
0
CIRCLE
5
445
100
AcDbEntity
8
0
100
AcDbCircle
10
126.87917005092771
20
44.574428588617081
30
0
40
2.9998707997104939
0
CIRCLE
5
446
100
AcDbEntity
8
0
100
AcDbCircle
10
15.485059797763832
20
25.654387225575014
30
0
40
3.5500004891102002
0
CIRCLE
5
447
100
AcDbEntity
8
0
100
AcDbCircle
10
142.11006058446435
20
27.130287225575017
30
0
40
1.4999000008333696
0
LWPOLYLINE
5
448
100
AcDbEntity
8
0
100
AcDbPolyline
90
4
70
1
43
0.0
10
80.821360584464372
20
30.731337225575007
10
80.821360584464372
20
27.731337225575036
10
72.021460584464364
20
27.731337225575036
10
72.021460584464364
20
30.731337225575007
0
ARC
5
449
100
AcDbEntity
8
0
100
AcDbCircle
10
1.0703907152774794
20
17.802081701212355
30
0
40
10.414669865870714
100
AcDbArc
50
-2.9882077618805785e-05
51
28.579077259763693
0
CIRCLE
5
450
100
AcDbEntity
8
0
100
AcDbCircle
10
40.805326846864375
20
35.536200265575019
30
0
40
1.5000307948488749
0
SPLINE
5
451
100
AcDbEntity
8
0
100
AcDbSpline
70
1064
71
5
72
26
73
20
74
0
42
0.000000001
43
0.0000000001
44
0.0000000001
40
0
40
0
40
0
40
0
40
0
40
0
40
0.066666666666666666
40
0.13333333333333333
40
0.20000000000000001
40
0.26666666666666666
40
0.33333333333333331
40
0.39999999999999997
40
0.46666666666666662
40
0.53333333333333333
40
0.59999999999999998
40
0.66666666666666663
40
0.73333333333333328
40
0.79999999999999993
40
0.86666666666666659
40
0.93333333333333324
40
1
40
1
40
1
40
1
40
1
40
1
10
137.67454763803161
20
41.897380124786629
30
0
10
137.72575616572058
20
41.908178499337019
30
0
10
137.82658850997072
20
41.926191793888904
30
0
10
137.97308249468523
20
41.942461053490533
30
0
10
138.15883301414601
20
41.942498461377667
30
0
10
138.37557072927112
20
41.906171405769257
30
0
10
138.57919685207168
20
41.83434452970986
30
0
10
138.77491703655514
20
41.730036859828516
30
0
10
138.97242316766199
20
41.599975150335567
30
0
10
139.18452136235916
20
41.453539276529696
30
0
10
139.42488498486645
20
41.301011984552503
30
0
10
139.70624129480345
20
41.152246045410976
30
0
10
140.03796682426386
20
41.014997095349429
30
0
10
140.42470554663953
20
40.893946530825254
30
0
10
140.86816247601448
20
40.791698274308544
30
0
10
141.36810588064341
20
40.709332444941339
30
0
10
141.81235854044064
20
40.659483678872618
30
0
10
142.16992527584412
20
40.631010017957408
30
0
10
142.41905923568183
20
40.615960345782938
30
0
10
142.54631524980252
20
40.609418697955078
30
0
0
SPLINE
5
452
100
AcDbEntity
8
0
100
AcDbSpline
70
1064
71
5
72
26
73
20
74
0
42
0.000000001
43
0.0000000001
44
0.0000000001
40
0
40
0
40
0
40
0
40
0
40
0
40
0.066666666666666666
40
0.13333333333333333
40
0.20000000000000001
40
0.26666666666666666
40
0.33333333333333331
40
0.39999999999999997
40
0.46666666666666662
40
0.53333333333333333
40
0.59999999999999998
40
0.66666666666666663
40
0.73333333333333328
40
0.79999999999999993
40
0.86666666666666659
40
0.93333333333333324
40
1
40
1
40
1
40
1
40
1
40
1
10
140.64318725871863
20
46.758225464892405
30
0
10
140.65696660936763
20
46.707737370217075
30
0
10
140.68698955661847
20
46.609807481578599
30
0
10
140.73941681688751
20
46.472052050568841
30
0
10
140.82421211568675
20
46.306785556130556
30
0
10
140.95550960444189
20
46.130558822776983
30
0
10
141.11240102805536
20
45.982208631698576
30
0
10
141.29457788586774
20
45.855725142299228
30
0
10
141.50048194072878
20
45.739414178500255
30
0
10
141.72761686488298
20
45.617599419293228
30
0
10
141.97307916336717
20
45.473420690493242
30
0
10
142.23391579321327
20
45.291055862980258
30
0
10
142.50750917664408
20
45.058621438396045
30
0
10
142.7918154090502
20
44.769848093402977
30
0
10
143.08529660655083
20
44.422029834981593
30
0
10
143.38688603445729
20
44.014879549894502
30
0
10
143.63411441794747
20
43.642423577212043
30
0
10
143.82273910404416
20
43.337324499205593
30
0
10
143.94990229635593
20
43.122560104854614
30
0
10
144.01383724639703
20
43.012336657056608
30
0
0
LINE
5
453
100
AcDbEntity
8
0
100
AcDbLine
10
109.50996058446437
20
27.630337225575026
30
0
11
109.50996058446435
21
9.630337225575067
31
0
0
ARC
5
454
100
AcDbEntity
8
0
100
AcDbCircle
10
129.69481971446817
20
11.395733019010098
30
0
40
5.2550697555298633
100
AcDbArc
50
246.00403966965794
51
294.93063680636016
0
SPLINE
5
455
100
AcDbEntity
8
0
100
AcDbSpline
70
1064
71
5
72
31
73
25
74
0
42
0.000000001
43
0.0000000001
44
0.0000000001
40
0
40
0
40
0
40
0
40
0
40
0
40
0.050000000000000003
40
0.10000000000000001
40
0.15000000000000002
40
0.20000000000000001
40
0.25
40
0.29999999999999999
40
0.34999999999999998
40
0.39999999999999997
40
0.44999999999999996
40
0.49999999999999994
40
0.54999999999999993
40
0.59999999999999998
40
0.65000000000000002
40
0.70000000000000007
40
0.75000000000000011
40
0.80000000000000016
40
0.8500000000000002
40
0.90000000000000024
40
0.95000000000000029
40
1
40
1
40
1
40
1
40
1
40
1
10
131.90994071960449
20
6.6303372255750226
30
0
10
132.28620907480183
20
6.6499652392981643
30
0
10
133.02447996961916
20
6.6889242092309056
30
0
10
134.08908900312602
20
6.7464714965289314
30
0
10
135.42262264544527
20
6.821411551780864
30
0
10
136.94464317071404
20
6.9123321139343759
30
0
10
138.32039401992719
20
7.0012605698239465
30
0
10
139.54998749327012
20
7.0897912332807644
30
0
10
140.63630004128501
20
7.1806562806899921
30
0
10
141.58653029247066
20
7.278053645659428
30
0
10
142.41361260705219
20
7.3879724068676254
30
0
10
143.13861810553885
20
7.5185811070847155
30
0
10
143.78500632853519
20
7.6802748596381498
30
0
10
144.37132294851565
20
7.8857495422947981
30
0
10
144.90533240840028
20
8.1499459319130239
30
0
10
145.37536405194419
20
8.4903587854480271
30
0
10
145.75565419827581
20
8.9252542806213935
30
0
10
146.01589225802894
20
9.4712756971277674
30
0
10
146.13001223130343
20
10.140897470461429
30
0
10
146.08356881060652
20
10.940464712522802
30
0
10
145.86964815646968
20
11.872349843730172
30
0
10
145.56318382508536
20
12.723591989396601
30
0
10
145.25758352710869
20
13.420986881234926
30
0
10
145.02032123879036
20
13.912015392974279
30
0
10
144.89330779040137
20
14.164054342278824
30
0
0
CIRCLE
5
456
100
AcDbEntity
8
0
100
AcDbCircle
10
112.5099451207234
20
10.130487225575017
30
0
40
1.5000154645743005
0
LINE
5
457
100
AcDbEntity
8
0
100
AcDbLine
10
103.20006058446437
20
54.403983781666334
30
0
11
103.20006058446437
21
54.404672748035956
31
0
0
LINE
5
458
100
AcDbEntity
8
0
100
AcDbLine
10
94.40006058446437
20
57.403937225575021
30
0
11
94.40006058446437
21
54.403937225575021
31
0
0
SPLINE
5
459
100
AcDbEntity
8
0
100
AcDbSpline
70
1064
71
5
72
31
73
25
74
0
42
0.000000001
43
0.0000000001
44
0.0000000001
40
0
40
0
40
0
40
0
40
0
40
0
40
0.050000000000000003
40
0.10000000000000001
40
0.15000000000000002
40
0.20000000000000001
40
0.25
40
0.29999999999999999
40
0.34999999999999998
40
0.39999999999999997
40
0.44999999999999996
40
0.49999999999999994
40
0.54999999999999993
40
0.59999999999999998
40
0.65000000000000002
40
0.70000000000000007
40
0.75000000000000011
40
0.80000000000000016
40
0.8500000000000002
40
0.90000000000000024
40
0.95000000000000029
40
1
40
1
40
1
40
1
40
1
40
1
10
131.90994071960449
20
30.63033722557503
30
0
10
132.28620907476898
20
30.610709211855106
30
0
10
133.02447996952787
20
30.571750241928122
30
0
10
134.08908900296896
20
30.514202954636701
30
0
10
135.42262264524277
20
30.439262899389337
30
0
10
136.94464317051177
20
30.348342337235422
30
0
10
138.32039401976428
20
30.259413881341143
30
0
10
139.54998749316633
20
30.170883217877794
30
0
10
140.63630004124133
20
30.080018170462775
30
0
10
141.58653029247202
20
29.982620805490026
30
0
10
142.41361260707546
20
29.872702044281748
30
0
10
143.13861810556313
20
29.742093344066376
30
0
10
143.7850063285486
20
29.580399591514283
30
0
10
144.37132294851648
20
29.374924908856578
30
0
10
144.90533240839443
20
29.110728519234573
30
0
10
145.37536405193916
20
28.770315665695488
30
0
10
145.7556541982749
20
28.335420170521836
30
0
10
146.01589225803022
20
27.789398754022237
30
0
10
146.13001223130161
20
27.119776980702174
30
0
10
146.08356881059771
20
26.320209738655986
30
0
10
145.8696481564545
20
25.388324607457491
30
0
10
145.56318382507018
20
24.537082461786564
30
0
10
145.2575835270988
20
23.839687569935624
30
0
10
145.02032123878666
20
23.348659058183422
30
0
10
144.89330779040148
20
23.096620108871345
30
0
0
ARC
5
460
100
AcDbEntity
8
0
100
AcDbCircle
10
15.48505747910276
20
11.854437225575015
30
0
40
3.9999999999999991
100
AcDbArc
50
179.99997013012162
51
359.9999701301216
0
LINE
5
461
100
AcDbEntity
8
0
100
AcDbLine
10
103.20005226135254
20
54.403937225575021
30
0
11
103.20006058446437
21
54.40394028181511
31
0
0
ARC
5
462
100
AcDbEntity
8
0
100
AcDbCircle
10
112.93280521597795
20
27.186684069851516
30
0
40
3.4514770018159986
100
AcDbArc
50
90.243885113360648
51
172.61476230136944
0
ARC
5
463
100
AcDbEntity
8
0
100
AcDbCircle
10
129.6948197144682
20
25.864941432139958
30
0
40
5.2550697555298669
100
AcDbArc
50
65.069363193640072
51
113.99596033034219
0
LINE
5
464
100
AcDbEntity
8
0
100
AcDbLine
10
99.400160584464373
20
47.903937225575021
30
0
11
100.65016058446437
21
47.903937225575021
31
0
0
LINE
5
465
100
AcDbEntity
8
0
100
AcDbLine
10
103.20006058446437
20
54.40394028181511
30
0
11
103.20006058446437
21
54.403983781666334
31
0
0
LINE
5
466
100
AcDbEntity
8
0
100
AcDbLine
10
117.88271058446438
20
30.659262225575041
30
0
11
127.55776058446436
21
30.665837225575036
31
0
0
SPLINE
5
467
100
AcDbEntity
8
0
100
AcDbSpline
70
1064
71
5
72
26
73
20
74
0
42
0.000000001
43
0.0000000001
44
0.0000000001
40
0
40
0
40
0
40
0
40
0
40
0
40
0.066666666666666666
40
0.13333333333333333
40
0.20000000000000001
40
0.26666666666666666
40
0.33333333333333331
40
0.39999999999999997
40
0.46666666666666662
40
0.53333333333333333
40
0.59999999999999998
40
0.66666666666666663
40
0.73333333333333328
40
0.79999999999999993
40
0.86666666666666659
40
0.93333333333333324
40
1
40
1
40
1
40
1
40
1
40
1
10
120.63651294103025
20
40.530559148825375
30
0
10
120.58423785601455
20
40.533055886770633
30
0
10
120.4818233962674
20
40.534764366832292
30
0
10
120.33460928147369
20
40.527471848425655
30
0
10
120.15122831663018
20
40.497896882315104
30
0
10
119.94305357828024
20
40.427482605693868
30
0
10
119.75348204632667
20
40.324112725305675
30
0
10
119.57689335459251
20
40.189937785483792
30
0
10
119.40264720244399
20
40.030053456911567
30
0
10
119.21660593032918
20
39.851678137959169
30
0
10
119.00363178902161
20
39.662783296801869
30
0
10
118.74958958000349
20
39.471066751020821
30
0
10
118.44398630076542
20
39.282690168004265
30
0
10
118.0814910717757
20
39.101534744041814
30
0
10
117.66000557301444
20
38.929899291481156
30
0
10
117.1795863827309
20
38.768887058195489
30
0
10
116.74896193094624
20
38.648854118376789
30
0
10
116.40050723120737
20
38.563742181730113
30
0
10
116.15695856707526
20
38.509168646800035
30
0
10
116.0323728527386
20
38.482423814553812
30
0
0
LWPOLYLINE
5
468
100
AcDbEntity
8
0
100
AcDbPolyline
90
4
70
1
43
0.0
10
14.485050320625311
20
15.554437225534931
42
-1.0000008393075124
10
16.485060584462982
20
15.554435546992186
10
16.485054373741157
20
11.854437225566159
42
-0.99999861299178494
10
14.48506058446821
20
11.854434451574134
0
ARC
5
469
100
AcDbEntity
8
0
100
AcDbCircle
10
29.95685925279242
20
33.521227245771676
30
0
40
10.471798668328054
100
AcDbArc
50
180
51
208.52841082395807
0
LINE
5
470
100
AcDbEntity
8
0
100
AcDbLine
10
103.20006058446437
20
54.415668084950028
30
0
11
103.20006058446437
21
54.591480975575024
31
0
0
LINE
5
471
100
AcDbEntity
8
0
100
AcDbLine
10
112.91811370946435
20
6.6225446474500593
30
0
11
117.88271058446435
21
6.6014122255750385
31
0
0
LINE
5
472
100
AcDbEntity
8
0
100
AcDbLine
10
112.91811370946436
20
30.638129803700028
30
0
11
117.88271058446438
21
30.659262225575041
31
0
0
ARC
5
473
100
AcDbEntity
8
0
100
AcDbCircle
10
112.93280521597794
20
10.073990381298575
30
0
40
3.4514770018160035
100
AcDbArc
50
187.38523769863056
51
269.75611488663935
0
CIRCLE
5
474
100
AcDbEntity
8
0
100
AcDbCircle
10
142.10995723238722
20
10.130487225575017
30
0
40
1.5000033529104753
0
LINE
5
475
100
AcDbEntity
8
0
100
AcDbLine
10
142.54631524980252
20
40.609418697955078
30
0
11
143.28006063665015
21
41.810887211807952
31
0
0
CIRCLE
5
476
100
AcDbEntity
8
0
100
AcDbCircle
10
40.805326846864375
20
8.9248780703159767
30
0
40
1.5000307948488749
0
LINE
5
477
100
AcDbEntity
8
0
100
AcDbLine
10
99.400160584464373
20
44.403937225575021
30
0
11
99.400160584464373
21
47.903937225575021
31
0
0
ARC
5
478
100
AcDbEntity
8
0
100
AcDbCircle
10
146.68456058446421
20
15.053668543920216
30
0
40
1.9999999999999929
100
AcDbArc
50
180
51
206.41099779409748
0
SPLINE
5
479
100
AcDbEntity
8
0
100
AcDbSpline
70
1064
71
5
72
26
73
20
74
0
42
0.000000001
43
0.0000000001
44
0.0000000001
40
0
40
0
40
0
40
0
40
0
40
0
40
0.066666666666666666
40
0.13333333333333333
40
0.20000000000000001
40
0.26666666666666666
40
0.33333333333333331
40
0.39999999999999997
40
0.46666666666666662
40
0.53333333333333333
40
0.59999999999999998
40
0.66666666666666663
40
0.73333333333333328
40
0.79999999999999993
40
0.86666666666666659
40
0.93333333333333324
40
1
40
1
40
1
40
1
40
1
40
1
10
128.21711350847897
20
37.963235632307331
30
0
10
128.17335453055318
20
37.934529011728941
30
0
10
128.08949527272614
20
37.875713492119139
30
0
10
127.97468298678425
20
37.783283435232853
30
0
10
127.84370839869381
20
37.651568158360298
30
0
10
127.71667997095577
20
37.472239770778508
30
0
10
127.62407267123125
20
37.277184430036129
30
0
10
127.56007546950087
20
37.064838394725641
30
0
10
127.51308502163587
20
36.833069937250443
30
0
10
127.467420852689
20
36.579408956779673
30
0
10
127.40615075485088
20
36.30140676078279
30
0
10
127.31331444866203
20
35.996982553265148
30
0
10
127.17680117955942
20
35.664953595719091
30
0
10
126.99001686547521
20
35.305326429520882
30
0
10
126.74991272186462
20
34.918727471355552
30
0
10
126.45588604866893
20
34.506082523354507
30
0
10
126.1780571408181
20
34.155859133094005
30
0
10
125.94617890814261
20
33.882185596288956
30
0
10
125.78122141892392
20
33.694880366064666
30
0
10
125.696149676752
20
33.600013696715408
30
0
0
ARC
5
480
100
AcDbEntity
8
0
100
AcDbCircle
10
30.081152354351545
20
17.756011182739261
30
0
40
10.596091769887185
100
AcDbArc
50
151.5808730773584
51
180
0
LINE
5
481
100
AcDbEntity
8
0
100
AcDbLine
10
96.40006058446437
20
44.403937225575021
30
0
11
99.400160584464373
21
44.403937225575021
31
0
0
LINE
5
482
100
AcDbEntity
8
0
100
AcDbLine
10
144.01383724639703
20
43.012336657056608
30
0
11
143.28006063665015
21
41.810887211807952
31
0
0
LINE
5
483
100
AcDbEntity
8
0
100
AcDbLine
10
94.40006058446437
20
54.403937225575021
30
0
11
96.40006058446437
21
54.403937225575021
31
0
0
LINE
5
484
100
AcDbEntity
8
0
100
AcDbLine
10
103.20006058446437
20
54.404672748035956
30
0
11
103.20006058446437
21
54.415668084950028
31
0
0
ARC
5
485
100
AcDbEntity
8
0
100
AcDbCircle
10
15.485059797763832
20
25.654387225575014
30
0
40
6
100
AcDbArc
50
150.89378282693653
51
208.57907725976378
0
LINE
5
486
100
AcDbEntity
8
0
100
AcDbLine
10
103.20006058446437
20
57.404037225575024
30
0
11
107.40006058446437
21
57.403937225575021
31
0
0
ARC
5
487
100
AcDbEntity
8
0
100
AcDbCircle
10
1.6473031740139259
20
33.358350583103665
30
0
40
9.837757410450461
100
AcDbArc
50
-29.106217173063499
51
0
0
LINE
5
488
100
AcDbEntity
8
0
100
AcDbLine
10
136.38411802013457
20
35.330286436476818
30
0
11
135.08428600748232
21
34.789596487074704
31
0
0
LWPOLYLINE
5
489
100
AcDbEntity
8
0
100
AcDbPolyline
90
4
70
1
43
0.0
10
62.240960584464354
20
14.424915030315963
10
62.240960584464354
20
22.424915030315972
10
59.240860584464372
20
22.424915030315972
10
59.240860584464372
20
14.424915030315963
0
LINE
5
490
100
AcDbEntity
8
0
100
AcDbLine
10
88.400060584464356
20
57.403937225575021
30
0
11
94.40006058446437
21
57.403937225575021
31
0
0
LINE
5
491
100
AcDbEntity
8
0
100
AcDbLine
10
95.15006058446437
20
47.903937225575021
30
0
11
96.40006058446437
21
47.903937225575021
31
0
0
LINE
5
492
100
AcDbEntity
8
0
100
AcDbLine
10
144.68456058446441
20
22.207005907230108
30
0
11
144.68456058446424
21
15.053668543920228
31
0
0
LINE
5
493
100
AcDbEntity
8
0
100
AcDbLine
10
117.88271058446435
20
6.6014122255750385
30
0
11
127.55776058446435
21
6.5948372255750254
31
0
0
LINE
5
494
100
AcDbEntity
8
0
100
AcDbLine
10
125.696149676752
20
33.600013696715408
30
0
11
124.32675391036244
21
33.926608426455985
31
0
0
LINE
5
495
100
AcDbEntity
8
0
100
AcDbLine
10
111.08402183517396
20
48.112602071994147
30
0
11
110.97146531724189
21
49.515898160769069
31
0
0
LINE
5
496
100
AcDbEntity
8
0
100
AcDbLine
10
95.15006058446437
20
50.403937225575028
30
0
11
95.15006058446437
21
47.903937225575021
31
0
0
LINE
5
497
100
AcDbEntity
8
0
100
AcDbLine
10
133.78446804644193
20
34.248872758487998
30
0
11
135.08428600748232
21
34.789596487074704
31
0
0
LINE
5
498
100
AcDbEntity
8
0
100
AcDbLine
10
96.40006058446437
20
14.303937225575009
30
0
11
95.15006058446437
21
14.303937225575009
31
0
0
ARC
5
499
100
AcDbEntity
8
0
100
AcDbCircle
10
15.485059797763832
20
25.654387225575014
30
0
40
5.9999999999999973
100
AcDbArc
50
-28.419126922641684
51
28.528410823958275
0
LINE
5
500
100
AcDbEntity
8
0
100
AcDbLine
10
95.15006058446437
20
11.803937225575009
30
0
11
96.40006058446437
21
11.803937225575009
31
0
0
LINE
5
501
100
AcDbEntity
8
0
100
AcDbLine
10
99.400160584464373
20
54.403937225575021
30
0
11
103.20006058446437
21
54.403937225575021
31
0
0
LINE
5
502
100
AcDbEntity
8
0
100
AcDbLine
10
96.40006058446437
20
50.403937225575028
30
0
11
95.15006058446437
21
50.403937225575028
31
0
0
LINE
5
503
100
AcDbEntity
8
0
100
AcDbLine
10
122.95734965705907
20
34.253167568931957
30
0
11
124.32675391036244
21
33.926608426455985
31
0
0
LWPOLYLINE
5
504
100
AcDbEntity
8
0
100
AcDbPolyline
90
4
70
1
43
0.0
10
104.40016058446437
20
25.208237225575022
10
101.10006058446437
20
25.208237225575022
10
101.10006058446437
20
28.508237225575005
10
104.40016058446437
20
28.508237225575005
0
LINE
5
505
100
AcDbEntity
8
0
100
AcDbLine
10
94.40006058446437
20
5.7039372255750163
30
0
11
88.400060584464356
21
5.7039372255750163
31
0
0
LINE
5
506
100
AcDbEntity
8
0
100
AcDbLine
10
110.85887233120935
20
50.919191324009113
30
0
11
110.97146531724189
21
49.515898160769069
31
0
0
LINE
5
507
100
AcDbEntity
8
0
100
AcDbLine
10
96.40006058446437
20
47.903937225575021
30
0
11
96.40006058446437
21
44.403937225575021
31
0
0
SPLINE
5
508
100
AcDbEntity
8
0
100
AcDbSpline
70
1064
71
5
72
26
73
20
74
0
42
0.000000001
43
0.0000000001
44
0.0000000001
40
0
40
0
40
0
40
0
40
0
40
0
40
0.066666666666666666
40
0.13333333333333333
40
0.20000000000000001
40
0.26666666666666666
40
0.33333333333333331
40
0.39999999999999997
40
0.46666666666666662
40
0.53333333333333333
40
0.59999999999999998
40
0.66666666666666663
40
0.73333333333333328
40
0.79999999999999993
40
0.86666666666666659
40
0.93333333333333324
40
1
40
1
40
1
40
1
40
1
40
1
10
115.55725985399062
20
52.740761796398054
30
0
10
115.52217841006042
20
52.701926110430115
30
0
10
115.45119127872479
20
52.628085283978578
30
0
10
115.34223798625476
20
52.528816172594063
30
0
10
115.19198464708697
20
52.419604493017644
30
0
10
114.99528764482045
20
52.321598465923707
30
0
10
114.78833187270067
20
52.260019197527107
30
0
10
114.56868040740751
20
52.22936443723907
30
0
10
114.33244623619188
20
52.218495379506578
30
0
10
114.07478234515879
20
52.21229629910713
30
0
10
113.79067079683793
20
52.194411277840643
30
0
10
113.47560633543014
20
52.149388361043627
30
0
10
113.12656183576362
20
52.065441719942484
30
0
10
112.74253190026904
20
51.936054366204907
30
0
10
112.32366769082557
20
51.758117500194516
30
0
10
111.87079156047386
20
51.530893495695693
30
0
10
111.48208323943595
20
51.310096832954386
30
0
10
111.1760692760021
20
51.122960054854246
30
0
10
110.96566969334306
20
50.988698228058738
30
0
10
110.85887233120935
20
50.919191324009113
30
0
0
LINE
5
509
100
AcDbEntity
8
0
100
AcDbLine
10
116.0323728527386
20
38.482423814553812
30
0
11
115.11647597132227
21
39.551555137222778
31
0
0
ARC
5
510
100
AcDbEntity
8
0
100
AcDbCircle
10
128.37751788544986
20
50.912242174735525
30
0
40
12.950000000000044
100
AcDbArc
50
197.29029120934993
51
207.88280005602579
0
LINE
5
511
100
AcDbEntity
8
0
100
AcDbLine
10
114.20055130617919
20
40.620662657672646
30
0
11
115.11647597132227
21
39.551555137222778
31
0
0
LWPOLYLINE
5
512
100
AcDbEntity
8
0
100
AcDbPolyline
90
4
70
1
43
0.0
10
101.70006058446435
20
32.203937225575032
10
95.200060584464381
20
32.203937225575032
10
95.200060584464381
20
35.203937225575011
10
101.70006058446435
20
35.203937225575011
0
LINE
5
513
100
AcDbEntity
8
0
100
AcDbLine
10
100.65016058446437
20
14.303937225575009
30
0
11
99.400160584464373
21
14.303937225575009
31
0
0
LWPOLYLINE
5
514
100
AcDbEntity
8
0
100
AcDbPolyline
90
4
70
1
43
0.0
10
91.541160584464365
20
22.858237225575031
10
91.541160584464365
20
30.858237225575035
10
94.541160584464365
20
30.858237225575035
10
94.541160584464365
20
22.858237225575031
0
LINE
5
515
100
AcDbEntity
8
0
100
AcDbLine
10
99.400160584464373
20
11.803937225575009
30
0
11
100.65016058446437
21
11.803937225575009
31
0
0
SPLINE
5
516
100
AcDbEntity
8
0
100
AcDbSpline
70
1064
71
5
72
26
73
20
74
0
42
0.000000001
43
0.0000000001
44
0.0000000001
40
0
40
0
40
0
40
0
40
0
40
0
40
0.066666666666666666
40
0.13333333333333333
40
0.20000000000000001
40
0.26666666666666666
40
0.33333333333333331
40
0.39999999999999997
40
0.46666666666666662
40
0.53333333333333333
40
0.59999999999999998
40
0.66666666666666663
40
0.73333333333333328
40
0.79999999999999993
40
0.86666666666666659
40
0.93333333333333324
40
1
40
1
40
1
40
1
40
1
40
1
10
116.93093439858679
20
44.855987021732695
30
0
10
116.92537995769833
20
44.803947936448346
30
0
10
116.91135271081045
20
44.702484264107511
30
0
10
116.88155656523449
20
44.558132727512998
30
0
10
116.82419207501169
20
44.381461925885731
30
0
10
116.72266735485741
20
44.186557787274914
30
0
10
116.5914320040246
20
44.015093561857547
30
0
10
116.43174865184386
20
43.861185447836597
30
0
10
116.24701986455486
20
43.713537233466965
30
0
10
116.04220912590347
20
43.557071036879826
30
0
10
115.82287060671098
20
43.375605172647454
30
0
10
115.59444190955512
20
43.153990623926092
30
0
10
115.36140157508228
20
42.880913155402311
30
0
10
115.12676680921955
20
42.550509454888413
30
0
10
114.89248721108945
20
42.160353301359741
30
0
10
114.65966164410197
20
41.710331309652481
30
0
10
114.47497102868324
20
41.303226038616536
30
0
10
114.3373967701344
20
40.971958710121285
30
0
10
114.24609705393932
20
40.739668838739505
30
0
10
114.20055130617919
20
40.620662657672646
30
0
0
LINE
5
517
100
AcDbEntity
8
0
100
AcDbLine
10
96.40006058446437
20
18.103937225575038
30
0
11
96.40006058446437
21
14.303937225575009
31
0
0
LINE
5
518
100
AcDbEntity
8
0
100
AcDbLine
10
99.400160584464373
20
8.7039372255750234
30
0
11
99.400160584464373
21
11.803937225575009
31
0
0
ARC
5
519
100
AcDbEntity
8
0
100
AcDbCircle
10
128.37751788544986
20
50.912242174735525
30
0
40
12.949999999999998
100
AcDbArc
50
146.50253434146728
51
171.88280005602584
0
LINE
5
520
100
AcDbEntity
8
0
100
AcDbLine
10
94.40006058446437
20
8.7039372255750234
30
0
11
96.40006058446437
21
8.7039372255750234
31
0
0
LINE
5
521
100
AcDbEntity
8
0
100
AcDbLine
10
100.65016058446437
20
11.803937225575009
30
0
11
100.65016058446437
21
14.303937225575009
31
0
0
LINE
5
522
100
AcDbEntity
8
0
100
AcDbLine
10
96.40006058446437
20
11.803937225575009
30
0
11
96.40006058446437
21
8.7039372255750234
31
0
0
SPLINE
5
523
100
AcDbEntity
8
0
100
AcDbSpline
70
1064
71
5
72
26
73
20
74
0
42
0.000000001
43
0.0000000001
44
0.0000000001
40
0
40
0
40
0
40
0
40
0
40
0
40
0.066666666666666666
40
0.13333333333333333
40
0.20000000000000001
40
0.26666666666666666
40
0.33333333333333331
40
0.39999999999999997
40
0.46666666666666662
40
0.53333333333333333
40
0.59999999999999998
40
0.66666666666666663
40
0.73333333333333328
40
0.79999999999999993
40
0.86666666666666659
40
0.93333333333333324
40
1
40
1
40
1
40
1
40
1
40
1
10
116.01271315526876
20
47.063332720813264
30
0
10
115.97188926883405
20
47.096079148234047
30
0
10
115.8900384497833
20
47.157659046629334
30
0
10
115.7666532943048
20
47.238289560849566
30
0
10
115.6009112483799
20
47.322151537336943
30
0
10
115.39110587393522
20
47.38754723207564
30
0
10
115.17697999175455
20
47.415346592968902
30
0
10
114.95525068831054
20
47.410593015235172
30
0
10
114.72030493963129
20
47.383663194824486
30
0
10
114.46494800698116
20
47.348706846473689
30
0
10
114.18161870541282
20
47.321070769163697
30
0
10
113.86340608276112
20
47.315291089380167
30
0
10
113.50544285890309
20
47.342520332898189
30
0
10
113.10569757165311
20
47.409031865860356
30
0
10
112.6638238524619
20
47.517918828098153
30
0
10
112.18051594693418
20
47.670040510040451
30
0
10
111.76157985545869
20
47.826046523918166
30
0
10
111.42964654048311
20
47.962006054398081
30
0
10
111.20053401327917
20
48.061009450234337
30
0
10
111.08402183517396
20
48.112602071994147
30
0
0
LINE
5
524
100
AcDbEntity
8
0
100
AcDbLine
10
99.400160584464373
20
14.303937225575009
30
0
11
99.400160584464373
21
18.103937225575038
31
0
0
LINE
5
525
100
AcDbEntity
8
0
100
AcDbLine
10
101.40006058446437
20
8.7039372255750234
30
0
11
101.40006058446437
21
5.7039372255750163
31
0
0
LINE
5
526
100
AcDbEntity
8
0
100
AcDbLine
10
94.40006058446437
20
5.7039372255750163
30
0
11
94.40006058446437
21
8.7039372255750234
31
0
0
LINE
5
527
100
AcDbEntity
8
0
100
AcDbLine
10
95.15006058446437
20
14.303937225575009
30
0
11
95.15006058446437
21
11.803937225575009
31
0
0
LINE
5
528
100
AcDbEntity
8
0
100
AcDbLine
10
107.40006058446437
20
5.7039372255750163
30
0
11
101.40006058446437
21
5.7039372255750163
31
0
0
LINE
5
529
100
AcDbEntity
8
0
100
AcDbLine
10
99.400160584464373
20
18.103937225575038
30
0
11
96.40006058446437
21
18.103937225575038
31
0
0
LINE
5
530
100
AcDbEntity
8
0
100
AcDbLine
10
101.40006058446437
20
8.7039372255750234
30
0
11
99.400160584464373
21
8.7039372255750234
31
0
0
LINE
5
531
100
AcDbEntity
8
0
100
AcDbLine
10
72.778760584464365
20
110.34823722557499
30
0
11
72.778845305838885
21
107.34823644585089
31
0
0
LINE
5
532
100
AcDbEntity
8
0
100
AcDbLine
10
78.331060584464382
20
110.34823722557499
30
0
11
78.331027507781982
21
107.34813722557503
31
0
0
LINE
5
533
100
AcDbEntity
8
0
100
AcDbLine
10
56.939747404816899
20
178.49363378633797
30
0
11
136.93973697870268
21
178.48628722557498
31
0
0
ENDSEC
0
SECTION
2
OBJECTS
0
DICTIONARY
5
C
100
AcDbDictionary
3
ACAD_GROUP
350
D
3
ACAD_MLINESTYLE
350
17
0
DICTIONARY
5
D
100
AcDbDictionary
0
DICTIONARY
5
1A
330
C
100
AcDbDictionary
0
DICTIONARY
5
17
100
AcDbDictionary
0
ENDSEC
0
EOF
