0
SECTION
2
HEADER
9
$INSUNITS
70
4
9
$ACADVER
1
AC1014
9
$HANDSEED
5
FFFF
0
ENDSEC
0
SECTION
2
TABLES
0
TABLE
2
VPORT
5
8
100
AcDbSymbolTable
0
ENDTAB
0
TABLE
2
LTYPE
5
5
100
AcDbSymbolTable
0
LTYPE
5
14
100
AcDbSymbolTableRecord
100
AcDbLinetypeTableRecord
2
BYBLOCK
70
0
0
LTYPE
5
15
100
AcDbSymbolTableRecord
100
AcDbLinetypeTableRecord
2
BYLAYER
70
0
0
ENDTAB
0
TABLE
2
LAYER
5
2
100
AcDbSymbolTable
70
2
0
LAYER
5
50
100
AcDbSymbolTableRecord
100
AcDbLayerTableRecord
2
0
70
0
6
CONTINUOUS
0
ENDTAB
0
TABLE
2
STYLE
5
3
100
AcDbSymbolTable
70
1
0
STYLE
5
11
100
AcDbSymbolTableRecord
100
AcDbTextStyleTableRecord
2
STANDARD
70
0
0
ENDTAB
0
TABLE
2
VIEW
5
6
100
AcDbSymbolTable
70
0
0
ENDTAB
0
TABLE
2
UCS
5
7
100
AcDbSymbolTable
70
0
0
ENDTAB
0
TABLE
2
APPID
5
9
100
AcDbSymbolTable
70
2
0
APPID
5
12
100
AcDbSymbolTableRecord
100
AcDbRegAppTableRecord
2
ACAD
70
0
0
ENDTAB
0
TABLE
2
DIMSTYLE
5
A
100
AcDbSymbolTable
70
1
0
ENDTAB
0
TABLE
2
BLOCK_RECORD
5
1
100
AcDbSymbolTable
70
1
0
BLOCK_RECORD
5
1F
100
AcDbSymbolTableRecord
100
AcDbBlockTableRecord
2
*MODEL_SPACE
0
BLOCK_RECORD
5
1B
100
AcDbSymbolTableRecord
100
AcDbBlockTableRecord
2
*PAPER_SPACE
0
ENDTAB
0
ENDSEC
0
SECTION
2
BLOCKS
0
BLOCK
5
20
100
AcDbEntity
100
AcDbBlockBegin
2
*MODEL_SPACE
0
ENDBLK
5
21
100
AcDbEntity
100
AcDbBlockEnd
0
BLOCK
5
1C
100
AcDbEntity
100
AcDbBlockBegin
2
*PAPER_SPACE
0
ENDBLK
5
1D
100
AcDbEntity
100
AcDbBlockEnd
0
ENDSEC
0
SECTION
2
ENTITIES
0
LWPOLYLINE
5
100
100
AcDbEntity
8
0
100
AcDbPolyline
90
4
70
1
43
0.0
10
297.54317810923015
20
200.02400763221976
10
147.54317810923015
20
200.02400763221976
10
147.54317810923015
20
0.024007632219785746
10
297.54317810923021
20
0.024007632219777975
0
CIRCLE
5
101
100
AcDbEntity
8
0
100
AcDbCircle
10
226.64923198321216
20
56.102501083464908
30
0
40
1.3250000000000091
0
CIRCLE
5
102
100
AcDbEntity
8
0
100
AcDbCircle
10
246.94885405220046
20
114.89182985550815
30
0
40
1.3250000000000086
0
LWPOLYLINE
5
103
100
AcDbEntity
8
0
100
AcDbPolyline
90
4
70
1
43
0.0
10
247.23832089812925
20
158.58472808871301
10
238.61173257278864
20
149.95791095086267
10
254.87506482092857
20
133.69433126536256
10
263.50183317584623
20
142.32096837089802
0
LWPOLYLINE
5
104
100
AcDbEntity
8
0
100
AcDbPolyline
90
8
70
1
43
0.0
10
292.30468001887596
20
60.602501083464908
42
-0.41421356237309348
10
282.30468001887596
20
50.602501083464908
10
211.59378394754842
20
50.602501083464901
42
-0.41421356237309792
10
201.59378394754839
20
60.602501083464887
10
201.59378394754842
20
185.60250108346492
42
-0.41421356237309293
10
211.59378394754842
20
195.60250108346492
10
282.3046800188759
20
195.60250108346492
42
-0.41421356237309293
10
292.3046800188759
20
185.60250108346492
0
CIRCLE
5
105
100
AcDbEntity
8
0
100
AcDbCircle
10
278.74923198321216
20
89.202501083464909
30
0
40
1.3249999999999948
0
CIRCLE
5
106
100
AcDbEntity
8
0
100
AcDbCircle
10
244.0564285645068
20
139.139079702749
30
0
40
1.3249932043622679
0
CIRCLE
5
107
100
AcDbEntity
8
0
100
AcDbCircle
10
271.89865499526093
20
125.52009515000117
30
0
40
1.4999114444410335
0
CIRCLE
5
108
100
AcDbEntity
8
0
100
AcDbCircle
10
278.7492319832121
20
61.30250108346489
30
0
40
1.3249999999999882
0
LWPOLYLINE
5
109
100
AcDbEntity
8
0
100
AcDbPolyline
90
8
70
1
43
0.0
10
244.12097946237625
20
188.43094972442145
42
-0.41421356237310608
10
249.77783371170494
20
188.43090669183707
10
285.13290381564201
20
153.07529868059521
42
-0.41421356237309875
10
285.13286078305759
20
147.41844443126652
10
249.77725965985766
20
112.06338121526653
42
-0.41421356237309964
10
244.12040541052897
20
112.0634242478509
10
208.76533530659188
20
147.41903225909277
42
-0.41421356237310053
10
208.76537833917627
20
153.07588650842143
0
CIRCLE
5
110
100
AcDbEntity
8
0
100
AcDbCircle
10
221.89861070115398
20
125.52009515000123
30
0
40
1.4999508866060656
0
CIRCLE
5
111
100
AcDbEntity
8
0
100
AcDbCircle
10
227.94923198321214
20
104.4025010834649
30
0
40
1.3249999999999904
0
CIRCLE
5
112
100
AcDbEntity
8
0
100
AcDbCircle
10
221.89861070115396
20
175.5200951500012
30
0
40
1.4999508866060656
0
CIRCLE
5
113
100
AcDbEntity
8
0
100
AcDbCircle
10
271.89865499526081
20
175.52009515000117
30
0
40
1.4998422351515726
0
CIRCLE
5
114
100
AcDbEntity
8
0
100
AcDbCircle
10
211.59378394754842
20
150.2474378674649
30
0
40
1.3249964314272673
0
CIRCLE
5
115
100
AcDbEntity
8
0
100
AcDbCircle
10
282.3046800188759
20
150.24711791299271
30
0
40
1.3249731003206442
0
CIRCLE
5
116
100
AcDbEntity
8
0
100
AcDbCircle
10
246.94938507074838
20
185.60250108346492
30
0
40
1.3249464570686564
0
CIRCLE
5
117
100
AcDbEntity
8
0
100
AcDbCircle
10
258.05695715809225
20
153.13997964778477
30
0
40
1.3248769746548283
0
LINE
5
118
100
AcDbEntity
8
0
100
AcDbLine
10
157.89846522281994
20
5.6854056421081554
30
0
11
157.89836522281996
21
43.485405642108162
31
0
0
LWPOLYLINE
5
119
100
AcDbEntity
8
0
100
AcDbPolyline
90
4
70
1
43
0.0
10
178.39746522281996
20
10.65080564210815
10
178.39746522281996
20
7.4508056421081479
10
165.39746522281996
20
7.4508056421081479
10
165.39746522281996
20
10.65080564210815
0
LINE
5
120
100
AcDbEntity
8
0
100
AcDbLine
10
214.89836522281993
20
2.6855056421081445
30
0
11
160.8983652228199
21
2.6855056421081445
31
0
0
LWPOLYLINE
5
121
100
AcDbEntity
8
0
100
AcDbPolyline
90
8
70
1
43
0.0
10
230.70515487327975
20
46.620705642108163
10
282.70500031718529
20
46.620705642108149
42
-0.41421356237309503
10
286.70500031718524
20
42.620705642108163
10
286.70500031718524
20
6.8208056421081888
42
-0.41421356237309503
10
282.70500031718529
20
2.8208056421081884
10
230.70515487327975
20
2.8208056421082031
42
-0.41421356237309503
10
226.70515487327975
20
6.8208056421081897
10
226.70515487327975
20
42.620705642108163
42
-0.41421356237309503
0
ARC
5
122
100
AcDbEntity
8
0
100
AcDbCircle
10
214.89849424799289
20
43.485421515499567
30
0
40
3.0000709748690824
100
AcDbArc
50
-0.00030315096561535219
51
79.52619202494985
0
LWPOLYLINE
5
123
100
AcDbEntity
8
0
100
AcDbPolyline
90
4
70
1
43
0.0
10
160.69836522281992
20
17.485405642108152
10
160.69836522281992
20
23.485405642108169
10
163.89836522281993
20
23.485405642108169
10
163.89836522281993
20
17.485405642108152
0
CIRCLE
5
124
100
AcDbEntity
8
0
100
AcDbCircle
10
166.64604972322081
20
51.390205642108157
30
0
40
1.3250154995991181
0
CIRCLE
5
125
100
AcDbEntity
8
0
100
AcDbCircle
10
197.39846522281994
20
43.985455642108171
30
0
40
1.3248000009435312
0
LWPOLYLINE
5
126
100
AcDbEntity
8
0
100
AcDbPolyline
90
4
70
1
43
0.0
10
208.89836522281996
20
28.28540564210817
10
208.89836522281996
20
40.685405642108151
10
185.89836522281996
20
40.685405642108151
10
185.89836522281996
20
28.28540564210817
0
ARC
5
127
100
AcDbEntity
8
0
100
AcDbCircle
10
160.89809069058089
20
43.485413577889815
30
0
40
2.9997254677714342
100
AcDbArc
50
149.84705437304115
51
180.00015157548282
0
ARC
5
128
100
AcDbEntity
8
0
100
AcDbCircle
10
166.64604972322081
20
51.390205642108157
30
0
40
3.9999953733864793
100
AcDbArc
50
79.388464222633033
51
149.85099072639335
0
LINE
5
129
100
AcDbEntity
8
0
100
AcDbLine
10
158.30426522281994
20
44.992205642108146
30
0
11
163.18716522281994
21
53.399205642108157
31
0
0
LWPOLYLINE
5
130
100
AcDbEntity
8
0
100
AcDbPolyline
90
4
70
1
43
0.0
10
277.70500031718524
20
8.6208056421081576
10
254.70500031718527
20
8.6208056421081576
10
254.70500031718527
20
21.020805642108179
10
277.70500031718524
20
21.020805642108179
0
LINE
5
131
100
AcDbEntity
8
0
100
AcDbLine
10
217.89856522281997
20
43.485405642108162
30
0
11
217.8983652228199
21
5.6854056421081545
31
0
0
LINE
5
132
100
AcDbEntity
8
0
100
AcDbLine
10
167.37336522281993
20
55.323505642108159
30
0
11
215.44386522281997
21
46.435505642108161
31
0
0
ARC
5
133
100
AcDbEntity
8
0
100
AcDbCircle
10
214.89836522281993
20
5.685505643774837
30
0
40
3.0000000016666926
100
AcDbArc
50
270
51
359.99809010892574
0
CIRCLE
5
134
100
AcDbEntity
8
0
100
AcDbCircle
10
162.39841522281995
20
13.985455642108173
30
0
40
1.4998500008334259
0
LWPOLYLINE
5
135
100
AcDbEntity
8
0
100
AcDbPolyline
90
4
70
1
43
0.0
10
229.50500031718531
20
40.520805642108172
10
232.70500031718529
20
40.520805642108172
10
232.70500031718529
20
44.820805642108169
10
229.50500031718531
20
44.820805642108169
0
LWPOLYLINE
5
136
100
AcDbEntity
8
0
100
AcDbPolyline
90
4
70
1
43
0.0
10
280.70500031718524
20
28.067705642108169
10
280.70500031718524
20
25.820805642108144
10
283.90500031718523
20
25.820805642108144
10
283.90500031718523
20
28.067705642108169
0
LWPOLYLINE
5
137
100
AcDbEntity
8
0
100
AcDbPolyline
90
4
70
1
43
0.0
10
229.50480031718527
20
31.82100564210814
10
232.70480031718523
20
31.82100564210814
10
232.70480031718523
20
25.821005642108176
10
229.50480031718527
20
25.821005642108176
0
CIRCLE
5
138
100
AcDbEntity
8
0
100
AcDbCircle
10
213.49841522281992
20
13.985455642108173
30
0
40
1.4998500008334259
0
LWPOLYLINE
5
139
100
AcDbEntity
8
0
100
AcDbPolyline
90
4
70
1
43
0.0
10
215.09846522281998
20
23.485405642108169
10
215.09846522281998
20
21.238505642108176
10
211.89836522281993
20
21.238505642108176
10
211.89836522281993
20
23.485405642108169
0
LWPOLYLINE
5
140
100
AcDbEntity
8
0
100
AcDbPolyline
90
4
70
1
43
0.0
10
234.30500031718532
20
38.620805642108152
10
244.30500031718526
20
38.620805642108152
10
244.30500031718526
20
41.820805642108155
10
234.30500031718532
20
41.820805642108155
0
LWPOLYLINE
5
141
100
AcDbEntity
8
0
100
AcDbPolyline
90
4
70
1
43
0.0
10
280.70500031718524
20
31.820805642108148
10
280.70500031718524
20
29.573905642108169
10
283.90500031718523
20
29.573905642108169
10
283.90500031718523
20
31.820805642108148
0
LWPOLYLINE
5
142
100
AcDbEntity
8
0
100
AcDbPolyline
90
5
70
1
43
0.0
10
215.09846522281998
20
19.738505642108159
10
215.09846522281998
20
17.485405642108152
10
211.89836522281993
20
17.485405642108152
10
211.89836522281993
20
19.732305642108177
10
211.89836522281993
20
19.738505642108159
0
CIRCLE
5
143
100
AcDbEntity
8
0
100
AcDbCircle
10
282.30507536038527
20
35.320764422908148
30
0
40
1.5000230159594599
0
LWPOLYLINE
5
144
100
AcDbEntity
8
0
100
AcDbPolyline
90
4
70
1
43
0.0
10
215.09846522281998
20
7.4854056421081525
10
211.89836522281993
20
7.4854056421081525
10
211.89836522281993
20
10.485405642108159
10
215.09846522281998
20
10.485405642108159
0
CIRCLE
5
145
100
AcDbEntity
8
0
100
AcDbCircle
10
197.39845197999571
20
24.185655642108163
30
0
40
1.3247867581193344
0
CIRCLE
5
146
100
AcDbEntity
8
0
100
AcDbCircle
10
266.20509153638523
20
25.120564422908153
30
0
40
1.3249634592144142
0
ARC
5
147
100
AcDbEntity
8
0
100
AcDbCircle
10
160.8983652228199
20
5.6854056421081287
30
0
40
2.9998999999999754
100
AcDbArc
50
180
51
270
0
LWPOLYLINE
5
148
100
AcDbEntity
8
0
100
AcDbPolyline
90
4
70
1
43
0.0
10
160.69836522281992
20
4.4854056421081454
10
160.69836522281992
20
10.485405642108159
10
163.89836522281993
20
10.485405642108159
10
163.89836522281993
20
4.4854056421081454
0
CIRCLE
5
149
100
AcDbEntity
8
0
100
AcDbCircle
10
231.2050158341267
20
35.320755642108168
30
0
40
1.4998155177748498
0
LWPOLYLINE
5
150
100
AcDbEntity
8
0
100
AcDbPolyline
90
4
70
1
43
0.0
10
283.90500031718523
20
44.820805642108169
10
280.70500031718524
20
44.820805642108169
10
280.70500031718524
20
40.520805642108172
10
283.90500031718523
20
40.520805642108172
0
LWPOLYLINE
5
151
100
AcDbEntity
8
0
100
AcDbPolyline
90
4
70
1
43
0.0
10
264.30500031718526
20
38.620805642108152
10
279.3050003171852
20
38.620805642108152
10
279.3050003171852
20
41.820805642108155
10
264.30500031718526
20
41.820805642108155
0
LWPOLYLINE
5
152
100
AcDbEntity
8
0
100
AcDbPolyline
90
4
70
1
43
0.0
10
205.38946522281992
20
10.685405642108154
10
205.38946522281992
20
7.4854056421081525
10
210.38946522281992
20
7.4854056421081525
10
210.38946522281992
20
10.685405642108154
0
LWPOLYLINE
5
153
100
AcDbEntity
8
0
100
AcDbPolyline
90
4
70
1
43
0.0
10
197.38946522281992
20
10.685405642108154
10
197.38946522281992
20
7.4854056421081525
10
202.38946522281992
20
7.4854056421081525
10
202.38946522281992
20
10.685405642108154
0
CIRCLE
5
154
100
AcDbEntity
8
0
100
AcDbCircle
10
266.20509153638523
20
5.3207851205081607
30
0
40
1.3249793788123743
0
LINE
5
155
100
AcDbEntity
8
0
100
AcDbLine
10
167.15904984982697
20
195.68201080792153
30
0
11
165.77213060920772
21
195.68611202725248
31
0
0
LINE
5
156
100
AcDbEntity
8
0
100
AcDbLine
10
166.65484711767181
20
184.84042163175633
30
0
11
175.83309866122053
21
184.25204404446833
31
0
0
LINE
5
157
100
AcDbEntity
8
0
100
AcDbLine
10
156.72214350089556
20
191.96850600834779
30
0
11
157.794772173496
21
192.84772698780361
31
0
0
LINE
5
158
100
AcDbEntity
8
0
100
AcDbLine
10
165.08353972765627
20
172.84271199103955
30
0
11
165.22029961901242
21
174.22287811586514
31
0
0
LINE
5
159
100
AcDbEntity
8
0
100
AcDbLine
10
155.68148547227838
20
171.52574797973068
30
0
11
154.80226449282253
21
172.5983766523311
31
0
0
LWPOLYLINE
5
160
100
AcDbEntity
8
0
100
AcDbPolyline
90
8
70
1
43
0.0
10
188.52666058446434
20
73.211905642108164
10
188.57666058446432
20
73.211905642108164
10
191.57666058446435
20
73.211905642108164
10
191.62666058446433
20
73.211905642108164
10
191.62666058446433
20
78.211905642108164
10
191.57666058446435
20
78.211905642108164
10
188.57666058446432
20
78.211905642108164
10
188.52666058446434
20
78.211905642108164
0
CIRCLE
5
161
100
AcDbEntity
8
0
100
AcDbCircle
10
167.54492057648545
20
61.497555642108068
30
0
40
1.5000351491751098
0
SPLINE
5
162
100
AcDbEntity
8
0
100
AcDbSpline
70
1064
71
5
72
26
73
20
74
0
42
0.000000001
43
0.0000000001
44
0.0000000001
40
0
40
0
40
0
40
0
40
0
40
0
40
0.066666666666666666
40
0.13333333333333333
40
0.20000000000000001
40
0.26666666666666666
40
0.33333333333333331
40
0.39999999999999997
40
0.46666666666666662
40
0.53333333333333333
40
0.59999999999999998
40
0.66666666666666663
40
0.73333333333333328
40
0.79999999999999993
40
0.86666666666666659
40
0.93333333333333324
40
1
40
1
40
1
40
1
40
1
40
1
10
169.89326841316827
20
169.94744263579079
30
0
10
169.84463925167833
20
169.98411879876048
30
0
10
169.74767187791855
20
170.05325966157187
30
0
10
169.60309392436801
20
170.14433585707994
30
0
10
169.41208000829789
20
170.24032297750989
30
0
10
169.17585844770787
20
170.31788405103671
30
0
10
168.94085059345727
20
170.35507626764149
30
0
10
168.7043300219442
20
170.35742708028934
30
0
10
168.46140584839543
20
170.33639191812856
30
0
10
168.20541785695497
20
170.30843754220967
30
0
10
167.92915679091766
20
170.29178988453253
30
0
10
167.62582786495113
20
170.30403467480068
30
0
10
167.29024697342336
20
170.35921838586577
30
0
10
166.91989469966896
20
170.46536577951434
30
0
10
166.51398613355951
20
170.62635452263788
30
0
10
166.07281605999231
20
170.84325073114337
30
0
10
165.69228924388224
20
171.0611071656854
30
0
10
165.39172162321418
20
171.24899341010374
30
0
10
165.18464864485966
20
171.38505838519407
30
0
10
165.07943850832532
20
171.4557927504203
30
0
0
LINE
5
163
100
AcDbEntity
8
0
100
AcDbLine
10
165.08353972765627
20
172.84271199103955
30
0
11
165.07943850832532
21
171.4557927504203
31
0
0
ARC
5
164
100
AcDbEntity
8
0
100
AcDbCircle
10
166.42319350089554
20
181.22679797973063
30
0
40
9.8842515588446638
100
AcDbArc
50
57.619187993139299
51
71.552450868161444
0
LINE
5
165
100
AcDbEntity
8
0
100
AcDbLine
10
167.15904984982697
20
195.68201080792153
30
0
11
168.53921597465256
21
195.54525091656535
31
0
0
ARC
5
166
100
AcDbEntity
8
0
100
AcDbCircle
10
179.53875255584717
20
172.10685564210814
30
0
40
9.8842515588446176
100
AcDbArc
50
192.61918799313958
51
206.5524508681614
0
CIRCLE
5
167
100
AcDbEntity
8
0
100
AcDbCircle
10
177.41845462001751
20
61.497555642108068
30
0
40
1.5000351491751098
0
ARC
5
168
100
AcDbEntity
8
0
100
AcDbCircle
10
166.42873930685869
20
181.18611188931942
30
0
40
9.8666880895159839
100
AcDbArc
50
237.57976533792049
51
243.07039681473327
0
SPLINE
5
169
100
AcDbEntity
8
0
100
AcDbSpline
70
1064
71
5
72
26
73
20
74
0
42
0.000000001
43
0.0000000001
44
0.0000000001
40
0
40
0
40
0
40
0
40
0
40
0
40
0.066666666666666666
40
0.13333333333333333
40
0.20000000000000001
40
0.26666666666666666
40
0.33333333333333331
40
0.39999999999999997
40
0.46666666666666662
40
0.53333333333333333
40
0.59999999999999998
40
0.66666666666666663
40
0.73333333333333328
40
0.79999999999999993
40
0.86666666666666659
40
0.93333333333333324
40
1
40
1
40
1
40
1
40
1
40
1
10
171.19142973058217
20
177.40030730707431
30
0
10
171.18297768429002
20
177.46062728039942
30
0
10
171.16330136973019
20
177.57808354076968
30
0
10
171.12546991383877
20
177.74471618747475
30
0
10
171.05827582225254
20
177.94765656656978
30
0
10
170.94608591591964
20
178.16953439507913
30
0
10
170.80620913707742
20
178.36200891118182
30
0
10
170.64062611259811
20
178.53091648689593
30
0
10
170.45397867633508
20
178.68781571159883
30
0
10
170.25320110290448
20
178.8490598274762
30
0
10
170.04608335811423
20
179.03263422894918
30
0
10
169.84025579190242
20
179.25577854355058
30
0
10
169.64198504421987
20
179.53209084376167
30
0
10
169.45516398192194
20
179.86902698969953
30
0
10
169.28197951427438
20
180.2698839212228
30
0
10
169.12339394345094
20
180.73520705174622
30
0
10
169.00836861351695
20
181.1583279061058
30
0
10
168.92869084821371
20
181.50371694651025
30
0
10
168.87848060754789
20
181.74635212036603
30
0
10
168.85410255584716
20
181.87076367072535
30
0
0
ARC
5
170
100
AcDbEntity
8
0
100
AcDbCircle
10
166.42319350089554
20
181.22679797973063
30
0
40
3.6210411895814021
100
AcDbArc
50
86.332037063863012
51
174.65902995992684
0
SPLINE
5
171
100
AcDbEntity
8
0
100
AcDbSpline
70
1064
71
5
72
26
73
20
74
0
42
0.000000001
43
0.0000000001
44
0.0000000001
40
0
40
0
40
0
40
0
40
0
40
0
40
0.066666666666666666
40
0.13333333333333333
40
0.20000000000000001
40
0.26666666666666666
40
0.33333333333333331
40
0.39999999999999997
40
0.46666666666666662
40
0.53333333333333333
40
0.59999999999999998
40
0.66666666666666663
40
0.73333333333333328
40
0.79999999999999993
40
0.86666666666666659
40
0.93333333333333324
40
1
40
1
40
1
40
1
40
1
40
1
10
158.07587067563057
20
186.52024964469683
30
0
10
158.06741862933794
20
186.58056961804215
30
0
10
158.04774231477725
20
186.69802587844654
30
0
10
158.00991085888521
20
186.86465852518279
30
0
10
157.94271676729886
20
187.06759890428432
30
0
10
157.83052686096656
20
187.28947673276312
30
0
10
157.69065008212553
20
187.48195124881946
30
0
10
157.52506705764705
20
187.65085882449347
30
0
10
157.33841962138479
20
187.80775804917528
30
0
10
157.13764204795419
20
187.9690021650531
30
0
10
156.93052430316345
20
188.15257656654455
30
0
10
156.72469673695073
20
188.37572088117523
30
0
10
156.52642598926724
20
188.65203318141801
30
0
10
156.33960492696863
20
188.9889693273827
30
0
10
156.16642045932096
20
189.38982625892152
30
0
10
156.00783488849785
20
189.85514938944345
30
0
10
155.89280955856458
20
190.27827024378499
30
0
10
155.8131317932617
20
190.62365928416529
30
0
10
155.7629215525962
20
190.86629445800025
30
0
10
155.73854350089556
20
190.99070600834784
30
0
0
CIRCLE
5
172
100
AcDbEntity
8
0
100
AcDbCircle
10
159.66015029245762
20
181.57093667091397
30
0
40
1.3248565579487526
0
SPLINE
5
173
100
AcDbEntity
8
0
100
AcDbSpline
70
1064
71
5
72
26
73
20
74
0
42
0.000000001
43
0.0000000001
44
0.0000000001
40
0
40
0
40
0
40
0
40
0
40
0
40
0.066666666666666666
40
0.13333333333333333
40
0.20000000000000001
40
0.26666666666666666
40
0.33333333333333331
40
0.39999999999999997
40
0.46666666666666662
40
0.53333333333333333
40
0.59999999999999998
40
0.66666666666666663
40
0.73333333333333328
40
0.79999999999999993
40
0.86666666666666659
40
0.93333333333333324
40
1
40
1
40
1
40
1
40
1
40
1
10
157.04685674867616
20
184.35453485924953
30
0
10
156.99475455413057
20
184.32298652152949
30
0
10
156.89126727901862
20
184.26404999285887
30
0
10
156.73818803840743
20
184.18812631947961
30
0
10
156.53841418473061
20
184.11203262186825
30
0
10
156.29553752650563
20
184.05886049882633
30
0
10
156.05796770724584
20
184.04572529827863
30
0
10
155.82243109149385
20
184.06740500578962
30
0
10
155.58289879312059
20
184.11300007342311
30
0
10
155.33107284689271
20
184.16680520052668
30
0
10
155.05793044335581
20
184.21142076388125
30
0
10
154.75492611358669
20
184.23004194406471
30
0
10
154.41547614915029
20
184.20922132005637
30
0
10
154.03625925284666
20
184.1412314572313
30
0
10
153.61610079987855
20
184.02229444075004
30
0
10
153.15518578853815
20
183.85131973094275
30
0
10
152.75450303350087
20
183.67323151233992
30
0
10
152.43640956523143
20
183.51683879893287
30
0
10
152.2165898096747
20
183.40250520443351
30
0
10
152.10474056406082
20
183.34282045348766
30
0
0
CIRCLE
5
174
100
AcDbEntity
8
0
100
AcDbCircle
10
166.76481308640123
20
187.94297210104017
30
0
40
1.3249015126301167
0
SPLINE
5
175
100
AcDbEntity
8
0
100
AcDbSpline
70
1064
71
5
72
26
73
20
74
0
42
0.000000001
43
0.0000000001
44
0.0000000001
40
0
40
0
40
0
40
0
40
0
40
0
40
0.066666666666666666
40
0.13333333333333333
40
0.20000000000000001
40
0.26666666666666666
40
0.33333333333333331
40
0.39999999999999997
40
0.46666666666666662
40
0.53333333333333333
40
0.59999999999999998
40
0.66666666666666663
40
0.73333333333333328
40
0.79999999999999993
40
0.86666666666666659
40
0.93333333333333324
40
1
40
1
40
1
40
1
40
1
40
1
10
169.55093038041451
20
190.60313473195006
30
0
10
169.51938204273011
20
190.65523692635563
30
0
10
169.46044551411916
20
190.75872420123264
30
0
10
169.38452184079352
20
190.91180344163035
30
0
10
169.30842814318967
20
191.11157729526499
30
0
10
169.25525602009105
20
191.3544539536986
30
0
10
169.24212081946541
20
191.59202377327321
30
0
10
169.26380052691587
20
191.82756038930552
30
0
10
169.30939559452409
20
192.06709268783865
30
0
10
169.36320072163571
20
192.31891863407691
30
0
10
169.40781628501881
20
192.59206103748579
30
0
10
169.42643746523433
20
192.89506536702791
30
0
10
169.4056168412489
20
193.23451533119425
30
0
10
169.3376269784336
20
193.6137322272503
30
0
10
169.21868996195025
20
194.03389068005922
30
0
10
169.04771525213303
20
194.49480569139141
30
0
10
168.86962703351972
20
194.89548844658574
30
0
10
168.7132343201051
20
195.21358191508119
30
0
10
168.59890072560086
20
195.43340167083858
30
0
10
168.53921597465256
20
195.54525091656535
30
0
0
LINE
5
176
100
AcDbEntity
8
0
100
AcDbLine
10
155.68148547227838
20
171.52574797973068
30
0
11
156.6592854722783
21
170.54214797973066
31
0
0
SPLINE
5
177
100
AcDbEntity
8
0
100
AcDbSpline
70
1064
71
5
72
26
73
20
74
0
42
0.000000001
43
0.0000000001
44
0.0000000001
40
0
40
0
40
0
40
0
40
0
40
0
40
0.066666666666666666
40
0.13333333333333333
40
0.20000000000000001
40
0.26666666666666666
40
0.33333333333333331
40
0.39999999999999997
40
0.46666666666666662
40
0.53333333333333333
40
0.59999999999999998
40
0.66666666666666663
40
0.73333333333333328
40
0.79999999999999993
40
0.86666666666666659
40
0.93333333333333324
40
1
40
1
40
1
40
1
40
1
40
1
10
170.16241580362777
20
175.23459252162701
30
0
10
170.11031360908294
20
175.20304418393471
30
0
10
170.00682633397224
20
175.14410765531068
30
0
10
169.8537470933621
20
175.06818398197379
30
0
10
169.6539732396852
20
174.99209028437025
30
0
10
169.41109658145882
20
174.93891816128578
30
0
10
169.17352676219775
20
174.92578296067592
30
0
10
168.93799014644492
20
174.94746266813422
30
0
10
168.69845784807126
20
174.99305773574059
30
0
10
168.44663190184352
20
175.04686286284539
30
0
10
168.17348949830699
20
175.09147842622414
30
0
10
167.87048516853841
20
175.11009960644517
30
0
10
167.53103520410224
20
175.08927898247623
30
0
10
167.15181830779892
20
175.02128911968313
30
0
10
166.73165985483104
20
174.90235210321939
30
0
10
166.27074484349063
20
174.73137739340945
30
0
10
165.87006208845312
20
174.55328917478505
30
0
10
165.5519686201834
20
174.3968964613492
30
0
10
165.33214886462645
20
174.28256286682495
30
0
10
165.22029961901242
20
174.22287811586514
30
0
0
LINE
5
178
100
AcDbEntity
8
0
100
AcDbLine
10
151.96798067270467
20
181.96265432866204
30
0
11
151.96387945337372
21
180.57573508804282
31
0
0
LINE
5
179
100
AcDbEntity
8
0
100
AcDbLine
10
156.72214350089556
20
191.96850600834779
30
0
11
155.73854350089556
21
190.99070600834784
31
0
0
LWPOLYLINE
5
180
100
AcDbEntity
8
0
100
AcDbPolyline
90
4
70
1
43
0.0
10
171.54484124618841
20
61.497572873983486
42
-0.999994126894171
10
163.5449115425703
20
61.497518441991588
10
163.5451667713252
20
141.49755208802679
42
-0.99999951007133125
10
171.5447667712217
20
141.49755561588321
0
CIRCLE
5
181
100
AcDbEntity
8
0
100
AcDbCircle
10
157.04612923579077
20
61.497555642108068
30
0
40
1.5000351491751098
0
CIRCLE
5
182
100
AcDbEntity
8
0
100
AcDbCircle
10
190.07661533355713
20
63.211855642108162
30
0
40
1.3250112543003216
0
SPLINE
5
183
100
AcDbEntity
8
0
100
AcDbSpline
70
1064
71
5
72
26
73
20
74
0
42
0.000000001
43
0.0000000001
44
0.0000000001
40
0
40
0
40
0
40
0
40
0
40
0
40
0.066666666666666666
40
0.13333333333333333
40
0.20000000000000001
40
0.26666666666666666
40
0.33333333333333331
40
0.39999999999999997
40
0.46666666666666662
40
0.53333333333333333
40
0.59999999999999998
40
0.66666666666666663
40
0.73333333333333328
40
0.79999999999999993
40
0.86666666666666659
40
0.93333333333333324
40
1
40
1
40
1
40
1
40
1
40
1
10
156.77770935821667
20
179.06738497341331
30
0
10
156.7290801967273
20
179.10406113637174
30
0
10
156.63211282296862
20
179.17320199916406
30
0
10
156.48753486941948
20
179.264278194654
30
0
10
156.29652095335069
20
179.36026531507946
30
0
10
156.06029939276118
20
179.43782638862371
30
0
10
155.82529153850834
20
179.47501860525509
30
0
10
155.5887709669897
20
179.4773694179263
30
0
10
155.34584679343354
20
179.45633425577859
30
0
10
155.08985880198861
20
179.4283798798601
30
0
10
154.81359773595366
20
179.4117322221723
30
0
10
154.51026880999879
20
179.42397701242214
30
0
10
154.17468791849157
20
179.47916072346604
30
0
10
153.8043356447613
20
179.58530811709565
30
0
10
153.3984270786714
20
179.74629686020717
30
0
10
152.95725700511011
20
179.96319306871226
30
0
10
152.57673018898683
20
180.18104950326648
30
0
10
152.276162568296
20
180.36893574770221
30
0
10
152.06908958992025
20
180.50500072280795
30
0
10
151.96387945337372
20
180.57573508804282
30
0
0
LWPOLYLINE
5
184
100
AcDbEntity
8
0
100
AcDbPolyline
90
4
70
1
43
0.0
10
181.41837528941829
20
61.497519841454874
42
-0.9999874978307457
10
173.41844558610234
20
61.497518441991588
10
173.41870081449389
20
141.49755208820875
42
-1.0000062499909237
10
181.4183008148039
20
141.49750169919574
0
LINE
5
185
100
AcDbEntity
8
0
100
AcDbLine
10
161.96016149356529
20
172.38933144518316
30
0
11
162.81787344937743
21
181.56385379523681
31
0
0
LWPOLYLINE
5
186
100
AcDbEntity
8
0
100
AcDbPolyline
90
4
70
1
43
0.0
10
161.046049904688
20
61.497519841485662
42
-0.9999954315345827
10
153.04612020207807
20
61.497581911575487
10
153.04637543028744
20
141.49756465316705
42
-1.0000046792840158
10
161.04597543057719
20
141.49750169919577
0
ARC
5
187
100
AcDbEntity
8
0
100
AcDbCircle
10
166.42319350089554
20
181.22679797973063
30
0
40
9.8842515588446478
100
AcDbArc
50
147.61918799313921
51
161.5524508681618
0
LINE
5
188
100
AcDbEntity
8
0
100
AcDbLine
10
151.96798067270467
20
181.96265432866204
30
0
11
152.10474056406082
21
183.34282045348766
31
0
0
LINE
5
189
100
AcDbEntity
8
0
100
AcDbLine
10
169.83770255584716
20
182.8485636707253
30
0
11
170.9103312284476
21
183.72778465018112
31
0
0
ARC
5
190
100
AcDbEntity
8
0
100
AcDbCircle
10
179.53875255584717
20
172.10685564210814
30
0
40
9.8842515588446638
100
AcDbArc
50
147.61918799313943
51
161.55245086816203
0
LINE
5
191
100
AcDbEntity
8
0
100
AcDbLine
10
169.83770255584716
20
182.8485636707253
30
0
11
168.85410255584716
21
181.87076367072535
31
0
0
ARC
5
192
100
AcDbEntity
8
0
100
AcDbCircle
10
190.07661533355713
20
63.211855642108162
30
0
40
6.0000686479559153
100
AcDbArc
50
-180.48379909203649
51
0.75679510158618468
0
SPLINE
5
193
100
AcDbEntity
8
0
100
AcDbSpline
70
1064
71
5
72
26
73
20
74
0
42
0.000000001
43
0.0000000001
44
0.0000000001
40
0
40
0
40
0
40
0
40
0
40
0
40
0.066666666666666666
40
0.13333333333333333
40
0.20000000000000001
40
0.26666666666666666
40
0.33333333333333331
40
0.39999999999999997
40
0.46666666666666662
40
0.53333333333333333
40
0.59999999999999998
40
0.66666666666666663
40
0.73333333333333328
40
0.79999999999999993
40
0.86666666666666659
40
0.93333333333333324
40
1
40
1
40
1
40
1
40
1
40
1
10
174.24530089088094
20
163.75953281684318
30
0
10
174.18498091741017
20
163.75108077055739
30
0
10
174.06752465679517
20
163.73140445600828
30
0
10
173.90089200986671
20
163.69357300012669
30
0
10
173.69795163072527
20
163.62637890854222
30
0
10
173.47607380243258
20
163.51418900219966
30
0
10
173.28359928666055
20
163.37431222334305
30
0
10
173.11469171124145
20
163.20872919885147
30
0
10
172.9577924867057
20
163.02208176258233
30
0
10
172.79654837083859
20
162.82130418915193
30
0
10
172.61297396923032
20
162.61418644436728
30
0
10
172.38982965439192
20
162.40835887816405
30
0
10
172.1135173539023
20
162.2100881304907
30
0
10
171.77658120771235
20
162.02326706820043
30
0
10
171.37572427603021
20
161.85008260055727
30
0
10
170.91040114550242
20
161.6914970297334
30
0
10
170.48728029130433
20
161.57647169979435
30
0
10
170.14189125112898
20
161.49679393448417
30
0
10
169.89925607747557
20
161.4465836938123
30
0
10
169.7748445272299
20
161.42220564210817
30
0
0
ARC
5
194
100
AcDbEntity
8
0
100
AcDbCircle
10
195.7912200153082
20
156.36895564210815
30
0
40
3.9999999999999938
100
AcDbArc
50
-90.000112675952877
51
89.999883053469418
0
LWPOLYLINE
5
195
100
AcDbEntity
8
0
100
AcDbPolyline
90
4
70
1
43
0.0
10
170.79194372080525
20
155.36900564210814
42
-0.99999999999999989
10
170.79194372080525
20
157.36900564210816
10
175.79194372080534
20
157.36900564210816
42
-0.99999999999999989
10
175.79194372080534
20
155.36900564210814
0
ARC
5
196
100
AcDbEntity
8
0
100
AcDbCircle
10
160.69189391029306
20
156.36895564210815
30
0
40
7.9000000000023674
100
AcDbArc
50
49.61056994270325
51
313.91217161426431
0
LWPOLYLINE
5
197
100
AcDbEntity
8
0
100
AcDbPolyline
90
4
70
1
43
0.0
10
191.62666058446433
20
125.71190564210812
10
191.62666058446433
20
133.21190564210812
10
188.52666058446434
20
133.21190564210812
10
188.52666058446434
20
125.71190564210812
0
ARC
5
198
100
AcDbEntity
8
0
100
AcDbCircle
10
179.53875255584717
20
172.10685564210814
30
0
40
9.8842515588446513
100
AcDbArc
50
237.61918799313909
51
342.33096400569536
0
ARC
5
199
100
AcDbEntity
8
0
100
AcDbCircle
10
171.29465308044189
20
168.83179388589019
30
0
40
8.4627882437840718
100
AcDbArc
50
229.61048601628377
51
269.99988305346943
0
LINE
5
200
100
AcDbEntity
8
0
100
AcDbLine
10
195.79121214904274
20
152.36895564211588
30
0
11
170.3662024905866
21
152.36900564208474
31
0
0
CIRCLE
5
201
100
AcDbEntity
8
0
100
AcDbCircle
10
177.41848976835928
20
141.49755564210795
30
0
40
1.500000000833319
0
LINE
5
202
100
AcDbEntity
8
0
100
AcDbLine
10
168.79704452722996
20
162.40580564210816
30
0
11
167.91782354777413
21
163.47843431470861
31
0
0
CIRCLE
5
203
100
AcDbEntity
8
0
100
AcDbCircle
10
160.69189391029306
20
156.36895564210815
30
0
40
1.324950190431222
0
CIRCLE
5
204
100
AcDbEntity
8
0
100
AcDbCircle
10
195.7912200153082
20
156.36895564210815
30
0
40
1.3250112543003216
0
LINE
5
205
100
AcDbEntity
8
0
100
AcDbLine
10
196.07616058446436
20
137.37939749669275
30
0
11
196.07616058446436
21
63.13260564210816
31
0
0
LINE
5
206
100
AcDbEntity
8
0
100
AcDbLine
10
194.83886058446433
20
175.10680564210816
30
0
11
188.95675281471438
21
175.10680564210816
31
0
0
CIRCLE
5
207
100
AcDbEntity
8
0
100
AcDbCircle
10
157.04616438413257
20
141.49755564210795
30
0
40
1.500000000833319
0
LINE
5
208
100
AcDbEntity
8
0
100
AcDbLine
10
190.28046058446432
20
181.80790564210812
30
0
11
189.30266058446438
21
182.79150564210812
31
0
0
CIRCLE
5
209
100
AcDbEntity
8
0
100
AcDbCircle
10
190.07664320421949
20
95.211755642108159
30
0
40
1.4999826205884763
0
LWPOLYLINE
5
210
100
AcDbEntity
8
0
100
AcDbPolyline
90
4
70
1
43
0.0
10
189.73886058446436
20
173.12680564210814
10
194.83886058446433
20
173.12680564210814
42
-0.99999999999999989
10
194.83886058446433
20
171.08680564210815
10
189.73886058446436
20
171.08680564210815
42
-0.99999999999999989
0
CIRCLE
5
211
100
AcDbEntity
8
0
100
AcDbCircle
10
167.54495572482728
20
141.49755564210795
30
0
40
1.500000000833319
0
LINE
5
212
100
AcDbEntity
8
0
100
AcDbLine
10
188.95672096076464
20
169.10680564210816
30
0
11
194.83886058446433
21
169.10680564210816
31
0
0
LINE
5
213
100
AcDbEntity
8
0
100
AcDbLine
10
190.28046058446432
20
181.80790564210812
30
0
11
191.15968156392015
21
180.73527696950771
31
0
0
LINE
5
214
100
AcDbEntity
8
0
100
AcDbLine
10
180.27460890477857
20
186.56206847029907
30
0
11
178.88768966415935
21
186.56616968962999
31
0
0
LINE
5
215
100
AcDbEntity
8
0
100
AcDbLine
10
180.27460890477857
20
186.56206847029907
30
0
11
181.65477502960417
21
186.42530857894289
31
0
0
CIRCLE
5
216
100
AcDbEntity
8
0
100
AcDbCircle
10
190.07663359957473
20
143.21185564210816
30
0
40
1.4998730159437463
0
LINE
5
217
100
AcDbEntity
8
0
100
AcDbLine
10
177.16490152951269
20
190.92784797973064
30
0
11
176.18710152951277
21
191.91144797973064
31
0
0
CIRCLE
5
218
100
AcDbEntity
8
0
100
AcDbCircle
10
172.77570934740922
20
172.45099433329145
30
0
40
1.3248565579487526
0
CIRCLE
5
219
100
AcDbEntity
8
0
100
AcDbCircle
10
179.88037214135284
20
178.82302976341765
30
0
40
1.3249015126301167
0
ARC
5
220
100
AcDbEntity
8
0
100
AcDbCircle
10
182.07676058446435
20
137.37987212514679
30
0
40
2.0000000000000284
100
AcDbArc
50
0
51
36.092404807624916
0
LINE
5
221
100
AcDbEntity
8
0
100
AcDbLine
10
171.29463580702782
20
160.36900564214338
30
0
11
195.79122817971623
21
160.36895564209948
31
0
0
ARC
5
222
100
AcDbEntity
8
0
100
AcDbCircle
10
198.07616058446456
20
137.37939749669269
30
0
40
2.0000000000002105
100
AcDbArc
50
143.90419578899383
51
180
0
LINE
5
223
100
AcDbEntity
8
0
100
AcDbLine
10
177.16490152951269
20
190.92784797973064
30
0
11
178.04412250896848
21
189.8552193071302
31
0
0
LINE
5
224
100
AcDbEntity
8
0
100
AcDbLine
10
184.07676058446435
20
63.21190564210815
30
0
11
184.07676058446438
21
137.37987212514679
31
0
0
CIRCLE
5
225
100
AcDbEntity
8
0
100
AcDbCircle
10
179.53875255584717
20
172.10685564210814
30
0
40
3.6210411895814159
0
SPLINE
5
226
100
AcDbEntity
8
0
100
AcDbSpline
70
1064
71
5
72
26
73
20
74
0
42
0.000000001
43
0.0000000001
44
0.0000000001
40
0
40
0
40
0
40
0
40
0
40
0
40
0.066666666666666666
40
0.13333333333333333
40
0.20000000000000001
40
0.26666666666666666
40
0.33333333333333331
40
0.39999999999999997
40
0.46666666666666662
40
0.53333333333333333
40
0.59999999999999998
40
0.66666666666666663
40
0.73333333333333328
40
0.79999999999999993
40
0.86666666666666659
40
0.93333333333333324
40
1
40
1
40
1
40
1
40
1
40
1
10
184.83220422081334
20
180.45417846737311
30
0
10
184.89252419414157
20
180.46263051351193
30
0
10
185.00998045451752
20
180.48230682781437
30
0
10
185.17661310122918
20
180.52013828347168
30
0
10
185.37955348032841
20
180.58733237501187
30
0
10
185.60143130883506
20
180.69952228157521
30
0
10
185.79390582492746
20
180.83939906076307
30
0
10
185.96281340062643
20
181.00498208554458
30
0
10
186.11971262531486
20
181.19162952197243
30
0
10
186.28095674118504
20
181.3924070954067
30
0
10
186.46453114266433
20
181.59952484005788
30
0
10
186.68767545728861
20
181.80535240603825
30
0
10
186.96398775753744
20
182.00362315345942
30
0
10
187.30092390351771
20
182.190444215529
30
0
10
187.70178083507466
20
182.363628683039
30
0
10
188.16710396560734
20
182.5222142538662
30
0
10
188.59022481994319
20
182.63723958394951
30
0
10
188.93561386030751
20
182.71691734945921
30
0
10
189.17824903412622
20
182.76712759030596
30
0
10
189.30266058446438
20
182.79150564210812
30
0
0
ARC
5
227
100
AcDbEntity
8
0
100
AcDbCircle
10
170.36619059512631
20
146.32015801852967
30
0
40
6.0488476235667834
100
AcDbArc
50
89.999887324047108
51
133.91224139548731
0
ARC
5
228
100
AcDbEntity
8
0
100
AcDbCircle
10
190.07663359957473
20
143.21185564210816
30
0
40
7.8999999999999959
100
AcDbArc
50
-36.09580421100776
51
216.09240480762432
0
LINE
5
229
100
AcDbEntity
8
0
100
AcDbLine
10
168.79704452722996
20
162.40580564210816
30
0
11
169.7748445272299
21
161.42220564210817
31
0
0
SPLINE
5
230
100
AcDbEntity
8
0
100
AcDbSpline
70
1064
71
5
72
26
73
20
74
0
42
0.000000001
43
0.0000000001
44
0.0000000001
40
0
40
0
40
0
40
0
40
0
40
0
40
0.066666666666666666
40
0.13333333333333333
40
0.20000000000000001
40
0.26666666666666666
40
0.33333333333333331
40
0.39999999999999997
40
0.46666666666666662
40
0.53333333333333333
40
0.59999999999999998
40
0.66666666666666663
40
0.73333333333333328
40
0.79999999999999993
40
0.86666666666666659
40
0.93333333333333324
40
1
40
1
40
1
40
1
40
1
40
1
10
170.69703729838906
20
167.68842829920027
30
0
10
170.68250352674562
20
167.62927844064961
30
0
10
170.6510013916579
20
167.51442746767663
30
0
10
170.59644416670562
20
167.35249795438025
30
0
10
170.50898908962355
20
167.15743013817271
30
0
10
170.37484772652829
20
166.94809203727871
30
0
10
170.21614848593433
20
166.77081681755183
30
0
10
170.03426907972386
20
166.61959714740905
30
0
10
169.83265358582727
20
166.48246281636472
30
0
10
169.61653978133415
20
166.34244095234772
30
0
10
169.3918509680768
20
166.18084807402772
30
0
10
169.16442738883489
20
165.97975882058873
30
0
10
168.93912242136383
20
165.72500904453346
30
0
10
168.71905167535567
20
165.40878611264282
30
0
10
168.50605595488955
20
165.02758805053642
30
0
10
168.30103720153994
20
164.58077454374805
30
0
10
168.14363909546867
20
164.17152166347901
30
0
10
168.02929939531521
20
163.83600926676206
30
0
10
167.95470941562613
20
163.59972716691635
30
0
10
167.91782354777413
20
163.47843431470861
30
0
0
SPLINE
5
231
100
AcDbEntity
8
0
100
AcDbSpline
70
1064
71
5
72
26
73
20
74
0
42
0.000000001
43
0.0000000001
44
0.0000000001
40
0
40
0
40
0
40
0
40
0
40
0
40
0.066666666666666666
40
0.13333333333333333
40
0.20000000000000001
40
0.26666666666666666
40
0.33333333333333331
40
0.39999999999999997
40
0.46666666666666662
40
0.53333333333333333
40
0.59999999999999998
40
0.66666666666666663
40
0.73333333333333328
40
0.79999999999999993
40
0.86666666666666659
40
0.93333333333333324
40
1
40
1
40
1
40
1
40
1
40
1
10
175.12032521293924
20
180.94857089956619
30
0
10
175.06117535438131
20
180.96310467106531
30
0
10
174.9463243813959
20
180.99460680591102
30
0
10
174.78439486808816
20
181.04916403064465
30
0
10
174.58932705187837
20
181.13661910768573
30
0
10
174.37998895099557
20
181.27076047099834
30
0
10
174.2027137312854
20
181.42945971191469
30
0
10
174.05149406115703
20
181.61133911840562
30
0
10
173.91435973012048
20
181.81295461245389
30
0
10
173.77433786610354
20
182.02906841694801
30
0
10
173.61274498777703
20
182.25375723007616
30
0
10
173.41165573432704
20
182.48118080910618
30
0
10
173.1569059582593
20
182.70648577634142
30
0
10
172.8406830263576
20
182.9265565221458
30
0
10
172.45948496424433
20
183.13955224249145
30
0
10
172.01267145745595
20
183.34457099584762
30
0
10
171.60341857719416
20
183.50196910205364
30
0
10
171.26790618048733
20
183.61630880239056
30
0
10
171.03162408065037
20
183.69089878223957
30
0
10
170.9103312284476
20
183.72778465018112
30
0
0
SPLINE
5
232
100
AcDbEntity
8
0
100
AcDbSpline
70
1064
71
5
72
26
73
20
74
0
42
0.000000001
43
0.0000000001
44
0.0000000001
40
0
40
0
40
0
40
0
40
0
40
0
40
0.066666666666666666
40
0.13333333333333333
40
0.20000000000000001
40
0.26666666666666666
40
0.33333333333333331
40
0.39999999999999997
40
0.46666666666666662
40
0.53333333333333333
40
0.59999999999999998
40
0.66666666666666663
40
0.73333333333333328
40
0.79999999999999993
40
0.86666666666666659
40
0.93333333333333324
40
1
40
1
40
1
40
1
40
1
40
1
10
175.26490875835361
20
185.64522532263854
30
0
10
175.27944252985247
20
185.70437518106507
30
0
10
175.31094466469767
20
185.8192261538301
30
0
10
175.36550188943028
20
185.98115566693832
30
0
10
175.45295696647
20
186.17622348310948
30
0
10
175.58709832978167
20
186.38556158418834
30
0
10
175.74579757069981
20
186.56283680419293
30
0
10
175.92767697719549
20
186.71405647458204
30
0
10
176.12929247124984
20
186.85119080576527
30
0
10
176.34540627574776
20
186.99121266978921
30
0
10
176.57009508887396
20
187.15280554799597
30
0
10
176.79751866789442
20
187.35389480123916
30
0
10
177.02282363511193
20
187.60864457706577
30
0
10
177.24289438089545
20
187.92486750875074
30
0
10
177.45589010122362
20
188.30606557072815
30
0
10
177.6609088545739
20
188.75287907751343
30
0
10
177.81830696079098
20
189.16213195791443
30
0
10
177.932646661148
20
189.49764435481839
30
0
10
178.00723664101608
20
189.73392645482946
30
0
10
178.04412250896848
20
189.8552193071302
30
0
0
ARC
5
233
100
AcDbEntity
8
0
100
AcDbCircle
10
194.83886058446433
20
172.10680564210816
30
0
40
3.0000000000000071
100
AcDbArc
50
-90
51
90
0
SPLINE
5
234
100
AcDbEntity
8
0
100
AcDbSpline
70
1064
71
5
72
26
73
20
74
0
42
0.000000001
43
0.0000000001
44
0.0000000001
40
0
40
0
40
0
40
0
40
0
40
0
40
0.066666666666666666
40
0.13333333333333333
40
0.20000000000000001
40
0.26666666666666666
40
0.33333333333333331
40
0.39999999999999997
40
0.46666666666666662
40
0.53333333333333333
40
0.59999999999999998
40
0.66666666666666663
40
0.73333333333333328
40
0.79999999999999993
40
0.86666666666666659
40
0.93333333333333324
40
1
40
1
40
1
40
1
40
1
40
1
10
171.71664516586173
20
189.57412080499563
30
0
10
171.77696513918562
20
189.58257285112893
30
0
10
171.89442139955364
20
189.60224916542268
30
0
10
172.061054046256
20
189.64008062107368
30
0
10
172.26399442534904
20
189.70727471261583
30
0
10
172.48587225385944
20
189.8194646191892
30
0
10
172.67834676996588
20
189.95934139838542
30
0
10
172.84725434568725
20
190.12492442316923
30
0
10
173.00415357039881
20
190.3115718595929
30
0
10
173.16539768628132
20
190.51234943302146
30
0
10
173.34897208775169
20
190.71946717767139
30
0
10
173.57211640233885
20
190.92529474365946
30
0
10
173.84842870252498
20
191.12356549109785
30
0
10
174.18536484843349
20
191.31038655319031
30
0
10
174.5862217799332
20
191.48357102072069
30
0
10
175.05154491044951
20
191.64215659155573
30
0
10
175.47466576482509
20
191.75718192162736
30
0
10
175.82005480525723
20
191.83685968711495
30
0
10
176.06268997913878
20
191.88706992794062
30
0
10
176.18710152951277
20
191.91144797973064
30
0
0
SPLINE
5
235
100
AcDbEntity
8
0
100
AcDbSpline
70
1064
71
5
72
26
73
20
74
0
42
0.000000001
43
0.0000000001
44
0.0000000001
40
0
40
0
40
0
40
0
40
0
40
0
40
0.066666666666666666
40
0.13333333333333333
40
0.20000000000000001
40
0.26666666666666666
40
0.33333333333333331
40
0.39999999999999997
40
0.46666666666666662
40
0.53333333333333333
40
0.59999999999999998
40
0.66666666666666663
40
0.73333333333333328
40
0.79999999999999993
40
0.86666666666666659
40
0.93333333333333324
40
1
40
1
40
1
40
1
40
1
40
1
10
164.26378049457827
20
190.87228212240959
30
0
10
164.30045665756123
20
190.92091128375984
30
0
10
164.36959752039485
20
191.01787865728485
30
0
10
164.46067371592304
20
191.16245661062135
30
0
10
164.55666083635623
20
191.35347052664622
30
0
10
164.63422190986282
20
191.58969208744222
30
0
10
164.67141412643821
20
191.82469994200932
30
0
10
164.67376493906119
20
192.06122051381095
30
0
10
164.6527297768871
20
192.30414468753065
30
0
10
164.62477540096884
20
192.56013267898811
30
0
10
164.60812774330353
20
192.83639374489354
30
0
10
164.62037253358969
20
193.13972267061587
30
0
10
164.67555624467295
20
193.47530356184475
30
0
10
164.78170363833539
20
193.84565583531906
30
0
10
164.94269238146529
20
194.25156440124408
30
0
10
165.15958858996825
20
194.6927344747964
30
0
10
165.37744502450045
20
195.07326129108191
30
0
10
165.5653312689067
20
195.37382891200639
30
0
10
165.70139624398703
20
195.58090189058944
30
0
10
165.77213060920772
20
195.68611202725248
30
0
0
SPLINE
5
236
100
AcDbEntity
8
0
100
AcDbSpline
70
1064
71
5
72
26
73
20
74
0
42
0.000000001
43
0.0000000001
44
0.0000000001
40
0
40
0
40
0
40
0
40
0
40
0
40
0.066666666666666666
40
0.13333333333333333
40
0.20000000000000001
40
0.26666666666666666
40
0.33333333333333331
40
0.39999999999999997
40
0.46666666666666662
40
0.53333333333333333
40
0.59999999999999998
40
0.66666666666666663
40
0.73333333333333328
40
0.79999999999999993
40
0.86666666666666659
40
0.93333333333333324
40
1
40
1
40
1
40
1
40
1
40
1
10
177.37933954952985
20
181.75233978478707
30
0
10
177.41601571252002
20
181.80096894614994
30
0
10
177.48515657536601
20
181.89793631969695
30
0
10
177.57623277090656
20
182.0425142730565
30
0
10
177.67221989134472
20
182.23352818909288
30
0
10
177.74978096484199
20
182.46974974987438
30
0
10
177.78697318139842
20
182.70475760440615
30
0
10
177.78932399400043
20
182.94127817616237
30
0
10
177.76828883181108
20
183.18420234984274
30
0
10
177.74033445588816
20
183.44019034128343
30
0
10
177.72368679823191
20
183.71645140720833
30
0
10
177.73593158854135
20
184.01978033299187
30
0
10
177.791115299658
20
184.35536122431657
30
0
10
177.89726269335543
20
184.72571349789672
30
0
10
178.05825143651111
20
185.13162206390405
30
0
10
178.2751476450191
20
185.57279213747768
30
0
10
178.49300407953058
20
185.95331895370356
30
0
10
178.68089032390444
20
186.25388657452845
30
0
10
178.81695529895529
20
186.46095955301934
30
0
10
178.88768966415935
20
186.56616968962999
30
0
0
ARC
5
237
100
AcDbEntity
8
0
100
AcDbCircle
10
179.53875255584717
20
172.10685564210814
30
0
40
9.8842515588446549
100
AcDbArc
50
17.668427628676984
51
26.552450868161724
0
ARC
5
238
100
AcDbEntity
8
0
100
AcDbCircle
10
166.42319350089554
20
181.22679797973063
30
0
40
9.8842515588445998
100
AcDbArc
50
192.61918799313946
51
206.55245086816149
0
ARC
5
239
100
AcDbEntity
8
0
100
AcDbCircle
10
166.42319350089554
20
181.22679797973063
30
0
40
9.8842515588446709
100
AcDbArc
50
102.61918799313905
51
116.55245086816151
0
SPLINE
5
240
100
AcDbEntity
8
0
100
AcDbSpline
70
1064
71
5
72
26
73
20
74
0
42
0.000000001
43
0.0000000001
44
0.0000000001
40
0
40
0
40
0
40
0
40
0
40
0
40
0.066666666666666666
40
0.13333333333333333
40
0.20000000000000001
40
0.26666666666666666
40
0.33333333333333331
40
0.39999999999999997
40
0.46666666666666662
40
0.53333333333333333
40
0.59999999999999998
40
0.66666666666666663
40
0.73333333333333328
40
0.79999999999999993
40
0.86666666666666659
40
0.93333333333333324
40
1
40
1
40
1
40
1
40
1
40
1
10
188.38046781330522
20
176.52528298501605
30
0
10
188.39500158480732
20
176.58443284345961
30
0
10
188.42650371965803
20
176.69928381625314
30
0
10
188.48106094439567
20
176.86121332938737
30
0
10
188.56851602143587
20
177.0562811455633
30
0
10
188.702657384742
20
177.26561924661652
30
0
10
188.86135662565277
20
177.44289446658289
30
0
10
189.04323603214414
20
177.59411413693908
30
0
10
189.24485152619795
20
177.7312484681047
30
0
10
189.46096533069809
20
177.87127033212894
30
0
10
189.6856541438265
20
178.032863210351
30
0
10
189.91307772284657
20
178.23395246361824
30
0
10
190.13838269006047
20
178.48870223947142
30
0
10
190.35845343583793
20
178.80492517117844
30
0
10
190.57144915616053
20
179.1861232331687
30
0
10
190.77646790950863
20
179.63293673995324
30
0
10
190.93386601572885
20
180.04218962033985
30
0
10
191.0482057160915
20
180.37770201722378
30
0
10
191.12279569596478
20
180.61398411721706
30
0
10
191.15968156392015
20
180.73527696950771
30
0
0
ARC
5
241
100
AcDbEntity
8
0
100
AcDbCircle
10
179.53875255584717
20
172.10685564210814
30
0
40
9.8842515588446638
100
AcDbArc
50
57.619187993139342
51
71.552450868161714
0
ARC
5
242
100
AcDbEntity
8
0
100
AcDbCircle
10
179.53875255584717
20
172.10685564210814
30
0
40
9.884251558844678
100
AcDbArc
50
102.61918799313941
51
116.55245086816188
0
SPLINE
5
243
100
AcDbEntity
8
0
100
AcDbSpline
70
1064
71
5
72
26
73
20
74
0
42
0.000000001
43
0.0000000001
44
0.0000000001
40
0
40
0
40
0
40
0
40
0
40
0
40
0.066666666666666666
40
0.13333333333333333
40
0.20000000000000001
40
0.26666666666666666
40
0.33333333333333331
40
0.39999999999999997
40
0.46666666666666662
40
0.53333333333333333
40
0.59999999999999998
40
0.66666666666666663
40
0.73333333333333328
40
0.79999999999999993
40
0.86666666666666659
40
0.93333333333333324
40
1
40
1
40
1
40
1
40
1
40
1
10
157.58147824343746
20
176.80837063682276
30
0
10
157.56694447180971
20
176.74922077825732
30
0
10
157.53544233674825
20
176.63436980525958
30
0
10
157.48088511181913
20
176.47244029194093
30
0
10
157.39343003474056
20
176.27737247572878
30
0
10
157.25928867162133
20
176.06803437485661
30
0
10
157.10058943099321
20
175.89075915516278
30
0
10
156.91871002475457
20
175.73953948505005
30
0
10
156.71709453084463
20
175.60240515402336
30
0
10
156.5009807263535
20
175.46238329000803
30
0
10
156.27629191310919
20
175.3007904116744
30
0
10
156.0488683338852
20
175.09970115821011
30
0
10
155.82356336643059
20
174.8449513821239
30
0
10
155.60349262043397
20
174.52872845020391
30
0
10
155.39049689997248
20
174.147530388078
30
0
10
155.18547814661986
20
173.700716881288
30
0
10
155.02808004053998
20
173.29146400103724
30
0
10
154.91374034037642
20
172.95595160434712
30
0
10
154.8391503606791
20
172.71966950452537
30
0
10
154.80226449282253
20
172.5983766523311
30
0
0
SPLINE
5
244
100
AcDbEntity
8
0
100
AcDbSpline
70
1064
71
5
72
26
73
20
74
0
42
0.000000001
43
0.0000000001
44
0.0000000001
40
0
40
0
40
0
40
0
40
0
40
0
40
0.066666666666666666
40
0.13333333333333333
40
0.20000000000000001
40
0.26666666666666666
40
0.33333333333333331
40
0.39999999999999997
40
0.46666666666666662
40
0.53333333333333333
40
0.59999999999999998
40
0.66666666666666663
40
0.73333333333333328
40
0.79999999999999993
40
0.86666666666666659
40
0.93333333333333324
40
1
40
1
40
1
40
1
40
1
40
1
10
162.00476615798766
20
190.06851323718871
30
0
10
161.94561629942757
20
190.08304700870843
30
0
10
161.83076532643864
20
190.11454914358848
30
0
10
161.66883581312794
20
190.16910636835217
30
0
10
161.47376799691779
20
190.25656144539556
30
0
10
161.26442989603822
20
190.3907028086731
30
0
10
161.08715467633249
20
190.54940204954633
30
0
10
160.93593500620759
20
190.73128145600941
30
0
10
160.79880067517254
20
190.93289695005353
30
0
10
160.65877881115537
20
191.14901075455981
30
0
10
160.49718593282734
20
191.373699567702
30
0
10
160.2960966793753
20
191.6011231467329
30
0
10
160.04134690330542
20
191.82642811394831
30
0
10
159.7251239714021
20
192.04649885971835
30
0
10
159.34392590928806
20
192.25949458002896
30
0
10
158.89711240249994
20
192.46451333336762
30
0
10
158.48785952223918
20
192.6219114395887
30
0
10
158.15234712553374
20
192.73625113995979
30
0
10
157.91606502569809
20
192.81084111984256
30
0
10
157.794772173496
20
192.84772698780361
30
0
0
SPLINE
5
245
100
AcDbEntity
8
0
100
AcDbSpline
70
1064
71
5
72
26
73
20
74
0
42
0.000000001
43
0.0000000001
44
0.0000000001
40
0
40
0
40
0
40
0
40
0
40
0
40
0.066666666666666666
40
0.13333333333333333
40
0.20000000000000001
40
0.26666666666666666
40
0.33333333333333331
40
0.39999999999999997
40
0.46666666666666662
40
0.53333333333333333
40
0.59999999999999998
40
0.66666666666666663
40
0.73333333333333328
40
0.79999999999999993
40
0.86666666666666659
40
0.93333333333333324
40
1
40
1
40
1
40
1
40
1
40
1
10
182.66648943536609
20
181.48319239432755
30
0
10
182.63494109766344
20
181.53529458873325
30
0
10
182.57600456902193
20
181.63878186361063
30
0
10
182.5000808956687
20
181.79186110400948
30
0
10
182.42398719806062
20
181.99163495764583
30
0
10
182.37081507499101
20
182.23451161608065
30
0
10
182.35767987440579
20
182.47208143565342
30
0
10
182.37935958188746
20
182.70761805168019
30
0
10
182.42495464950795
20
182.94715035020596
30
0
10
182.47875977661462
20
183.19897629643924
30
0
10
182.52337533998281
20
183.47211869985
30
0
10
182.54199652018326
20
183.77512302940443
30
0
10
182.5211758961895
20
184.1145729935931
30
0
10
182.45318603337424
20
184.49378988967581
30
0
10
182.33424901689716
20
184.91394834250687
30
0
10
182.16327430708765
20
185.37486335384625
30
0
10
181.98518608847766
20
185.77554610902649
30
0
10
181.82879337506151
20
186.09363957749653
30
0
10
181.71445978055442
20
186.3134593332299
30
0
10
181.65477502960417
20
186.42530857894289
30
0
0
ARC
5
246
100
AcDbEntity
8
0
100
AcDbCircle
10
166.42319350089554
20
181.22679797973063
30
0
40
9.8842515588446034
100
AcDbArc
50
17.822386005183798
51
26.552450868161664
0
SPLINE
5
247
100
AcDbEntity
8
0
100
AcDbSpline
70
1064
71
5
72
26
73
20
74
0
42
0.000000001
43
0.0000000001
44
0.0000000001
40
0
40
0
40
0
40
0
40
0
40
0
40
0.066666666666666666
40
0.13333333333333333
40
0.20000000000000001
40
0.26666666666666666
40
0.33333333333333331
40
0.39999999999999997
40
0.46666666666666662
40
0.53333333333333333
40
0.59999999999999998
40
0.66666666666666663
40
0.73333333333333328
40
0.79999999999999993
40
0.86666666666666659
40
0.93333333333333324
40
1
40
1
40
1
40
1
40
1
40
1
10
161.1389616910771
20
172.85725922935643
30
0
10
161.07795770876191
20
172.85044182900378
30
0
10
160.9591929528473
20
172.83389283397722
30
0
10
160.79077613600555
20
172.80032642628601
30
0
10
160.58581655543608
20
172.73796113199631
30
0
10
160.36202175698014
20
172.63035917041742
30
0
10
160.16823132419202
20
172.4936360548709
30
0
10
159.99857614808266
20
172.32984949069635
30
0
10
159.84141511383592
20
172.14383643558642
30
0
10
159.68027044689279
20
171.94282825808466
30
0
10
159.49701627862203
20
171.7349510885295
30
0
10
159.27427471393241
20
171.52816696606507
30
0
10
158.99833310074638
20
171.3290185733739
30
0
10
158.66166175668548
20
171.14157702077665
30
0
10
158.26091962942814
20
170.96813553395194
30
0
10
157.79553931491279
20
170.80970943777066
30
0
10
157.37222905350646
20
170.6951594704768
30
0
10
157.02661726065892
20
170.61603357027693
30
0
10
156.78379797846819
20
170.56627743209052
30
0
10
156.6592854722783
20
170.54214797973066
30
0
0
ENDSEC
0
SECTION
2
OBJECTS
0
DICTIONARY
5
C
100
AcDbDictionary
3
ACAD_GROUP
350
D
3
ACAD_MLINESTYLE
350
17
0
DICTIONARY
5
D
100
AcDbDictionary
0
DICTIONARY
5
1A
330
C
100
AcDbDictionary
0
DICTIONARY
5
17
100
AcDbDictionary
0
ENDSEC
0
EOF
